<?xml version="1.0" encoding="utf-8"?>
<!-- Generator: Adobe Illustrator 23.0.1, SVG Export Plug-In . SVG Version: 6.00 Build 0)  -->
<svg version="1.1" xmlns="http://www.w3.org/2000/svg" xmlns:xlink="http://www.w3.org/1999/xlink" x="0px" y="0px"
	 viewBox="0 0 177.36 48" style="enable-background:new 0 0 177.36 48;" xml:space="preserve">
<style type="text/css">
	.st0{fill:#102B72;stroke:#102B72;stroke-width:0.3113;}
	.st1{fill:#102B72;}
	.st2{fill:#987C4D;}
	.st3{display:none;}
	.st4{display:inline;}
	.st5{fill:#00538B;}
	.st6{fill:#8E1537;}
	.st7{display:inline;fill:#8E1537;}
	.st8{fill:#006C85;}
	.st9{display:inline;fill:#006C85;}
	.st10{fill:#D5A10F;}
	.st11{fill:#3D1152;}
	.st12{display:inline;fill:#3D1152;}
	.st13{fill:#006241;}
	.st14{display:inline;fill:#006241;}
</style>
<g id="SMU">
</g>
<g id="LKCSB" class="st3">
	<g class="st4">
		<g>
			<path class="st5" d="M14.64,31.61h5.37c2.89,0,4.75,0.96,4.91,3.55c0,1.5-0.62,2.67-2.21,3.29c1.88,0.76,2.53,1.62,2.53,3.83
				c0,2.25-1.58,3.81-5.27,3.81h-5.33V31.61z M17.41,37.39h2.77c1.32,0,1.98-0.76,1.98-1.76c0-1-0.66-1.76-1.98-1.76h-2.77V37.39z
				 M17.41,43.84h2.77c1.6,0,2.31-0.72,2.31-2.11c0-1.38-0.7-2.11-2.31-2.11h-2.77V43.84z"/>
			<path class="st5" d="M35.73,35.66v10.42h-2.29v-1.12c-0.92,0.64-1.99,1.32-3.21,1.32c-2.08,0-3.09-1.36-3.09-3.49v-7.14h2.49
				v6.78c0,1.4,0.44,1.84,1.28,1.84c1.08,0,1.9-0.62,2.33-1.1v-7.52H35.73z"/>
			<path class="st5" d="M42.94,38.41c-0.5-0.54-1.16-1.1-1.94-1.1c-0.96,0-1.4,0.4-1.4,1.02c0,1.78,5.21,1.02,5.21,4.83
				c0,2.17-1.64,3.13-3.83,3.13c-1.66,0-3.03-0.74-3.95-2.11l1.66-1.24c0.58,0.8,1.36,1.5,2.43,1.5c0.88,0,1.48-0.48,1.48-1.18
				c0-1.78-5.21-1.14-5.21-4.77c0-1.94,1.64-3.03,3.45-3.03c1.38,0,2.77,0.52,3.67,1.58L42.94,38.41z"/>
			<path class="st5" d="M46.44,33.74v-2.33h2.49v2.33H46.44z M48.92,46.09h-2.49V35.66h2.49V46.09z"/>
			<path class="st5" d="M51.14,46.09V35.66h2.29v1.12c0.92-0.64,1.99-1.32,3.21-1.32c2.08,0,3.09,1.36,3.09,3.49v7.14h-2.49v-6.78
				c0-1.4-0.44-1.84-1.28-1.84c-1.08,0-1.9,0.62-2.33,1.1v7.52H51.14z"/>
			<path class="st5" d="M63.67,41.28c0.04,2.17,1,3.01,2.17,3.01c1.16,0,1.7-0.52,2.33-1.24l1.8,1.12
				c-0.96,1.48-2.37,2.13-4.37,2.13c-2.71,0-4.41-2.11-4.41-5.41c0-3.31,1.7-5.41,4.53-5.41c2.73-0.02,4.25,2.29,4.25,4.79v1.02
				H63.67z M67.68,39.59c-0.04-1.44-0.8-2.29-2-2.29s-1.96,0.84-2,2.29H67.68z"/>
			<path class="st5" d="M76.88,38.41c-0.5-0.54-1.16-1.1-1.94-1.1c-0.96,0-1.4,0.4-1.4,1.02c0,1.78,5.21,1.02,5.21,4.83
				c0,2.17-1.64,3.13-3.83,3.13c-1.66,0-3.03-0.74-3.95-2.11l1.66-1.24c0.58,0.8,1.36,1.5,2.43,1.5c0.88,0,1.48-0.48,1.48-1.18
				c0-1.78-5.21-1.14-5.21-4.77c0-1.94,1.64-3.03,3.45-3.03c1.38,0,2.77,0.52,3.67,1.58L76.88,38.41z"/>
			<path class="st5" d="M85.58,38.41c-0.5-0.54-1.16-1.1-1.94-1.1c-0.96,0-1.4,0.4-1.4,1.02c0,1.78,5.21,1.02,5.21,4.83
				c0,2.17-1.64,3.13-3.83,3.13c-1.66,0-3.03-0.74-3.95-2.11l1.66-1.24c0.58,0.8,1.36,1.5,2.43,1.5c0.88,0,1.48-0.48,1.48-1.18
				c0-1.78-5.21-1.14-5.21-4.77c0-1.94,1.64-3.03,3.45-3.03c1.38,0,2.77,0.52,3.67,1.58L85.58,38.41z"/>
		</g>
		<g>
			<path class="st5" d="M18.74,20.01c-0.22-0.6-0.68-1-1.37-1c-0.64,0-1.1,0.26-1.1,0.85c0,1.32,3.96,1.04,3.96,3.54
				c0,1.58-0.99,2.36-2.7,2.36c-1.26,0-2.44-0.7-2.88-1.82l1.21-0.53c0.35,0.72,0.81,1.2,1.67,1.2c0.74,0,1.3-0.28,1.3-1.02
				c0-1.51-3.96-1.21-3.96-3.58c0-1.37,1.15-2.15,2.48-2.15c1.24,0,2.26,0.62,2.72,1.74L18.74,20.01z"/>
			<path class="st5" d="M24.41,21.92c-0.21-0.47-0.45-0.84-1.09-0.84c-0.74,0-1.09,0.58-1.09,1.81c0,1.24,0.35,1.81,1.13,1.81
				c0.58,0,0.91-0.39,1.17-0.88l1,0.57c-0.53,0.99-1.2,1.4-2.22,1.38c-1.5,0-2.41-1.12-2.41-2.88c0-1.76,0.91-2.88,2.41-2.88
				c1.04,0,1.87,0.55,2.18,1.48L24.41,21.92z"/>
			<path class="st5" d="M26.35,25.66v-7.69h1.32v2.75c0.4-0.34,0.95-0.7,1.6-0.7c1.11,0,1.64,0.72,1.64,1.85v3.79h-1.32v-3.6
				c0-0.75-0.23-0.98-0.68-0.98c-0.58,0-1.01,0.33-1.24,0.59v3.99H26.35z"/>
			<path class="st5" d="M34.13,20.01c1.5,0,2.41,1.12,2.41,2.88c0,1.76-0.91,2.88-2.41,2.88c-1.5,0-2.41-1.12-2.41-2.88
				C31.72,21.13,32.63,20.01,34.13,20.01z M34.13,21.08c-0.74,0-1.09,0.58-1.09,1.81c0,1.24,0.35,1.81,1.09,1.81
				c0.74,0,1.09-0.58,1.09-1.81C35.22,21.65,34.87,21.08,34.13,21.08z"/>
			<path class="st5" d="M39.45,20.01c1.5,0,2.41,1.12,2.41,2.88c0,1.76-0.91,2.88-2.41,2.88s-2.41-1.12-2.41-2.88
				C37.04,21.13,37.95,20.01,39.45,20.01z M39.45,21.08c-0.74,0-1.09,0.58-1.09,1.81c0,1.24,0.35,1.81,1.09,1.81
				c0.74,0,1.09-0.58,1.09-1.81C40.54,21.65,40.18,21.08,39.45,21.08z"/>
			<path class="st5" d="M42.77,25.66v-7.69h1.32v7.69H42.77z"/>
			<path class="st5" d="M50.82,20.01c1.5,0,2.41,1.12,2.41,2.88c0,1.76-0.91,2.88-2.41,2.88s-2.41-1.12-2.41-2.88
				C48.41,21.13,49.32,20.01,50.82,20.01z M50.82,21.08c-0.74,0-1.09,0.58-1.09,1.81c0,1.24,0.35,1.81,1.09,1.81
				c0.74,0,1.09-0.58,1.09-1.81C51.9,21.65,51.55,21.08,50.82,21.08z"/>
			<path class="st5" d="M55.6,21.18v4.47h-1.32v-4.47h-0.77v-1.07h0.76v-0.68c0-1.19,0.48-1.58,1.57-1.58h0.87v1.07h-0.36
				c-0.55,0-0.75,0.17-0.75,0.6v0.6h1.12v1.07H55.6z"/>
		</g>
		<g>
			<path class="st5" d="M14.62,13.91V6.22h1.47v6.46h3.35v1.24H14.62z"/>
			<path class="st5" d="M21.18,11.36c0.02,1.15,0.53,1.6,1.15,1.6c0.62,0,0.91-0.28,1.24-0.66l0.96,0.6
				c-0.51,0.79-1.26,1.13-2.32,1.13c-1.44,0-2.34-1.12-2.34-2.88c0-1.76,0.91-2.88,2.41-2.88c1.45-0.01,2.26,1.21,2.26,2.55v0.54
				H21.18z M23.31,10.46c-0.02-0.77-0.43-1.21-1.07-1.21c-0.64,0-1.04,0.45-1.07,1.21H23.31z"/>
			<path class="st5" d="M26.42,11.36c0.02,1.15,0.53,1.6,1.15,1.6c0.62,0,0.91-0.28,1.24-0.66l0.96,0.6
				c-0.51,0.79-1.26,1.13-2.32,1.13c-1.44,0-2.34-1.12-2.34-2.88c0-1.76,0.91-2.88,2.41-2.88c1.45-0.01,2.26,1.21,2.26,2.55v0.54
				H26.42z M28.55,10.46c-0.02-0.77-0.43-1.21-1.07-1.21s-1.04,0.45-1.07,1.21H28.55z"/>
			<path class="st5" d="M34.25,13.91V6.22h1.47v3.44H35.7l2.59-3.44h1.69L37.8,9.11l2.54,4.8h-1.63l-1.91-3.65l-1.08,1.34v2.31
				H34.25z"/>
			<path class="st5" d="M42.83,8.27c1.5,0,2.41,1.12,2.41,2.88c0,1.76-0.91,2.88-2.41,2.88s-2.41-1.12-2.41-2.88
				C40.43,9.38,41.33,8.27,42.83,8.27z M42.83,9.33c-0.74,0-1.09,0.58-1.09,1.81c0,1.24,0.35,1.81,1.09,1.81
				c0.74,0,1.09-0.58,1.09-1.81C43.92,9.91,43.57,9.33,42.83,9.33z"/>
			<path class="st5" d="M46.07,13.91V8.37h1.21v0.6c0.49-0.34,1.05-0.7,1.7-0.7c1.11,0,1.64,0.72,1.64,1.85v3.79h-1.32v-3.6
				c0-0.75-0.23-0.98-0.68-0.98c-0.58,0-1.01,0.33-1.24,0.59v3.99H46.07z"/>
			<path class="st5" d="M56.37,9.16c-0.31,0-0.65,0-0.85,0.13c0.17,0.23,0.3,0.55,0.3,0.98c0,1.04-0.7,1.79-2.09,1.79
				c-0.58,0-1.03,0.02-1.03,0.34c0,0.9,3.64-0.32,3.64,1.9c0,0.79-0.8,1.64-2.57,1.64c-1.49,0-2.47-0.45-2.47-1.32
				c0-0.69,0.52-1.02,1-1.02v-0.02c-0.26-0.16-0.82-0.3-0.82-0.89c0-0.53,0.62-0.94,0.86-1.01c-0.46-0.37-0.82-0.8-0.82-1.47
				c0-0.97,0.75-1.93,2.18-1.93c0.47,0,1.02,0.19,1.36,0.49c0.26-0.34,0.67-0.51,1.3-0.49V9.16z M52.52,14.44
				c0,0.43,0.36,0.62,1.47,0.62c0.85,0,1.14-0.43,1.14-0.62c0-0.26-0.39-0.64-1.67-0.64C52.73,13.81,52.52,14.21,52.52,14.44z
				 M53.7,9.25c-0.56,0-0.96,0.4-0.96,0.92s0.39,0.92,0.96,0.92c0.5,0,0.91-0.4,0.91-0.92S54.2,9.25,53.7,9.25z"/>
			<path class="st5" d="M64.51,8.46c-0.21-0.65-0.67-1.11-1.4-1.11c-0.98,0-1.58,0.92-1.58,2.72c-0.02,1.8,0.51,2.72,1.62,2.72
				c0.66,0,1.07-0.23,1.5-1.14L66.03,12c-0.46,1.33-1.46,2.01-2.87,2.01c-1.96,0-3.09-1.44-3.09-3.95c0-2.51,1.13-3.95,3.09-3.95
				c1.47,0,2.32,0.66,2.68,2.02L64.51,8.46z"/>
			<path class="st5" d="M66.77,13.91V6.22h1.32v2.75c0.4-0.34,0.95-0.7,1.6-0.7c1.11,0,1.64,0.72,1.64,1.85v3.79h-1.32v-3.6
				c0-0.75-0.23-0.98-0.68-0.98c-0.58,0-1.01,0.33-1.24,0.59v3.99H66.77z"/>
			<path class="st5" d="M72.55,7.35V6.11h1.32v1.24H72.55z M73.87,13.91h-1.32V8.37h1.32V13.91z"/>
			<path class="st5" d="M77.99,13.91l-0.09-0.48c-0.53,0.36-1.03,0.59-1.73,0.59c-1,0-1.5-0.71-1.5-1.47c0-1.26,1.02-1.92,3.17-2.17
				V9.91c0-0.43-0.34-0.66-0.81-0.66c-0.62,0-0.96,0.33-1.21,0.68l-0.85-0.65c0.34-0.59,1.26-1.03,2.07-1.01
				c1.49,0.03,2.13,0.58,2.13,2.24v2.61c0,0.28,0.02,0.55,0.11,0.8H77.99z M77.85,11.26c-0.88,0.17-1.85,0.35-1.85,1.13
				c0,0.42,0.27,0.65,0.64,0.65c0.42,0,0.94-0.35,1.21-0.59V11.26z"/>
			<path class="st5" d="M80.29,13.91V8.37h1.21v0.6c0.49-0.34,1.05-0.7,1.7-0.7c1.11,0,1.64,0.72,1.64,1.85v3.79h-1.32v-3.6
				c0-0.75-0.23-0.98-0.68-0.98c-0.58,0-1.01,0.33-1.24,0.59v3.99H80.29z"/>
		</g>
		<rect id="Separator_2_" y="6.11" class="st5" width="1" height="39.87"/>
	</g>
</g>
<g id="SOA" class="st3">
	<g class="st4">
		<g>
			<path class="st6" d="M18.62,19.49h3.29l3.92,13.83h-2.62l-0.77-2.98h-4.36l-0.82,2.98h-2.62L18.62,19.49z M18.66,28.16h3.21
				l-1.55-6.01h-0.04L18.66,28.16z"/>
			<path class="st6" d="M32.47,26.61c-0.38-0.84-0.8-1.51-1.95-1.51c-1.32,0-1.95,1.03-1.95,3.25c0,2.22,0.63,3.25,2.03,3.25
				c1.03,0,1.63-0.71,2.1-1.59l1.8,1.01c-0.96,1.78-2.16,2.51-3.98,2.49c-2.7,0-4.32-2.01-4.32-5.17c0-3.16,1.63-5.17,4.32-5.17
				c1.88,0,3.37,1,3.92,2.66L32.47,26.61z"/>
			<path class="st6" d="M41.63,26.61c-0.38-0.84-0.8-1.51-1.95-1.51c-1.32,0-1.95,1.03-1.95,3.25c0,2.22,0.63,3.25,2.03,3.25
				c1.03,0,1.63-0.71,2.1-1.59l1.8,1.01c-0.96,1.78-2.16,2.51-3.98,2.49c-2.7,0-4.32-2.01-4.32-5.17c0-3.16,1.63-5.17,4.32-5.17
				c1.88,0,3.37,1,3.92,2.66L41.63,26.61z"/>
			<path class="st6" d="M48.83,23.18c2.7,0,4.32,2.01,4.32,5.17c0,3.16-1.63,5.17-4.32,5.17s-4.32-2.01-4.32-5.17
				C44.51,25.19,46.13,23.18,48.83,23.18z M48.83,25.09c-1.32,0-1.95,1.03-1.95,3.25c0,2.22,0.63,3.25,1.95,3.25
				s1.95-1.03,1.95-3.25C50.78,26.13,50.15,25.09,48.83,25.09z"/>
			<path class="st6" d="M62.76,23.37v9.95h-2.18v-1.07c-0.88,0.61-1.89,1.26-3.06,1.26c-1.99,0-2.95-1.3-2.95-3.33v-6.81h2.37v6.47
				c0,1.34,0.42,1.76,1.22,1.76c1.03,0,1.82-0.59,2.22-1.05v-7.18H62.76z"/>
			<path class="st6" d="M64.8,33.32v-9.95h2.18v1.07c0.88-0.61,1.89-1.26,3.06-1.26c1.99,0,2.95,1.3,2.95,3.33v6.81h-2.37v-6.47
				c0-1.34-0.42-1.76-1.22-1.76c-1.03,0-1.82,0.59-2.22,1.05v7.17H64.8z"/>
			<path class="st6" d="M75.46,23.37v-3.29h2.37v3.29h1.95v1.91h-1.95v5.63c0,0.54,0.27,0.69,0.86,0.69c0.36,0,0.75-0.11,1.09-0.19
				v1.95c-0.65,0.08-1.22,0.15-1.87,0.15c-1.76,0-2.45-0.88-2.45-2.3v-5.93h-1.38v-1.91H75.46z"/>
			<path class="st6" d="M86.51,33.32l-0.15-0.86c-0.96,0.65-1.86,1.05-3.1,1.05c-1.8,0-2.7-1.28-2.7-2.64c0-2.26,1.84-3.44,5.7-3.9
				v-0.84c0-0.76-0.61-1.19-1.45-1.19c-1.11,0-1.72,0.59-2.18,1.22L81.1,25c0.61-1.05,2.26-1.86,3.71-1.82
				c2.68,0.06,3.83,1.03,3.83,4.02v4.69c0,0.5,0.04,0.99,0.19,1.43H86.51z M86.26,28.56c-1.59,0.31-3.33,0.63-3.33,2.03
				c0,0.75,0.48,1.17,1.15,1.17c0.75,0,1.68-0.63,2.18-1.05V28.56z"/>
			<path class="st6" d="M90.6,33.32v-9.95h2.18v1.07c0.88-0.61,1.89-1.26,3.06-1.26c1.99,0,2.95,1.3,2.95,3.33v6.81h-2.37v-6.47
				c0-1.34-0.42-1.76-1.22-1.76c-1.03,0-1.82,0.59-2.22,1.05v7.17H90.6z"/>
			<path class="st6" d="M106.48,26.61c-0.38-0.84-0.8-1.51-1.95-1.51c-1.32,0-1.95,1.03-1.95,3.25c0,2.22,0.63,3.25,2.03,3.25
				c1.03,0,1.63-0.71,2.1-1.59l1.8,1.01c-0.96,1.78-2.16,2.51-3.98,2.49c-2.7,0-4.32-2.01-4.32-5.17c0-3.16,1.63-5.17,4.32-5.17
				c1.88,0,3.37,1,3.92,2.66L106.48,26.61z"/>
			<path class="st6" d="M109.06,34.93c0.36,0.08,0.65,0.08,0.99,0.08c0.82,0,1.28-0.23,1.57-0.78c0.23-0.48,0.38-0.77,0.38-1.17
				c0-0.36-0.19-0.78-0.31-1.19l-2.66-8.5h2.39l1.65,6.12h0.04l1.7-6.12h2.37l-3.14,9.97c-1.05,2.85-1.89,3.62-3.85,3.62
				c-0.57,0-0.86-0.04-1.15-0.08V34.93z"/>
		</g>
		<g>
			<path class="st6" d="M18.54,8.12c-0.21-0.57-0.65-0.96-1.31-0.96c-0.61,0-1.05,0.24-1.05,0.81c0,1.26,3.78,1,3.78,3.37
				c0,1.5-0.95,2.26-2.57,2.26c-1.2,0-2.33-0.67-2.74-1.74l1.16-0.51c0.33,0.69,0.77,1.15,1.6,1.15c0.7,0,1.24-0.26,1.24-0.98
				c0-1.44-3.78-1.16-3.78-3.41c0-1.31,1.1-2.05,2.37-2.05c1.18,0,2.15,0.59,2.59,1.66L18.54,8.12z"/>
			<path class="st6" d="M23.95,9.94c-0.2-0.45-0.43-0.8-1.04-0.8c-0.7,0-1.04,0.55-1.04,1.73c0,1.18,0.34,1.73,1.08,1.73
				c0.55,0,0.86-0.38,1.12-0.84l0.95,0.54c-0.51,0.94-1.15,1.33-2.11,1.32c-1.43,0-2.3-1.07-2.3-2.74c0-1.68,0.86-2.74,2.3-2.74
				c1,0,1.79,0.53,2.08,1.41L23.95,9.94z"/>
			<path class="st6" d="M25.81,13.51V6.17h1.26v2.62c0.39-0.32,0.9-0.67,1.52-0.67c1.06,0,1.56,0.69,1.56,1.77v3.62H28.9v-3.43
				c0-0.71-0.22-0.93-0.65-0.93c-0.55,0-0.97,0.31-1.18,0.56v3.81H25.81z"/>
			<path class="st6" d="M33.24,8.12c1.43,0,2.3,1.07,2.3,2.74c0,1.68-0.86,2.74-2.3,2.74c-1.43,0-2.3-1.07-2.3-2.74
				C30.94,9.19,31.81,8.12,33.24,8.12z M33.24,9.14c-0.7,0-1.04,0.55-1.04,1.73c0,1.18,0.34,1.73,1.04,1.73
				c0.7,0,1.04-0.55,1.04-1.73C34.28,9.69,33.94,9.14,33.24,9.14z"/>
			<path class="st6" d="M38.32,8.12c1.43,0,2.3,1.07,2.3,2.74c0,1.68-0.86,2.74-2.3,2.74s-2.3-1.07-2.3-2.74
				C36.02,9.19,36.89,8.12,38.32,8.12z M38.32,9.14c-0.7,0-1.04,0.55-1.04,1.73c0,1.18,0.34,1.73,1.04,1.73s1.04-0.55,1.04-1.73
				C39.36,9.69,39.02,9.14,38.32,9.14z"/>
			<path class="st6" d="M41.49,13.51V6.17h1.26v7.34H41.49z"/>
			<path class="st6" d="M49.18,8.12c1.43,0,2.3,1.07,2.3,2.74c0,1.68-0.86,2.74-2.3,2.74c-1.43,0-2.3-1.07-2.3-2.74
				C46.88,9.19,47.74,8.12,49.18,8.12z M49.18,9.14c-0.7,0-1.04,0.55-1.04,1.73c0,1.18,0.34,1.73,1.04,1.73
				c0.7,0,1.04-0.55,1.04-1.73C50.21,9.69,49.88,9.14,49.18,9.14z"/>
			<path class="st6" d="M53.74,9.24v4.27h-1.26V9.24h-0.73V8.23h0.72V7.58c0-1.14,0.46-1.5,1.49-1.5h0.83v1.02h-0.35
				c-0.53,0-0.71,0.16-0.71,0.57v0.57h1.07v1.02H53.74z"/>
		</g>
	</g>
	<rect id="Separator_10_" y="6.11" class="st7" width="0.89" height="27.26"/>
</g>
<g id="SOE" class="st3">
	<g class="st4">
		<g>
			<path class="st8" d="M14.83,33.13v-13.7h9.07v2.2h-6.45v3.26h4.69v2.2h-4.69v3.83h6.66v2.2H14.83z"/>
			<path class="st8" d="M31.16,26.47c-0.38-0.84-0.8-1.5-1.94-1.5c-1.31,0-1.93,1.02-1.93,3.22c0,2.2,0.63,3.23,2.01,3.23
				c1.02,0,1.61-0.7,2.09-1.58l1.78,1.01c-0.95,1.76-2.14,2.49-3.95,2.47c-2.68,0-4.29-1.99-4.29-5.12c0-3.13,1.61-5.12,4.29-5.12
				c1.86,0,3.34,0.99,3.89,2.64L31.16,26.47z"/>
			<path class="st8" d="M38.31,23.08c2.68,0,4.29,1.99,4.29,5.12c0,3.13-1.61,5.12-4.29,5.12c-2.67,0-4.29-1.99-4.29-5.12
				C34.02,25.07,35.63,23.08,38.31,23.08z M38.31,24.98c-1.31,0-1.93,1.02-1.93,3.22c0,2.2,0.63,3.23,1.93,3.23
				c1.31,0,1.94-1.02,1.94-3.23C40.24,26,39.62,24.98,38.31,24.98z"/>
			<path class="st8" d="M44.03,33.13v-9.87h2.16v1.06c0.87-0.61,1.88-1.25,3.04-1.25c1.97,0,2.92,1.29,2.92,3.3v6.75H49.8v-6.41
				c0-1.33-0.42-1.75-1.21-1.75c-1.02,0-1.8,0.59-2.2,1.04v7.11H44.03z"/>
			<path class="st8" d="M57.84,23.08c2.67,0,4.29,1.99,4.29,5.12c0,3.13-1.61,5.12-4.29,5.12c-2.68,0-4.29-1.99-4.29-5.12
				C53.56,25.07,55.17,23.08,57.84,23.08z M57.84,24.98c-1.31,0-1.93,1.02-1.93,3.22c0,2.2,0.63,3.23,1.93,3.23s1.94-1.02,1.94-3.23
				C59.78,26,59.15,24.98,57.84,24.98z"/>
			<path class="st8" d="M63.57,33.13v-9.87h2.14v1.06c0.89-0.82,1.61-1.25,2.96-1.25c1.02,0,1.99,0.49,2.43,1.44
				c0.82-0.82,1.76-1.44,3.4-1.44c1.02,0,2.43,0.61,2.43,2.96v7.1h-2.35v-6.89c0-0.8-0.32-1.23-1.18-1.27
				c-0.61,0-1.42,0.55-1.97,1.06v7.1h-2.35v-6.89c0-0.8-0.32-1.23-1.18-1.27c-0.61,0-1.42,0.55-1.97,1.06v7.1H63.57z"/>
			<path class="st8" d="M79.09,21.45v-2.2h2.35v2.2H79.09z M81.44,33.13h-2.35v-9.87h2.35V33.13z"/>
			<path class="st8" d="M89.22,26.47c-0.38-0.84-0.8-1.5-1.94-1.5c-1.31,0-1.93,1.02-1.93,3.22c0,2.2,0.63,3.23,2.01,3.23
				c1.02,0,1.61-0.7,2.09-1.58l1.78,1.01c-0.95,1.76-2.14,2.49-3.95,2.47c-2.68,0-4.29-1.99-4.29-5.12c0-3.13,1.61-5.12,4.29-5.12
				c1.86,0,3.34,0.99,3.89,2.64L89.22,26.47z"/>
			<path class="st8" d="M97.77,25.87c-0.47-0.51-1.1-1.04-1.84-1.04c-0.91,0-1.33,0.38-1.33,0.97c0,1.69,4.93,0.97,4.93,4.57
				c0,2.05-1.56,2.96-3.62,2.96c-1.57,0-2.86-0.7-3.74-1.99l1.57-1.18c0.55,0.76,1.29,1.42,2.3,1.42c0.83,0,1.4-0.46,1.4-1.12
				c0-1.69-4.93-1.08-4.93-4.52c0-1.84,1.56-2.86,3.26-2.86c1.31,0,2.62,0.49,3.47,1.5L97.77,25.87z"/>
		</g>
		<g>
			<path class="st8" d="M18.5,8.15c-0.21-0.56-0.64-0.95-1.3-0.95c-0.6,0-1.04,0.24-1.04,0.81c0,1.25,3.75,0.99,3.75,3.34
				c0,1.49-0.94,2.24-2.55,2.24c-1.19,0-2.31-0.67-2.72-1.72l1.15-0.5c0.33,0.68,0.77,1.14,1.58,1.14c0.7,0,1.23-0.26,1.23-0.97
				c0-1.43-3.75-1.15-3.75-3.39c0-1.3,1.09-2.04,2.35-2.04c1.17,0,2.14,0.58,2.57,1.64L18.5,8.15z"/>
			<path class="st8" d="M23.87,9.95c-0.2-0.44-0.42-0.8-1.03-0.8c-0.7,0-1.03,0.54-1.03,1.71s0.33,1.71,1.07,1.71
				c0.54,0,0.86-0.37,1.11-0.84l0.95,0.53c-0.5,0.94-1.14,1.32-2.1,1.31c-1.42,0-2.28-1.06-2.28-2.72s0.86-2.72,2.28-2.72
				c0.99,0,1.77,0.52,2.07,1.4L23.87,9.95z"/>
			<path class="st8" d="M25.72,13.49V6.21h1.25v2.6c0.38-0.32,0.9-0.67,1.51-0.67c1.05,0,1.55,0.69,1.55,1.75v3.59h-1.25v-3.41
				c0-0.7-0.22-0.93-0.64-0.93c-0.54,0-0.96,0.31-1.17,0.55v3.78H25.72z"/>
			<path class="st8" d="M33.08,8.15c1.42,0,2.28,1.06,2.28,2.72s-0.86,2.72-2.28,2.72c-1.42,0-2.28-1.06-2.28-2.72
				S31.66,8.15,33.08,8.15z M33.08,9.16c-0.7,0-1.03,0.54-1.03,1.71s0.33,1.71,1.03,1.71s1.03-0.54,1.03-1.71S33.78,9.16,33.08,9.16
				z"/>
			<path class="st8" d="M38.12,8.15c1.42,0,2.28,1.06,2.28,2.72s-0.86,2.72-2.28,2.72s-2.28-1.06-2.28-2.72S36.7,8.15,38.12,8.15z
				 M38.12,9.16c-0.7,0-1.03,0.54-1.03,1.71s0.33,1.71,1.03,1.71s1.03-0.54,1.03-1.71S38.82,9.16,38.12,9.16z"/>
			<path class="st8" d="M41.27,13.49V6.21h1.25v7.27H41.27z"/>
			<path class="st8" d="M48.89,8.15c1.42,0,2.28,1.06,2.28,2.72s-0.86,2.72-2.28,2.72s-2.28-1.06-2.28-2.72S47.46,8.15,48.89,8.15z
				 M48.89,9.16c-0.7,0-1.03,0.54-1.03,1.71s0.33,1.71,1.03,1.71s1.03-0.54,1.03-1.71S49.58,9.16,48.89,9.16z"/>
			<path class="st8" d="M53.41,9.26v4.23h-1.25V9.26h-0.73V8.25h0.72V7.6c0-1.13,0.45-1.49,1.48-1.49h0.83v1.01h-0.34
				c-0.52,0-0.71,0.16-0.71,0.56v0.56h1.06v1.01H53.41z"/>
		</g>
	</g>
	<rect id="Separator_3_" y="6.09" class="st9" width="1" height="27.26"/>
</g>
<g id="SOIS">
	<rect id="Separator_7_" y="6.11" class="st10" width="1" height="27.26"/>
	<g>
		<g>
			<path class="st10" d="M14.64,33.3V19.51h2.64V33.3H14.64z"/>
			<path class="st10" d="M19.71,33.3v-9.93h2.18v1.07c0.88-0.61,1.89-1.26,3.06-1.26c1.99,0,2.94,1.3,2.94,3.32v6.8h-2.37v-6.46
				c0-1.34-0.42-1.76-1.22-1.76c-1.03,0-1.81,0.59-2.22,1.05v7.16H19.71z"/>
			<path class="st10" d="M32.72,25.28v8.02h-2.37v-8.02h-1.38v-1.91h1.36v-1.22c0-2.14,0.86-2.83,2.81-2.83h1.57v1.91h-0.65
				c-0.99,0-1.34,0.31-1.34,1.07v1.07h2.01v1.91H32.72z"/>
			<path class="st10" d="M39.57,23.18c2.69,0,4.32,2.01,4.32,5.16c0,3.15-1.62,5.16-4.32,5.16c-2.69,0-4.32-2.01-4.32-5.16
				C35.26,25.18,36.88,23.18,39.57,23.18z M39.57,25.09c-1.32,0-1.95,1.03-1.95,3.25c0,2.22,0.63,3.25,1.95,3.25
				c1.32,0,1.95-1.03,1.95-3.25C41.52,26.12,40.89,25.09,39.57,25.09z"/>
			<path class="st10" d="M45.26,33.3v-9.93h2.18v1.7h0.04c0.57-1.18,1.38-1.85,2.79-1.89v2.5c-0.11-0.02-0.25-0.02-0.42-0.02
				c-1.18,0-2.22,1.36-2.22,1.6v6.04H45.26z"/>
			<path class="st10" d="M51.41,33.3v-9.93h2.16v1.07c0.9-0.82,1.62-1.26,2.98-1.26c1.03,0,2.01,0.5,2.45,1.45
				c0.82-0.82,1.78-1.45,3.42-1.45c1.03,0,2.45,0.61,2.45,2.98v7.14h-2.37v-6.93c0-0.8-0.32-1.24-1.18-1.28
				c-0.61,0-1.43,0.55-1.99,1.07v7.14h-2.37v-6.93c0-0.8-0.33-1.24-1.18-1.28c-0.61,0-1.43,0.55-1.99,1.07v7.14H51.41z"/>
			<path class="st10" d="M72.08,33.3l-0.15-0.86c-0.96,0.65-1.85,1.05-3.1,1.05c-1.8,0-2.69-1.28-2.69-2.64
				c0-2.25,1.83-3.44,5.69-3.9v-0.84c0-0.76-0.61-1.18-1.45-1.18c-1.11,0-1.72,0.59-2.18,1.22l-1.53-1.17
				c0.61-1.05,2.25-1.85,3.71-1.81c2.67,0.06,3.82,1.03,3.82,4.01v4.68c0,0.5,0.04,0.99,0.19,1.43H72.08z M71.84,28.55
				c-1.59,0.31-3.32,0.63-3.32,2.02c0,0.75,0.48,1.17,1.15,1.17c0.74,0,1.68-0.63,2.18-1.05V28.55z"/>
			<path class="st10" d="M76.58,23.37v-3.29h2.37v3.29h1.95v1.91h-1.95v5.62c0,0.53,0.27,0.69,0.86,0.69c0.36,0,0.74-0.11,1.09-0.19
				v1.95c-0.65,0.08-1.22,0.15-1.87,0.15c-1.76,0-2.45-0.88-2.45-2.29v-5.92H75.2v-1.91H76.58z"/>
			<path class="st10" d="M82.4,21.53v-2.22h2.37v2.22H82.4z M84.77,33.3H82.4v-9.93h2.37V33.3z"/>
			<path class="st10" d="M90.66,23.18c2.69,0,4.32,2.01,4.32,5.16c0,3.15-1.62,5.16-4.32,5.16c-2.69,0-4.32-2.01-4.32-5.16
				C86.34,25.18,87.96,23.18,90.66,23.18z M90.66,25.09c-1.32,0-1.95,1.03-1.95,3.25c0,2.22,0.63,3.25,1.95,3.25
				s1.95-1.03,1.95-3.25C92.61,26.12,91.98,25.09,90.66,25.09z"/>
			<path class="st10" d="M96.42,33.3v-9.93h2.18v1.07c0.88-0.61,1.89-1.26,3.06-1.26c1.99,0,2.94,1.3,2.94,3.32v6.8h-2.37v-6.46
				c0-1.34-0.42-1.76-1.22-1.76c-1.03,0-1.82,0.59-2.22,1.05v7.16H96.42z"/>
			<path class="st10" d="M119.65,23.18c-0.4-1.07-1.22-1.8-2.46-1.8c-1.15,0-1.97,0.46-1.97,1.53c0,2.37,7.11,1.87,7.11,6.34
				c0,2.83-1.78,4.24-4.83,4.24c-2.25,0-4.38-1.26-5.16-3.27l2.18-0.95c0.63,1.3,1.45,2.16,3,2.16c1.32,0,2.33-0.5,2.33-1.83
				c0-2.71-7.11-2.18-7.11-6.42c0-2.46,2.06-3.86,4.45-3.86c2.22,0,4.05,1.11,4.87,3.11L119.65,23.18z"/>
			<path class="st10" d="M122.8,34.91c0.36,0.08,0.65,0.08,0.99,0.08c0.82,0,1.28-0.23,1.57-0.78c0.23-0.48,0.38-0.76,0.38-1.17
				c0-0.36-0.19-0.78-0.31-1.18l-2.66-8.48h2.39l1.64,6.11h0.04l1.7-6.11h2.37l-3.13,9.95c-1.05,2.85-1.89,3.61-3.84,3.61
				c-0.57,0-0.86-0.04-1.15-0.08V34.91z"/>
			<path class="st10" d="M136.78,25.99c-0.48-0.52-1.11-1.05-1.85-1.05c-0.92,0-1.34,0.38-1.34,0.97c0,1.7,4.97,0.97,4.97,4.6
				c0,2.06-1.57,2.98-3.65,2.98c-1.59,0-2.88-0.71-3.76-2.01l1.59-1.18c0.55,0.76,1.3,1.43,2.31,1.43c0.84,0,1.41-0.46,1.41-1.13
				c0-1.7-4.97-1.09-4.97-4.55c0-1.85,1.57-2.88,3.29-2.88c1.32,0,2.64,0.5,3.5,1.51L136.78,25.99z"/>
			<path class="st10" d="M140.62,23.37v-3.29h2.37v3.29h1.95v1.91h-1.95v5.62c0,0.53,0.27,0.69,0.86,0.69
				c0.36,0,0.74-0.11,1.09-0.19v1.95c-0.65,0.08-1.22,0.15-1.87,0.15c-1.76,0-2.45-0.88-2.45-2.29v-5.92h-1.38v-1.91H140.62z"/>
			<path class="st10" d="M147.9,28.72c0.04,2.06,0.95,2.87,2.06,2.87s1.62-0.5,2.22-1.18l1.72,1.07c-0.92,1.41-2.25,2.02-4.16,2.02
				c-2.58,0-4.2-2.01-4.2-5.16c0-3.15,1.62-5.16,4.32-5.16c2.6-0.02,4.05,2.18,4.05,4.57v0.97H147.9z M151.72,27.11
				c-0.04-1.38-0.76-2.18-1.91-2.18c-1.15,0-1.87,0.8-1.91,2.18H151.72z"/>
			<path class="st10" d="M155.47,33.3v-9.93h2.16v1.07c0.9-0.82,1.62-1.26,2.98-1.26c1.03,0,2.01,0.5,2.45,1.45
				c0.82-0.82,1.78-1.45,3.42-1.45c1.03,0,2.45,0.61,2.45,2.98v7.14h-2.37v-6.93c0-0.8-0.33-1.24-1.19-1.28
				c-0.61,0-1.43,0.55-1.99,1.07v7.14h-2.37v-6.93c0-0.8-0.32-1.24-1.18-1.28c-0.61,0-1.43,0.55-1.99,1.07v7.14H155.47z"/>
			<path class="st10" d="M175.8,25.99c-0.48-0.52-1.11-1.05-1.85-1.05c-0.92,0-1.34,0.38-1.34,0.97c0,1.7,4.97,0.97,4.97,4.6
				c0,2.06-1.57,2.98-3.65,2.98c-1.59,0-2.88-0.71-3.76-2.01l1.59-1.18c0.55,0.76,1.3,1.43,2.31,1.43c0.84,0,1.41-0.46,1.41-1.13
				c0-1.7-4.97-1.09-4.97-4.55c0-1.85,1.57-2.88,3.29-2.88c1.32,0,2.64,0.5,3.5,1.51L175.8,25.99z"/>
		</g>
		<g>
			<path class="st10" d="M18.53,8.14c-0.21-0.57-0.65-0.95-1.31-0.95c-0.61,0-1.05,0.24-1.05,0.81c0,1.26,3.77,0.99,3.77,3.37
				c0,1.5-0.94,2.25-2.57,2.25c-1.2,0-2.32-0.67-2.74-1.73l1.16-0.51c0.33,0.69,0.77,1.15,1.59,1.15c0.7,0,1.24-0.26,1.24-0.97
				c0-1.44-3.77-1.16-3.77-3.41c0-1.31,1.1-2.05,2.36-2.05c1.18,0,2.15,0.59,2.59,1.65L18.53,8.14z"/>
			<path class="st10" d="M23.94,9.96c-0.2-0.45-0.43-0.8-1.03-0.8c-0.7,0-1.03,0.55-1.03,1.72c0,1.18,0.33,1.72,1.08,1.72
				c0.55,0,0.86-0.38,1.12-0.84l0.95,0.54c-0.51,0.94-1.15,1.33-2.11,1.32c-1.43,0-2.29-1.07-2.29-2.74c0-1.67,0.86-2.74,2.29-2.74
				c0.99,0,1.79,0.53,2.08,1.41L23.94,9.96z"/>
			<path class="st10" d="M25.79,13.52V6.2h1.26v2.62c0.39-0.32,0.9-0.67,1.52-0.67c1.06,0,1.56,0.69,1.56,1.77v3.61h-1.26v-3.43
				c0-0.71-0.22-0.93-0.65-0.93c-0.55,0-0.96,0.31-1.18,0.56v3.8H25.79z"/>
			<path class="st10" d="M33.21,8.14c1.43,0,2.29,1.07,2.29,2.74c0,1.67-0.86,2.74-2.29,2.74c-1.43,0-2.29-1.07-2.29-2.74
				C30.92,9.21,31.78,8.14,33.21,8.14z M33.21,9.16c-0.7,0-1.03,0.55-1.03,1.72c0,1.18,0.33,1.72,1.03,1.72s1.03-0.55,1.03-1.72
				C34.25,9.71,33.91,9.16,33.21,9.16z"/>
			<path class="st10" d="M38.29,8.14c1.43,0,2.29,1.07,2.29,2.74c0,1.67-0.86,2.74-2.29,2.74c-1.43,0-2.29-1.07-2.29-2.74
				C35.99,9.21,36.86,8.14,38.29,8.14z M38.29,9.16c-0.7,0-1.03,0.55-1.03,1.72c0,1.18,0.33,1.72,1.03,1.72
				c0.7,0,1.03-0.55,1.03-1.72C39.32,9.71,38.99,9.16,38.29,9.16z"/>
			<path class="st10" d="M41.45,13.52V6.2h1.26v7.32H41.45z"/>
			<path class="st10" d="M49.12,8.14c1.43,0,2.29,1.07,2.29,2.74c0,1.67-0.86,2.74-2.29,2.74s-2.29-1.07-2.29-2.74
				C46.83,9.21,47.69,8.14,49.12,8.14z M49.12,9.16c-0.7,0-1.03,0.55-1.03,1.72c0,1.18,0.33,1.72,1.03,1.72s1.03-0.55,1.03-1.72
				C50.16,9.71,49.82,9.16,49.12,9.16z"/>
			<path class="st10" d="M53.68,9.26v4.26h-1.26V9.26h-0.73V8.24h0.72V7.6c0-1.14,0.46-1.5,1.49-1.5h0.83v1.01h-0.34
				c-0.53,0-0.71,0.16-0.71,0.57v0.57h1.07v1.01H53.68z"/>
		</g>
	</g>
</g>
<g id="SOL" class="st3">
	<g class="st4">
		<g>
			<path class="st11" d="M14.75,33.2V19.49h2.62V31h5.97v2.2H14.75z"/>
			<path class="st11" d="M30.12,33.2l-0.15-0.85c-0.95,0.65-1.84,1.04-3.08,1.04c-1.79,0-2.68-1.27-2.68-2.62
				c0-2.24,1.82-3.42,5.66-3.88v-0.84c0-0.76-0.61-1.18-1.44-1.18c-1.1,0-1.71,0.59-2.17,1.22l-1.52-1.16
				c0.61-1.04,2.24-1.84,3.69-1.8c2.66,0.06,3.8,1.03,3.8,3.99v4.65c0,0.49,0.04,0.99,0.19,1.42H30.12z M29.88,28.47
				c-1.58,0.3-3.31,0.63-3.31,2.01c0,0.74,0.47,1.16,1.14,1.16c0.74,0,1.67-0.63,2.17-1.04V28.47z"/>
			<path class="st11" d="M33.06,23.33h2.24l1.35,6.16h0.04l1.43-6.16h2.18l1.37,6.16h0.04l1.41-6.16h2.24L42.8,33.2h-2.13
				l-1.46-6.16h-0.04l-1.44,6.16H35.6L33.06,23.33z"/>
		</g>
		<g>
			<path class="st11" d="M18.51,8.18c-0.21-0.56-0.65-0.95-1.3-0.95c-0.61,0-1.04,0.24-1.04,0.81c0,1.25,3.75,0.99,3.75,3.35
				c0,1.49-0.94,2.24-2.55,2.24c-1.19,0-2.31-0.67-2.72-1.73l1.15-0.5c0.33,0.69,0.77,1.14,1.58,1.14c0.7,0,1.23-0.26,1.23-0.97
				c0-1.43-3.75-1.15-3.75-3.39c0-1.3,1.09-2.04,2.35-2.04c1.17,0,2.14,0.59,2.57,1.64L18.51,8.18z"/>
			<path class="st11" d="M23.89,9.99c-0.2-0.44-0.42-0.8-1.03-0.8c-0.7,0-1.03,0.55-1.03,1.72c0,1.17,0.33,1.72,1.07,1.72
				c0.55,0,0.86-0.37,1.11-0.84l0.95,0.53c-0.5,0.94-1.14,1.32-2.1,1.31c-1.42,0-2.28-1.06-2.28-2.72c0-1.67,0.86-2.72,2.28-2.72
				c0.99,0,1.78,0.52,2.07,1.4L23.89,9.99z"/>
			<path class="st11" d="M25.73,13.53V6.25h1.25v2.6c0.38-0.32,0.9-0.67,1.51-0.67c1.05,0,1.55,0.69,1.55,1.76v3.59H28.8v-3.41
				c0-0.71-0.22-0.93-0.65-0.93c-0.54,0-0.96,0.31-1.17,0.56v3.78H25.73z"/>
			<path class="st11" d="M33.11,8.18c1.42,0,2.28,1.06,2.28,2.72c0,1.66-0.86,2.72-2.28,2.72c-1.42,0-2.28-1.06-2.28-2.72
				C30.83,9.24,31.69,8.18,33.11,8.18z M33.11,9.19c-0.7,0-1.03,0.55-1.03,1.72c0,1.17,0.33,1.72,1.03,1.72
				c0.7,0,1.03-0.55,1.03-1.72C34.14,9.74,33.81,9.19,33.11,9.19z"/>
			<path class="st11" d="M38.15,8.18c1.42,0,2.28,1.06,2.28,2.72c0,1.66-0.86,2.72-2.28,2.72s-2.28-1.06-2.28-2.72
				C35.87,9.24,36.73,8.18,38.15,8.18z M38.15,9.19c-0.7,0-1.03,0.55-1.03,1.72c0,1.17,0.33,1.72,1.03,1.72s1.03-0.55,1.03-1.72
				C39.18,9.74,38.85,9.19,38.15,9.19z"/>
			<path class="st11" d="M41.31,13.53V6.25h1.25v7.28H41.31z"/>
			<path class="st11" d="M48.93,8.18c1.42,0,2.28,1.06,2.28,2.72c0,1.66-0.86,2.72-2.28,2.72s-2.28-1.06-2.28-2.72
				C46.65,9.24,47.51,8.18,48.93,8.18z M48.93,9.19c-0.7,0-1.03,0.55-1.03,1.72c0,1.17,0.33,1.72,1.03,1.72s1.03-0.55,1.03-1.72
				C49.96,9.74,49.63,9.19,48.93,9.19z"/>
			<path class="st11" d="M53.47,9.29v4.24h-1.25V9.29h-0.73V8.29h0.72V7.64c0-1.13,0.45-1.49,1.48-1.49h0.83v1.01h-0.34
				c-0.52,0-0.71,0.16-0.71,0.56v0.56h1.06v1.01H53.47z"/>
		</g>
	</g>
	<rect id="Separator_5_" y="6.11" class="st12" width="1" height="27.28"/>
</g>
<g id="SOSSC" class="st3">
	<g class="st4">
		<g>
			<path class="st13" d="M21.92,23.08c-0.4-1.06-1.22-1.79-2.45-1.79c-1.14,0-1.96,0.46-1.96,1.52c0,2.36,7.07,1.86,7.07,6.31
				c0,2.81-1.77,4.22-4.81,4.22c-2.24,0-4.35-1.25-5.13-3.25l2.17-0.95c0.63,1.29,1.44,2.15,2.98,2.15c1.31,0,2.32-0.49,2.32-1.82
				c0-2.7-7.07-2.17-7.07-6.38c0-2.45,2.05-3.84,4.43-3.84c2.2,0,4.03,1.1,4.84,3.1L21.92,23.08z"/>
			<path class="st13" d="M30.04,23.08c2.68,0,4.29,1.99,4.29,5.13c0,3.13-1.61,5.13-4.29,5.13s-4.29-1.99-4.29-5.13
				C25.75,25.07,27.36,23.08,30.04,23.08z M30.04,24.98c-1.31,0-1.94,1.03-1.94,3.23c0,2.2,0.63,3.23,1.94,3.23s1.94-1.03,1.94-3.23
				C31.98,26,31.35,24.98,30.04,24.98z"/>
			<path class="st13" d="M41.42,26.48c-0.38-0.84-0.8-1.5-1.94-1.5c-1.31,0-1.94,1.03-1.94,3.23c0,2.2,0.63,3.23,2.01,3.23
				c1.03,0,1.61-0.7,2.09-1.58l1.79,1.01c-0.95,1.77-2.15,2.49-3.95,2.47c-2.68,0-4.29-1.99-4.29-5.13c0-3.13,1.61-5.13,4.29-5.13
				c1.86,0,3.34,0.99,3.89,2.64L41.42,26.48z"/>
			<path class="st13" d="M44.98,21.44v-2.2h2.36v2.2H44.98z M47.33,33.14h-2.36v-9.88h2.36V33.14z"/>
			<path class="st13" d="M54.62,33.14l-0.15-0.86c-0.95,0.65-1.84,1.05-3.08,1.05c-1.79,0-2.68-1.27-2.68-2.62
				c0-2.24,1.82-3.42,5.66-3.88V26c0-0.76-0.61-1.18-1.44-1.18c-1.1,0-1.71,0.59-2.17,1.22l-1.52-1.16c0.61-1.05,2.24-1.84,3.69-1.8
				c2.66,0.06,3.8,1.03,3.8,3.99v4.65c0,0.49,0.04,0.99,0.19,1.43H54.62z M54.37,28.41c-1.58,0.3-3.3,0.63-3.3,2.01
				c0,0.74,0.47,1.16,1.14,1.16c0.74,0,1.67-0.63,2.17-1.05V28.41z"/>
			<path class="st13" d="M58.81,33.14V19.43h2.36v13.71H58.81z"/>
			<path class="st13" d="M76.38,23.08c-0.4-1.06-1.22-1.79-2.45-1.79c-1.14,0-1.96,0.46-1.96,1.52c0,2.36,7.07,1.86,7.07,6.31
				c0,2.81-1.77,4.22-4.81,4.22c-2.24,0-4.35-1.25-5.13-3.25l2.17-0.95c0.63,1.29,1.44,2.15,2.98,2.15c1.31,0,2.32-0.49,2.32-1.82
				c0-2.7-7.07-2.17-7.07-6.38c0-2.45,2.05-3.84,4.43-3.84c2.2,0,4.03,1.1,4.84,3.1L76.38,23.08z"/>
			<path class="st13" d="M86.44,26.48c-0.38-0.84-0.8-1.5-1.94-1.5c-1.31,0-1.94,1.03-1.94,3.23c0,2.2,0.63,3.23,2.01,3.23
				c1.03,0,1.61-0.7,2.09-1.58l1.79,1.01c-0.95,1.77-2.15,2.49-3.95,2.47c-2.68,0-4.29-1.99-4.29-5.13c0-3.13,1.61-5.13,4.29-5.13
				c1.86,0,3.34,0.99,3.89,2.64L86.44,26.48z"/>
			<path class="st13" d="M90,21.44v-2.2h2.36v2.2H90z M92.35,33.14H90v-9.88h2.36V33.14z"/>
			<path class="st13" d="M96.27,28.59c0.04,2.05,0.95,2.85,2.05,2.85s1.61-0.49,2.2-1.18l1.71,1.06c-0.91,1.41-2.24,2.01-4.14,2.01
				c-2.56,0-4.18-1.99-4.18-5.13c0-3.13,1.61-5.13,4.29-5.13c2.58-0.02,4.03,2.16,4.03,4.54v0.97H96.27z M100.07,26.99
				c-0.04-1.37-0.76-2.16-1.9-2.16c-1.14,0-1.86,0.8-1.9,2.16H100.07z"/>
			<path class="st13" d="M103.8,33.14v-9.88h2.17v1.06c0.87-0.61,1.88-1.25,3.04-1.25c1.98,0,2.92,1.29,2.92,3.3v6.76h-2.35v-6.42
				c0-1.33-0.42-1.75-1.22-1.75c-1.03,0-1.8,0.59-2.2,1.04v7.12H103.8z"/>
			<path class="st13" d="M119.57,26.48c-0.38-0.84-0.8-1.5-1.94-1.5c-1.31,0-1.94,1.03-1.94,3.23c0,2.2,0.63,3.23,2.01,3.23
				c1.03,0,1.61-0.7,2.09-1.58l1.79,1.01c-0.95,1.77-2.15,2.49-3.95,2.47c-2.68,0-4.29-1.99-4.29-5.13c0-3.13,1.61-5.13,4.29-5.13
				c1.86,0,3.34,0.99,3.89,2.64L119.57,26.48z"/>
			<path class="st13" d="M124.78,28.59c0.04,2.05,0.95,2.85,2.05,2.85c1.1,0,1.61-0.49,2.2-1.18l1.71,1.06
				c-0.91,1.41-2.24,2.01-4.14,2.01c-2.56,0-4.18-1.99-4.18-5.13c0-3.13,1.62-5.13,4.29-5.13c2.58-0.02,4.03,2.16,4.03,4.54v0.97
				H124.78z M128.58,26.99c-0.04-1.37-0.76-2.16-1.9-2.16c-1.14,0-1.86,0.8-1.9,2.16H128.58z"/>
			<path class="st13" d="M137.31,25.87c-0.48-0.51-1.1-1.04-1.84-1.04c-0.91,0-1.33,0.38-1.33,0.97c0,1.69,4.94,0.97,4.94,4.58
				c0,2.05-1.56,2.96-3.63,2.96c-1.58,0-2.87-0.7-3.74-1.99l1.58-1.18c0.55,0.76,1.29,1.43,2.3,1.43c0.84,0,1.41-0.46,1.41-1.12
				c0-1.69-4.94-1.08-4.94-4.52c0-1.84,1.56-2.87,3.27-2.87c1.31,0,2.62,0.49,3.48,1.5L137.31,25.87z"/>
		</g>
		<g>
			<path class="st13" d="M18.51,8.13c-0.21-0.56-0.65-0.95-1.3-0.95c-0.61,0-1.04,0.24-1.04,0.81c0,1.25,3.75,0.99,3.75,3.35
				c0,1.49-0.94,2.24-2.55,2.24c-1.19,0-2.31-0.67-2.72-1.72l1.15-0.5c0.33,0.69,0.77,1.14,1.58,1.14c0.7,0,1.23-0.26,1.23-0.97
				c0-1.43-3.75-1.15-3.75-3.39c0-1.3,1.09-2.04,2.35-2.04c1.17,0,2.14,0.59,2.57,1.64L18.51,8.13z"/>
			<path class="st13" d="M23.88,9.94c-0.2-0.44-0.42-0.8-1.03-0.8c-0.7,0-1.03,0.54-1.03,1.72c0,1.17,0.33,1.71,1.07,1.71
				c0.54,0,0.86-0.37,1.11-0.84l0.95,0.53c-0.5,0.94-1.14,1.32-2.1,1.31c-1.42,0-2.28-1.06-2.28-2.72c0-1.66,0.86-2.72,2.28-2.72
				c0.99,0,1.78,0.52,2.07,1.4L23.88,9.94z"/>
			<path class="st13" d="M25.73,13.48V6.19h1.25v2.6c0.38-0.32,0.9-0.67,1.51-0.67c1.05,0,1.55,0.69,1.55,1.76v3.59H28.8v-3.41
				c0-0.71-0.22-0.93-0.65-0.93c-0.54,0-0.96,0.31-1.17,0.56v3.78H25.73z"/>
			<path class="st13" d="M33.11,8.13c1.42,0,2.28,1.06,2.28,2.72c0,1.66-0.86,2.72-2.28,2.72c-1.42,0-2.28-1.06-2.28-2.72
				C30.83,9.19,31.68,8.13,33.11,8.13z M33.11,9.14c-0.7,0-1.03,0.54-1.03,1.72c0,1.17,0.33,1.71,1.03,1.71
				c0.7,0,1.03-0.54,1.03-1.71C34.13,9.68,33.8,9.14,33.11,9.14z"/>
			<path class="st13" d="M38.15,8.13c1.42,0,2.28,1.06,2.28,2.72c0,1.66-0.86,2.72-2.28,2.72c-1.42,0-2.28-1.06-2.28-2.72
				C35.87,9.19,36.73,8.13,38.15,8.13z M38.15,9.14c-0.7,0-1.03,0.54-1.03,1.72c0,1.17,0.33,1.71,1.03,1.71
				c0.7,0,1.03-0.54,1.03-1.71C39.18,9.68,38.85,9.14,38.15,9.14z"/>
			<path class="st13" d="M41.3,13.48V6.19h1.25v7.28H41.3z"/>
			<path class="st13" d="M48.93,8.13c1.42,0,2.28,1.06,2.28,2.72c0,1.66-0.86,2.72-2.28,2.72c-1.42,0-2.28-1.06-2.28-2.72
				C46.65,9.19,47.5,8.13,48.93,8.13z M48.93,9.14c-0.7,0-1.03,0.54-1.03,1.72c0,1.17,0.33,1.71,1.03,1.71
				c0.7,0,1.03-0.54,1.03-1.71C49.95,9.68,49.62,9.14,48.93,9.14z"/>
			<path class="st13" d="M53.46,9.24v4.24h-1.25V9.24h-0.73V8.23h0.72V7.59c0-1.13,0.45-1.49,1.48-1.49h0.83V7.1h-0.34
				c-0.52,0-0.71,0.16-0.71,0.56v0.56h1.06v1.01H53.46z"/>
		</g>
	</g>
	<rect id="Separator_1_" y="6.11" class="st14" width="1" height="27.26"/>
</g>
</svg>
