<?xml version="1.0" encoding="utf-8"?>
<!-- Generator: Adobe Illustrator 23.0.1, SVG Export Plug-In . SVG Version: 6.00 Build 0)  -->
<svg version="1.1" xmlns="http://www.w3.org/2000/svg" xmlns:xlink="http://www.w3.org/1999/xlink" x="0px" y="0px"
	 viewBox="0 0 37 48" style="enable-background:new 0 0 37 48;" xml:space="preserve">
<style type="text/css">
	.st0{fill:#102B72;stroke:#102B72;stroke-width:0.3113;}
	.st1{fill:#102B72;}
	.st2{fill:#987C4D;}
	.st3{display:none;}
	.st4{display:inline;}
	.st5{fill:#00538B;}
	.st6{fill:#8E1537;}
	.st7{display:inline;fill:#8E1537;}
	.st8{fill:#006C85;}
	.st9{display:inline;fill:#006C85;}
	.st10{display:inline;fill:#D5A10F;}
	.st11{fill:#D5A10F;}
	.st12{fill:#3D1152;}
	.st13{fill:#006241;}
	.st14{display:inline;fill:#006241;}
</style>
<g id="SMU">
	<g>
		<g>
			<path class="st0" d="M0.33,47.56c-0.24-0.11-0.26-0.18-0.26-0.62c0-0.81,0.07-1.46,0.08-1.72c0.02-0.18,0.05-0.26,0.14-0.26
				c0.1,0,0.12,0.05,0.12,0.18c0,0.14,0,0.37,0.05,0.6c0.26,1.2,1.38,1.66,2.52,1.66c1.63,0,2.43-1.12,2.43-2.16
				c0-1.12-0.49-1.76-1.96-2.92l-0.77-0.6c-1.8-1.41-2.21-2.42-2.21-3.52c0-1.73,1.36-2.92,3.52-2.92c0.66,0,1.16,0.07,1.58,0.16
				c0.32,0.06,0.46,0.08,0.6,0.08c0.14,0,0.17,0.03,0.17,0.11c0,0.08-0.07,0.62-0.07,1.72c0,0.26-0.03,0.37-0.12,0.37
				c-0.1,0-0.12-0.08-0.14-0.21c-0.02-0.2-0.12-0.63-0.22-0.81c-0.1-0.18-0.56-0.86-2.13-0.86c-1.17,0-2.09,0.7-2.09,1.88
				c0,0.92,0.48,1.47,2.08,2.72l0.48,0.36c2.01,1.51,2.48,2.51,2.48,3.81c0,0.67-0.27,1.9-1.44,2.69C4.45,47.81,3.53,48,2.61,48
				C1.81,48,1.03,47.89,0.33,47.56z"/>
			<path class="st0" d="M22.7,45.86c0.07,0.58,0.19,1.49,0.92,1.72c0.49,0.15,0.94,0.15,1.11,0.15c0.09,0,0.14,0.02,0.14,0.08
				c0,0.1-0.15,0.15-0.36,0.15c-0.38,0-2.21-0.05-2.84-0.1c-0.39-0.03-0.48-0.08-0.48-0.16c0-0.07,0.03-0.1,0.12-0.11
				c0.08-0.01,0.1-0.29,0.07-0.58l-0.82-8.36H20.5l-4.17,8.43c-0.36,0.71-0.41,0.86-0.56,0.86c-0.12,0-0.2-0.16-0.53-0.75
				c-0.44-0.79-1.9-3.6-1.99-3.76c-0.15-0.29-2.06-4.18-2.25-4.62h-0.07l-0.68,7.52c-0.02,0.26-0.02,0.55-0.02,0.83
				c0,0.24,0.19,0.45,0.44,0.5c0.29,0.07,0.54,0.08,0.65,0.08c0.07,0,0.14,0.03,0.14,0.08c0,0.11-0.1,0.15-0.31,0.15
				c-0.63,0-1.44-0.05-1.58-0.05c-0.15,0-0.97,0.05-1.43,0.05c-0.17,0-0.29-0.03-0.29-0.15c0-0.05,0.08-0.08,0.17-0.08
				c0.13,0,0.25,0,0.51-0.05c0.56-0.1,0.61-0.73,0.68-1.34l1.22-10.57c0.03-0.18,0.08-0.29,0.19-0.29c0.1,0,0.17,0.06,0.26,0.24
				l5.21,10.19l5-10.18c0.07-0.15,0.14-0.26,0.26-0.26c0.12,0,0.17,0.13,0.2,0.44L22.7,45.86z"/>
			<path class="st0" d="M25.72,40.22c0-2.53,0-2.98-0.04-3.5c-0.03-0.55-0.17-0.81-0.73-0.92c-0.14-0.03-0.42-0.05-0.58-0.05
				c-0.07,0-0.14-0.03-0.14-0.1c0-0.09,0.09-0.13,0.27-0.13c0.77,0,1.8,0.05,1.96,0.05c0.15,0,1.17-0.05,1.68-0.05
				c0.19,0,0.27,0.04,0.27,0.13c0,0.07-0.07,0.1-0.13,0.1c-0.12,0-0.22,0.02-0.43,0.05c-0.46,0.07-0.6,0.36-0.63,0.92
				c-0.03,0.52-0.03,0.97-0.03,3.5v2.27c0,2.33,0.55,3.34,1.28,4c0.83,0.74,1.6,0.89,2.57,0.89c1.04,0,2.06-0.47,2.67-1.17
				c0.78-0.92,0.99-2.3,0.99-3.97v-2.03c0-2.53,0-2.98-0.03-3.5c-0.03-0.55-0.17-0.81-0.73-0.92c-0.14-0.03-0.43-0.05-0.58-0.05
				c-0.07,0-0.14-0.03-0.14-0.1c0-0.09,0.09-0.13,0.27-0.13c0.77,0,1.7,0.05,1.8,0.05c0.12,0,0.92-0.05,1.43-0.05
				c0.19,0,0.27,0.04,0.27,0.13c0,0.07-0.07,0.1-0.14,0.1c-0.12,0-0.22,0-0.43,0.05c-0.46,0.08-0.6,0.36-0.63,0.92
				c-0.03,0.52-0.03,0.97-0.03,3.5v1.73c0,1.75-0.2,3.69-1.56,4.84c-1.23,1.04-2.5,1.2-3.51,1.2c-0.58,0-2.3-0.06-3.5-1.15
				c-0.83-0.76-1.48-1.9-1.48-4.26V40.22z"/>
		</g>
		<g>
			<polygon class="st1" points="19.73,18.75 16.31,15.63 16.31,15.62 16.31,15.62 16.31,15.62 16.31,15.63 12.9,18.75 16.31,17.64 
				16.32,17.64 			"/>
			<g>
				<polygon class="st1" points="16.31,15.62 17.44,12.53 19.95,12.23 				"/>
				<polygon class="st1" points="22.49,13.23 19.95,12.23 19.88,8.08 				"/>
				<polygon class="st1" points="20.5,6.21 23.03,6.21 19.88,8.08 				"/>
			</g>
			<polygon class="st2" points="16.31,15.62 15.19,12.53 12.68,12.23 			"/>
			<polygon class="st2" points="10.14,13.23 12.68,12.23 12.75,8.08 			"/>
			<polygon class="st2" points="12.13,6.21 9.59,6.21 12.75,8.08 			"/>
			<path class="st2" d="M25.01,0c-2.26,2.13-3.82,1.19-4.62,1.03c-0.42-0.17-0.95-0.27-1.52-0.27c-1.38,0-2.5,0.59-2.5,1.31
				c0,0.26,0.15,0.51,0.4,0.71c0.26-0.24,0.66-0.43,1.14-0.55l0,0c0.49-0.09,1.31-0.15,2.3,0.1c0.09,0.03,0.18,0.05,0.28,0.08l0,0
				c0.12,0.04,0.23,0.06,0.32,0.08c0.04,0.01,0.08,0.02,0.12,0.03c2.56,0.57,4.1-0.72,4.1-0.72L25.01,0z"/>
			<path class="st1" d="M16.09,22.39c0,0-1.43,0-2.13-0.35c-1.26-0.61-1.51-2.48-1.67-4.04c-0.02-0.17-1.2-0.54-1.75-1.05
				c-0.91-0.84-0.77-3.43-0.77-3.6c0-0.17-1.48-0.89-1.48-2.5c0-0.68,0.01-4.48,0.01-4.48C7.34,5.18,6.73,5.16,5.96,5.4
				C5.01,5.71,4.73,6.41,3.74,6.55c0,0.22-0.01,11.56-0.01,11.56c0,3.49,0.64,5.9,4.22,8.59c3.32,2.49,5.89,2.43,8.13,6.51
				C16.12,33.27,16.1,22.39,16.09,22.39z"/>
		</g>
	</g>
</g>
<g id="LKCSB" class="st3">
</g>
<g id="SOA" class="st3">
</g>
<g id="SOE" class="st3">
</g>
<g id="SOIS" class="st3">
</g>
<g id="SOL">
</g>
<g id="SOSSC" class="st3">
</g>
</svg>
