<?xml version="1.0" encoding="iso-8859-1"?>
<!-- Generator: Adobe Illustrator 23.0.6, SVG Export Plug-In . SVG Version: 6.00 Build 0)  -->
<svg version="1.1" xmlns="http://www.w3.org/2000/svg" xmlns:xlink="http://www.w3.org/1999/xlink" x="0px" y="0px"
	 viewBox="0 0 38 48" style="enable-background:new 0 0 38 48;" xml:space="preserve">
<g id="SMU_white">
	<g>
		<g>
			<path style="fill:#FFFFFF;" d="M1.332,47.564c-0.237-0.113-0.255-0.177-0.255-0.615c0-0.809,0.068-1.459,0.084-1.718
				c0.019-0.177,0.053-0.259,0.137-0.259c0.103,0,0.119,0.05,0.119,0.18c0,0.144,0,0.371,0.05,0.596
				c0.256,1.201,1.378,1.656,2.519,1.656c1.634,0,2.433-1.118,2.433-2.158c0-1.117-0.493-1.764-1.956-2.915l-0.766-0.598
				c-1.805-1.411-2.212-2.416-2.212-3.517c0-1.735,1.36-2.918,3.522-2.918c0.663,0,1.156,0.066,1.582,0.164
				c0.324,0.062,0.459,0.08,0.596,0.08c0.136,0,0.169,0.033,0.169,0.112c0,0.083-0.067,0.619-0.067,1.718
				c0,0.259-0.034,0.374-0.12,0.374c-0.102,0-0.118-0.079-0.135-0.209c-0.016-0.196-0.119-0.632-0.222-0.812
				c-0.102-0.176-0.56-0.858-2.127-0.858c-1.172,0-2.091,0.697-2.091,1.879c0,0.925,0.476,1.473,2.075,2.723l0.477,0.358
				c2.007,1.505,2.482,2.511,2.482,3.805c0,0.665-0.272,1.897-1.445,2.69C5.45,47.807,4.531,48,3.613,48
				C2.812,48,2.029,47.889,1.332,47.564z"/>
			<path style="fill:#FFFFFF;" d="M23.697,45.857c0.069,0.583,0.187,1.492,0.919,1.718c0.494,0.148,0.935,0.148,1.106,0.148
				c0.086,0,0.135,0.016,0.135,0.079c0,0.097-0.153,0.146-0.357,0.146c-0.376,0-2.213-0.049-2.841-0.098
				c-0.392-0.031-0.476-0.079-0.476-0.16c0-0.065,0.033-0.098,0.119-0.115c0.085-0.015,0.1-0.29,0.066-0.581l-0.816-8.363h-0.05
				l-4.17,8.427c-0.358,0.713-0.408,0.859-0.562,0.859c-0.118,0-0.204-0.163-0.527-0.747c-0.442-0.794-1.905-3.596-1.99-3.757
				c-0.155-0.293-2.058-4.184-2.247-4.62h-0.067l-0.68,7.518c-0.019,0.261-0.019,0.553-0.019,0.828c0,0.243,0.187,0.452,0.444,0.502
				c0.289,0.067,0.544,0.082,0.646,0.082c0.068,0,0.137,0.031,0.137,0.079c0,0.115-0.103,0.146-0.308,0.146
				c-0.629,0-1.444-0.049-1.581-0.049c-0.154,0-0.969,0.049-1.429,0.049c-0.169,0-0.29-0.031-0.29-0.146
				c0-0.048,0.085-0.079,0.171-0.079c0.135,0,0.254,0,0.51-0.05c0.562-0.098,0.613-0.73,0.681-1.344l1.224-10.568
				c0.034-0.177,0.084-0.29,0.186-0.29c0.102,0,0.171,0.063,0.256,0.244l5.205,10.191l5.003-10.176
				c0.069-0.146,0.138-0.259,0.256-0.259c0.119,0,0.169,0.127,0.204,0.436L23.697,45.857z"/>
			<path style="fill:#FFFFFF;" d="M26.72,40.225c0-2.529,0-2.983-0.035-3.501c-0.033-0.549-0.171-0.808-0.73-0.924
				c-0.137-0.031-0.425-0.049-0.578-0.049c-0.069,0-0.137-0.031-0.137-0.098c0-0.094,0.085-0.129,0.271-0.129
				c0.767,0,1.804,0.051,1.958,0.051c0.153,0,1.174-0.051,1.684-0.051c0.187,0,0.272,0.036,0.272,0.129
				c0,0.067-0.066,0.098-0.134,0.098c-0.119,0-0.222,0.018-0.426,0.049c-0.459,0.066-0.595,0.356-0.63,0.924
				c-0.034,0.518-0.034,0.972-0.034,3.501v2.268c0,2.334,0.545,3.338,1.276,4.004c0.833,0.744,1.601,0.891,2.57,0.891
				c1.038,0,2.059-0.471,2.671-1.168c0.782-0.924,0.988-2.302,0.988-3.969v-2.025c0-2.529,0-2.983-0.034-3.501
				c-0.034-0.549-0.171-0.808-0.732-0.924c-0.136-0.031-0.426-0.049-0.576-0.049c-0.069,0-0.138-0.031-0.138-0.098
				c0-0.094,0.085-0.129,0.273-0.129c0.765,0,1.7,0.051,1.802,0.051c0.119,0,0.919-0.051,1.428-0.051
				c0.188,0,0.274,0.036,0.274,0.129c0,0.067-0.069,0.098-0.136,0.098c-0.119,0-0.222,0-0.425,0.049
				c-0.458,0.081-0.596,0.356-0.629,0.924c-0.035,0.518-0.035,0.972-0.035,3.501v1.735c0,1.75-0.204,3.695-1.564,4.843
				C33.985,47.839,32.709,48,31.704,48c-0.578,0-2.296-0.063-3.505-1.149c-0.833-0.762-1.479-1.896-1.479-4.26V40.225z"/>
		</g>
		<g>
			<polygon style="fill:#FFFFFF;" points="20.728,18.746 17.315,15.626 17.315,15.622 17.312,15.622 17.31,15.622 17.31,15.626 
				13.897,18.746 17.31,17.644 17.317,17.644 			"/>
			<g>
				<polygon style="fill:#FFFFFF;" points="17.314,15.619 18.438,12.53 20.95,12.227 				"/>
				<polygon style="fill:#FFFFFF;" points="23.489,13.234 20.95,12.227 20.877,8.076 				"/>
				<polygon style="fill:#FFFFFF;" points="21.499,6.207 24.034,6.207 20.879,8.079 				"/>
			</g>
			<polygon style="fill:#FFFFFF;" points="17.311,15.619 16.187,12.53 13.675,12.227 			"/>
			<polygon style="fill:#FFFFFF;" points="11.137,13.234 13.675,12.227 13.746,8.076 			"/>
			<polygon style="fill:#FFFFFF;" points="13.126,6.207 10.592,6.207 13.746,8.079 			"/>
			<path style="fill:#FFFFFF;" d="M26.005,0c-2.263,2.131-3.817,1.195-4.616,1.025c-0.421-0.17-0.948-0.27-1.52-0.27
				c-1.382,0-2.505,0.587-2.505,1.313c0,0.262,0.149,0.508,0.401,0.714c0.258-0.24,0.659-0.434,1.137-0.547l0,0
				c0.489-0.085,1.315-0.153,2.301,0.095c0.087,0.027,0.182,0.054,0.282,0.078l0,0c0.119,0.039,0.226,0.064,0.32,0.079
				c0.041,0.009,0.078,0.018,0.123,0.026c2.56,0.567,4.098-0.719,4.098-0.719L26.005,0z"/>
			<path style="fill:#FFFFFF;" d="M17.085,22.393c0,0-1.428-0.003-2.126-0.346c-1.264-0.611-1.506-2.485-1.668-4.038
				c-0.017-0.169-1.196-0.543-1.755-1.053c-0.911-0.835-0.771-3.434-0.771-3.601c0-0.168-1.476-0.891-1.476-2.501
				c0-0.68,0.013-4.484,0.013-4.484c-0.961-1.191-1.573-1.208-2.34-0.97C6.009,5.708,5.734,6.412,4.741,6.554
				c0,0.218-0.011,11.556-0.011,11.556c0,3.494,0.642,5.904,4.22,8.59c3.317,2.491,5.89,2.43,8.132,6.507
				C17.12,33.272,17.097,22.393,17.085,22.393z"/>
		</g>
	</g>
</g>
<g id="SMU" style="display:none;">
	<g style="display:inline;">
		<g>
			<path style="fill:#1C296A;stroke:#1C296A;stroke-width:0.3113;" d="M1.332,47.564c-0.237-0.113-0.255-0.177-0.255-0.615
				c0-0.809,0.068-1.459,0.084-1.718c0.019-0.177,0.053-0.259,0.137-0.259c0.103,0,0.119,0.05,0.119,0.18
				c0,0.144,0,0.371,0.05,0.596c0.256,1.201,1.378,1.656,2.519,1.656c1.634,0,2.433-1.118,2.433-2.158
				c0-1.117-0.493-1.764-1.956-2.915l-0.766-0.598c-1.805-1.411-2.212-2.416-2.212-3.517c0-1.735,1.36-2.918,3.522-2.918
				c0.663,0,1.156,0.066,1.582,0.164c0.324,0.062,0.459,0.08,0.596,0.08c0.136,0,0.169,0.033,0.169,0.112
				c0,0.083-0.067,0.619-0.067,1.718c0,0.259-0.034,0.374-0.12,0.374c-0.102,0-0.118-0.079-0.135-0.209
				c-0.016-0.196-0.119-0.632-0.222-0.812c-0.102-0.176-0.56-0.858-2.127-0.858c-1.172,0-2.091,0.697-2.091,1.879
				c0,0.925,0.476,1.473,2.075,2.723l0.477,0.358c2.007,1.505,2.482,2.511,2.482,3.805c0,0.665-0.272,1.897-1.445,2.69
				C5.45,47.807,4.531,48,3.613,48C2.812,48,2.029,47.889,1.332,47.564z"/>
			<path style="fill:#1C296A;stroke:#1C296A;stroke-width:0.3113;" d="M23.697,45.857c0.069,0.583,0.187,1.492,0.919,1.718
				c0.494,0.148,0.935,0.148,1.106,0.148c0.086,0,0.135,0.016,0.135,0.079c0,0.097-0.153,0.146-0.357,0.146
				c-0.376,0-2.213-0.049-2.841-0.098c-0.392-0.031-0.476-0.079-0.476-0.16c0-0.065,0.033-0.098,0.119-0.115
				c0.085-0.015,0.1-0.29,0.066-0.581l-0.816-8.363h-0.05l-4.17,8.427c-0.358,0.713-0.408,0.859-0.562,0.859
				c-0.118,0-0.204-0.163-0.527-0.747c-0.442-0.794-1.905-3.596-1.99-3.757c-0.155-0.293-2.058-4.184-2.247-4.62h-0.067l-0.68,7.518
				c-0.019,0.261-0.019,0.553-0.019,0.828c0,0.243,0.187,0.452,0.444,0.502c0.289,0.067,0.544,0.082,0.646,0.082
				c0.068,0,0.137,0.031,0.137,0.079c0,0.115-0.103,0.146-0.308,0.146c-0.629,0-1.444-0.049-1.581-0.049
				c-0.154,0-0.969,0.049-1.429,0.049c-0.169,0-0.29-0.031-0.29-0.146c0-0.048,0.085-0.079,0.171-0.079c0.135,0,0.254,0,0.51-0.05
				c0.562-0.098,0.613-0.73,0.681-1.344l1.224-10.568c0.034-0.177,0.084-0.29,0.186-0.29c0.102,0,0.171,0.063,0.256,0.244
				l5.205,10.191l5.003-10.176c0.069-0.146,0.138-0.259,0.256-0.259c0.119,0,0.169,0.127,0.204,0.436L23.697,45.857z"/>
			<path style="fill:#1C296A;stroke:#1C296A;stroke-width:0.3113;" d="M26.72,40.225c0-2.529,0-2.983-0.035-3.501
				c-0.033-0.549-0.171-0.808-0.73-0.924c-0.137-0.031-0.425-0.049-0.578-0.049c-0.069,0-0.137-0.031-0.137-0.098
				c0-0.094,0.085-0.129,0.271-0.129c0.767,0,1.804,0.051,1.958,0.051c0.153,0,1.174-0.051,1.684-0.051
				c0.187,0,0.272,0.036,0.272,0.129c0,0.067-0.066,0.098-0.134,0.098c-0.119,0-0.222,0.018-0.426,0.049
				c-0.459,0.066-0.595,0.356-0.63,0.924c-0.034,0.518-0.034,0.972-0.034,3.501v2.268c0,2.334,0.545,3.338,1.276,4.004
				c0.833,0.744,1.601,0.891,2.57,0.891c1.038,0,2.059-0.471,2.671-1.168c0.782-0.924,0.988-2.302,0.988-3.969v-2.025
				c0-2.529,0-2.983-0.034-3.501c-0.034-0.549-0.171-0.808-0.732-0.924c-0.136-0.031-0.426-0.049-0.576-0.049
				c-0.069,0-0.138-0.031-0.138-0.098c0-0.094,0.085-0.129,0.273-0.129c0.765,0,1.7,0.051,1.802,0.051
				c0.119,0,0.919-0.051,1.428-0.051c0.188,0,0.274,0.036,0.274,0.129c0,0.067-0.069,0.098-0.136,0.098
				c-0.119,0-0.222,0-0.425,0.049c-0.458,0.081-0.596,0.356-0.629,0.924c-0.035,0.518-0.035,0.972-0.035,3.501v1.735
				c0,1.75-0.204,3.695-1.564,4.843C33.985,47.839,32.709,48,31.704,48c-0.578,0-2.296-0.063-3.505-1.149
				c-0.833-0.762-1.479-1.896-1.479-4.26V40.225z"/>
		</g>
		<g>
			<polygon style="fill:#1C296A;" points="20.728,18.746 17.315,15.626 17.315,15.622 17.312,15.622 17.31,15.622 17.31,15.626 
				13.897,18.746 17.31,17.644 17.317,17.644 			"/>
			<g>
				<polygon style="fill:#1C296A;" points="17.314,15.619 18.438,12.53 20.95,12.227 				"/>
				<polygon style="fill:#1C296A;" points="23.489,13.234 20.95,12.227 20.877,8.076 				"/>
				<polygon style="fill:#1C296A;" points="21.499,6.207 24.034,6.207 20.879,8.079 				"/>
			</g>
			<polygon style="fill:#9F7E45;" points="17.311,15.619 16.187,12.53 13.675,12.227 			"/>
			<polygon style="fill:#9F7E45;" points="11.137,13.234 13.675,12.227 13.746,8.076 			"/>
			<polygon style="fill:#9F7E45;" points="13.126,6.207 10.592,6.207 13.746,8.079 			"/>
			<path style="fill:#9F7E45;" d="M26.005,0c-2.263,2.131-3.817,1.195-4.616,1.025c-0.421-0.17-0.948-0.27-1.52-0.27
				c-1.382,0-2.505,0.587-2.505,1.313c0,0.262,0.149,0.508,0.401,0.714c0.258-0.24,0.659-0.434,1.137-0.547l0,0
				c0.489-0.085,1.315-0.153,2.301,0.095c0.087,0.027,0.182,0.054,0.282,0.078l0,0c0.119,0.039,0.226,0.064,0.32,0.079
				c0.041,0.009,0.078,0.018,0.123,0.026c2.56,0.567,4.098-0.719,4.098-0.719L26.005,0z"/>
			<path style="fill:#1C296A;" d="M17.085,22.393c0,0-1.428-0.003-2.126-0.346c-1.264-0.611-1.506-2.485-1.668-4.038
				c-0.017-0.169-1.196-0.543-1.755-1.053c-0.911-0.835-0.771-3.434-0.771-3.601c0-0.168-1.476-0.891-1.476-2.501
				c0-0.68,0.013-4.484,0.013-4.484c-0.961-1.191-1.573-1.208-2.34-0.97C6.009,5.708,5.734,6.412,4.741,6.554
				c0,0.218-0.011,11.556-0.011,11.556c0,3.494,0.642,5.904,4.22,8.59c3.317,2.491,5.89,2.43,8.132,6.507
				C17.12,33.272,17.097,22.393,17.085,22.393z"/>
		</g>
	</g>
</g>
<g id="Schools" style="display:none;">
	<g id="SOA">
	</g>
	<g id="SOE">
	</g>
	<g id="SOL">
	</g>
	<g id="SOSSC">
	</g>
	<g id="SIS">
	</g>
	<g id="LKCSB">
	</g>
</g>
<g id="Library" style="display:none;">
</g>
<g id="Labs" style="display:none;">
	<g id="iCity">
	</g>
	<g id="Pinnacle">
	</g>
	<g id="LiveLabs">
	</g>
	<g id="UNICEN">
	</g>
	<g id="DHL-SMU">
	</g>
</g>
<g id="Institutes" style="display:none;">
	<g id="AEI">
	</g>
	<g id="SKBI">
	</g>
	<g id="ITI">
	</g>
	<g id="ISE">
	</g>
	<g id="IIE">
	</g>
	<g id="ISL">
	</g>
	<g id="BFI">
	</g>
	<g id="BSI">
	</g>
</g>
<g id="Centres" style="display:none;">
	<g id="SMUTA">
	</g>
	<g id="SMC">
	</g>
	<g id="SIDRA" style="display:inline;">
	</g>
	<g id="RCE">
	</g>
	<g id="LARC">
	</g>
	<g id="LCSI">
	</g>
	<g id="CREA">
	</g>
	<g id="CME">
	</g>
	<g id="CCBCLA">
	</g>
	<g id="CAIDG">
	</g>
</g>
<g id="Admin_Offces" style="display:none;">
	<g id="UGAFA">
	</g>
	<g id="OSL">
	</g>
	<g id="SMU-X">
	</g>
	<g id="EXD">
	</g>
	<g id="SMUA">
	</g>
	<g id="ORTT">
	</g>
	<g id="REG">
	</g>
	<g id="OPGRP">
	</g>
	<g id="OPGPP">
	</g>
	<g id="OProv">
	</g>
	<g id="OPres">
	</g>
	<g id="OLGA">
	</g>
	<g id="INV">
	</g>
	<g id="IO">
	</g>
	<g id="IA">
	</g>
	<g id="IITS">
	</g>
	<g id="IRB">
	</g>
	<g id="HRFA">
	</g>
	<g id="FIN">
	</g>
	<g id="ODOS">
	</g>
	<g id="DKHMCC">
	</g>
	<g id="OCCM">
	</g>
	<g id="OCC">
	</g>
	<g id="OCIS">
	</g>
	<g id="OBI">
	</g>
	<g id="OBD">
	</g>
	<g id="AR">
	</g>
	<g id="ADV">
	</g>
</g>
<g id="Acad_Support" style="display:none;">
	<g id="WKWC">
	</g>
	<g id="Pro_Bono">
	</g>
	<g id="Student_Wellness">
	</g>
	<g id="CTE">
	</g>
	<g id="CSR">
	</g>
	<g id="CSD">
	</g>
	<g id="CMP">
	</g>
	<g id="CEC">
	</g>
</g>
<g id="Blue_Separator__x28_Excl_for_Schools_x29_">
</g>
</svg>
