<?xml version="1.0" encoding="iso-8859-1"?>
<!-- Generator: Adobe Illustrator 23.0.6, SVG Export Plug-In . SVG Version: 6.00 Build 0)  -->
<svg version="1.1" xmlns="http://www.w3.org/2000/svg" xmlns:xlink="http://www.w3.org/1999/xlink" x="0px" y="0px"
	 viewBox="0 0 153 60" style="enable-background:new 0 0 153 60;" xml:space="preserve">
<g id="SMU_white">
	<g id="SMU_Logo_1_">
		<g>
			<g>
				<path style="fill:#FFFFFF;" d="M46.039,33.151c-0.428-0.205-0.46-0.321-0.46-1.114c0-1.467,0.121-2.64,0.153-3.11
					c0.031-0.324,0.093-0.469,0.247-0.469c0.185,0,0.213,0.09,0.213,0.326c0,0.261,0,0.673,0.095,1.082
					c0.463,2.171,2.494,2.995,4.56,2.995c2.954,0,4.401-2.026,4.401-3.904c0-2.024-0.892-3.198-3.541-5.279l-1.388-1.086
					c-3.264-2.55-4-4.369-4-6.362c0-3.14,2.462-5.28,6.375-5.28c1.2,0,2.093,0.116,2.863,0.291c0.584,0.119,0.833,0.148,1.08,0.148
					c0.245,0,0.306,0.058,0.306,0.203c0,0.149-0.125,1.117-0.125,3.112c0,0.469-0.062,0.674-0.213,0.674
					c-0.185,0-0.215-0.147-0.248-0.381c-0.03-0.351-0.4-1.468-0.4-1.468s-1.015-1.553-3.851-1.553c-2.123,0-3.785,1.26-3.785,3.402
					c0,1.672,0.861,2.67,3.756,4.925l0.861,0.651c3.637,2.725,4.499,4.544,4.499,6.89c0,1.203-0.494,3.432-2.62,4.869
					c-1.323,0.879-2.986,1.232-4.647,1.232C48.717,33.943,47.303,33.738,46.039,33.151z"/>
				<path style="fill:#FFFFFF;" d="M86.525,30.062c0.123,1.056,0.338,2.699,1.661,3.109c0.896,0.266,1.694,0.266,2.004,0.266
					c0.154,0,0.243,0.028,0.243,0.144c0,0.18-0.276,0.267-0.646,0.267c-0.676,0-4.005-0.087-5.144-0.179
					c-0.706-0.055-0.859-0.142-0.859-0.292c0-0.116,0.061-0.178,0.215-0.205c0.158-0.029,0.184-0.527,0.122-1.056l-1.481-15.134
					h-0.089l-7.545,15.25c-0.648,1.295-0.74,1.556-1.019,1.556c-0.213,0-0.369-0.293-0.954-1.35c-0.798-1.436-3.447-6.513-3.6-6.801
					c-0.278-0.529-3.73-7.57-4.068-8.362h-0.124l-1.23,13.61c-0.03,0.467-0.03,0.999-0.03,1.497c0,0.441,0.337,0.817,0.801,0.908
					c0.522,0.117,0.984,0.148,1.167,0.148c0.125,0,0.249,0.057,0.249,0.144c0,0.207-0.188,0.267-0.558,0.267
					c-1.139,0-2.617-0.087-2.865-0.087c-0.275,0-1.754,0.087-2.583,0.087c-0.308,0-0.527-0.06-0.527-0.267
					c0-0.087,0.158-0.144,0.312-0.144c0.245,0,0.46,0,0.92-0.089c1.019-0.177,1.112-1.319,1.234-2.435l2.218-19.125
					c0.062-0.322,0.152-0.527,0.338-0.527c0.185,0,0.31,0.116,0.464,0.439l9.421,18.45l9.054-18.421
					c0.122-0.264,0.247-0.469,0.464-0.469c0.216,0,0.308,0.232,0.369,0.791L86.525,30.062z"/>
				<path style="fill:#FFFFFF;" d="M91.995,19.865c0-4.577,0-5.399-0.063-6.337c-0.061-0.997-0.306-1.465-1.321-1.67
					c-0.249-0.061-0.772-0.088-1.049-0.088c-0.126,0-0.248-0.057-0.248-0.178c0-0.175,0.156-0.232,0.494-0.232
					c1.386,0,3.266,0.088,3.542,0.088c0.276,0,2.123-0.088,3.049-0.088c0.338,0,0.492,0.058,0.492,0.232
					c0,0.122-0.122,0.178-0.245,0.178c-0.217,0-0.403,0.027-0.772,0.088c-0.829,0.117-1.076,0.645-1.138,1.67
					c-0.061,0.938-0.061,1.761-0.061,6.337v4.105c0,4.225,0.985,6.043,2.308,7.246c1.511,1.348,2.897,1.614,4.651,1.614
					c1.88,0,3.729-0.851,4.834-2.113c1.418-1.672,1.787-4.167,1.787-7.185v-3.667c0-4.577,0-5.399-0.062-6.337
					c-0.063-0.997-0.308-1.465-1.325-1.67c-0.245-0.061-0.769-0.088-1.045-0.088c-0.125,0-0.247-0.057-0.247-0.178
					c0-0.175,0.154-0.232,0.492-0.232c1.388,0,3.078,0.088,3.264,0.088c0.216,0,1.667-0.088,2.587-0.088
					c0.338,0,0.494,0.058,0.494,0.232c0,0.122-0.124,0.178-0.245,0.178c-0.217,0-0.401,0-0.772,0.088
					c-0.831,0.145-1.076,0.645-1.139,1.67c-0.059,0.938-0.059,1.761-0.059,6.337v3.138c0,3.169-0.373,6.688-2.834,8.771
					c-2.219,1.877-4.528,2.169-6.349,2.169c-1.044,0-4.155-0.116-6.34-2.083c-1.511-1.375-2.68-3.428-2.68-7.711V19.865z"/>
			</g>
			<g>
				<polygon style="fill:#FFFFFF;" points="28.904,33.871 22.739,28.232 22.739,28.225 22.735,28.227 22.733,28.225 22.733,28.232 
					16.564,33.871 22.729,31.881 22.741,31.881 				"/>
				<g>
					<polygon style="fill:#FFFFFF;" points="22.739,28.217 24.771,22.638 29.305,22.091 					"/>
					<polygon style="fill:#FFFFFF;" points="33.893,23.912 29.307,22.091 29.177,14.59 					"/>
					<polygon style="fill:#FFFFFF;" points="30.299,11.214 34.882,11.21 29.181,14.596 					"/>
				</g>
				<polygon style="fill:#FFFFFF;" points="22.733,28.217 20.702,22.638 16.165,22.091 				"/>
				<polygon style="fill:#FFFFFF;" points="11.576,23.912 16.165,22.091 16.293,14.59 				"/>
				<polygon style="fill:#FFFFFF;" points="15.17,11.214 10.591,11.21 16.293,14.596 				"/>
				<path style="fill:#FFFFFF;" d="M38.445,0c-4.09,3.851-6.898,2.16-8.343,1.849c-0.76-0.305-1.714-0.488-2.749-0.488
					c-2.498,0-4.524,1.065-4.524,2.376c0,0.475,0.268,0.916,0.725,1.284c0.468-0.434,1.192-0.784,2.056-0.987l0,0
					c0.883-0.153,2.375-0.271,4.155,0.178c0.158,0.045,0.33,0.095,0.513,0.139l0,0c0.215,0.068,0.407,0.112,0.575,0.144
					c0.077,0.017,0.14,0.033,0.221,0.045c4.629,1.025,7.407-1.296,7.407-1.296L38.445,0z"/>
				<path style="fill:#FFFFFF;" d="M22.325,40.459c0,0-2.577-0.008-3.841-0.624c-2.287-1.102-2.724-4.494-3.011-7.294
					c-0.032-0.308-2.161-0.979-3.173-1.907c-1.647-1.506-1.395-6.203-1.395-6.503c0-0.304-2.666-1.612-2.666-4.519
					c0-1.228,0.023-8.102,0.023-8.102c-1.738-2.154-2.844-2.184-4.23-1.75c-1.722,0.551-2.218,1.824-4.013,2.079
					C0.02,12.234,0,32.721,0,32.721c0,6.312,1.159,10.673,7.626,15.525c5.997,4.497,10.642,4.386,14.692,11.754
					C22.388,60.116,22.344,40.459,22.325,40.459z"/>
			</g>
		</g>
		<g>
			<path style="fill:#FFFFFF;" d="M45.707,45.661c-0.114-0.049-0.136-0.085-0.136-0.239c0-0.385,0.027-0.805,0.036-0.916
				c0.008-0.106,0.03-0.181,0.087-0.181c0.063,0,0.071,0.061,0.071,0.117c0,0.091,0.03,0.238,0.063,0.358
				c0.156,0.518,0.576,0.707,1.017,0.707c0.64,0,0.954-0.428,0.954-0.799c0-0.343-0.107-0.671-0.697-1.119l-0.328-0.251
				c-0.781-0.602-1.052-1.092-1.052-1.659c0-0.77,0.655-1.322,1.643-1.322c0.462,0,0.762,0.069,0.946,0.119
				c0.065,0.014,0.101,0.034,0.101,0.085c0,0.09-0.028,0.293-0.028,0.839c0,0.154-0.021,0.21-0.08,0.21
				c-0.048,0-0.069-0.044-0.069-0.128c0-0.062-0.038-0.28-0.186-0.462c-0.106-0.133-0.314-0.343-0.775-0.343
				c-0.526,0-0.848,0.302-0.848,0.722c0,0.322,0.166,0.566,0.757,1.007l0.197,0.147c0.855,0.651,1.167,1.12,1.167,1.785
				c0,0.406-0.156,0.889-0.67,1.217c-0.355,0.223-0.752,0.288-1.129,0.288C46.334,45.843,46.013,45.794,45.707,45.661z"/>
			<path style="fill:#FFFFFF;" d="M50.275,42.484c0-1.063,0-1.26-0.014-1.483c-0.016-0.239-0.087-0.358-0.243-0.393
				c-0.079-0.021-0.172-0.028-0.257-0.028c-0.071,0-0.115-0.014-0.115-0.071c0-0.041,0.058-0.055,0.172-0.055
				c0.268,0,0.716,0.021,0.924,0.021c0.178,0,0.598-0.021,0.869-0.021c0.091,0,0.148,0.014,0.148,0.055
				c0,0.057-0.041,0.071-0.112,0.071c-0.071,0-0.128,0.007-0.213,0.021c-0.193,0.036-0.248,0.156-0.264,0.4
				c-0.014,0.223-0.014,0.419-0.014,1.483v1.231c0,0.68,0,1.233,0.03,1.533c0.021,0.188,0.069,0.315,0.284,0.343
				c0.099,0.014,0.255,0.029,0.362,0.029c0.079,0,0.115,0.02,0.115,0.055c0,0.051-0.058,0.071-0.137,0.071
				c-0.468,0-0.918-0.02-1.11-0.02c-0.164,0-0.612,0.02-0.895,0.02c-0.093,0-0.142-0.02-0.142-0.071
				c0-0.034,0.028-0.055,0.112-0.055c0.107,0,0.192-0.014,0.257-0.029c0.143-0.027,0.186-0.146,0.206-0.351
				c0.037-0.292,0.037-0.845,0.037-1.524V42.484z"/>
			<path style="fill:#FFFFFF;" d="M53.922,44.793c0.016,0.546,0.107,0.728,0.251,0.775c0.12,0.044,0.254,0.051,0.367,0.051
				c0.081,0,0.122,0.014,0.122,0.055c0,0.057-0.063,0.071-0.163,0.071c-0.463,0-0.747-0.02-0.883-0.02
				c-0.063,0-0.396,0.02-0.766,0.02c-0.095,0-0.158-0.006-0.158-0.071c0-0.041,0.043-0.055,0.112-0.055
				c0.095,0,0.221-0.007,0.322-0.036c0.185-0.055,0.213-0.259,0.221-0.868l0.063-4.141c0-0.14,0.022-0.239,0.091-0.239
				c0.079,0,0.144,0.091,0.264,0.217c0.085,0.091,1.167,1.231,2.206,2.247c0.484,0.475,1.444,1.482,1.564,1.596h0.036l-0.071-3.143
				c-0.008-0.426-0.071-0.559-0.241-0.629c-0.109-0.043-0.276-0.043-0.377-0.043c-0.087,0-0.115-0.02-0.115-0.062
				c0-0.056,0.079-0.063,0.185-0.063c0.37,0,0.711,0.021,0.861,0.021c0.077,0,0.348-0.021,0.697-0.021
				c0.093,0,0.164,0.007,0.164,0.063c0,0.042-0.044,0.062-0.131,0.062c-0.069,0-0.126,0-0.213,0.021
				c-0.197,0.056-0.254,0.204-0.263,0.595l-0.079,4.416c0,0.153-0.027,0.217-0.09,0.217c-0.077,0-0.164-0.077-0.243-0.156
				c-0.447-0.419-1.359-1.335-2.097-2.056c-0.776-0.756-1.566-1.631-1.694-1.764h-0.02L53.922,44.793z"/>
			<path style="fill:#FFFFFF;" d="M64.581,45.276c0,0.188-0.008,0.202-0.095,0.251c-0.463,0.237-1.158,0.315-1.712,0.315
				c-1.742,0-3.286-0.812-3.286-2.744c0-1.119,0.591-1.903,1.237-2.288c0.683-0.405,1.317-0.454,1.913-0.454
				c0.492,0,1.118,0.084,1.26,0.112c0.15,0.027,0.399,0.071,0.561,0.077c0.087,0.007,0.101,0.035,0.101,0.084
				c0,0.077-0.049,0.273-0.049,1.147c0,0.112-0.024,0.148-0.079,0.148c-0.049,0-0.065-0.036-0.071-0.092
				c-0.021-0.162-0.055-0.385-0.241-0.581c-0.215-0.223-0.784-0.545-1.586-0.545c-0.393,0-0.912,0.028-1.41,0.434
				c-0.399,0.329-0.655,0.854-0.655,1.715c0,1.505,0.975,2.63,2.476,2.63c0.186,0,0.434,0,0.605-0.076
				c0.106-0.05,0.136-0.141,0.136-0.26v-0.657c0-0.349,0-0.615-0.008-0.825c-0.008-0.239-0.071-0.351-0.305-0.4
				c-0.059-0.013-0.179-0.02-0.278-0.02c-0.065,0-0.107-0.014-0.107-0.057c0-0.055,0.049-0.069,0.148-0.069
				c0.371,0,0.82,0.021,1.033,0.021c0.219,0,0.598-0.021,0.832-0.021c0.093,0,0.144,0.014,0.144,0.069
				c0,0.043-0.044,0.057-0.093,0.057c-0.057,0-0.109,0.007-0.193,0.02c-0.192,0.035-0.263,0.154-0.271,0.4
				c-0.005,0.21-0.005,0.488-0.005,0.839V45.276z"/>
			<path style="fill:#FFFFFF;" d="M66.885,43.918c-0.036,0-0.049,0.014-0.063,0.057l-0.385,1.001
				c-0.071,0.173-0.107,0.343-0.107,0.426c0,0.126,0.063,0.217,0.285,0.217h0.106c0.085,0,0.106,0.014,0.106,0.055
				c0,0.057-0.041,0.071-0.122,0.071c-0.227,0-0.531-0.02-0.752-0.02c-0.079,0-0.469,0.02-0.839,0.02
				c-0.093,0-0.137-0.014-0.137-0.071c0-0.041,0.03-0.055,0.087-0.055c0.063,0,0.163-0.007,0.219-0.014
				c0.328-0.042,0.463-0.28,0.605-0.629l1.785-4.395c0.087-0.203,0.128-0.279,0.2-0.279c0.065,0,0.106,0.063,0.179,0.225
				c0.17,0.384,1.308,3.238,1.764,4.302c0.27,0.629,0.476,0.728,0.626,0.762c0.107,0.022,0.213,0.029,0.299,0.029
				c0.057,0,0.093,0.008,0.093,0.055c0,0.057-0.063,0.071-0.327,0.071c-0.257,0-0.775,0-1.343-0.014
				c-0.128-0.006-0.216-0.006-0.216-0.057c0-0.041,0.03-0.055,0.101-0.062c0.049-0.014,0.099-0.077,0.063-0.161l-0.569-1.484
				c-0.014-0.035-0.036-0.049-0.071-0.049H66.885z M68.336,43.569c0.033,0,0.041-0.022,0.033-0.043l-0.638-1.729
				c-0.008-0.027-0.014-0.062-0.037-0.062c-0.022,0-0.036,0.036-0.042,0.062L67,43.519c-0.008,0.028,0,0.05,0.027,0.05H68.336z"/>
			<path style="fill:#FFFFFF;" d="M71.614,42.484c0-1.063,0-1.26-0.014-1.483c-0.014-0.239-0.071-0.35-0.306-0.4
				c-0.058-0.014-0.178-0.021-0.276-0.021c-0.079,0-0.121-0.014-0.121-0.062c0-0.049,0.047-0.063,0.154-0.063
				c0.377,0,0.826,0.021,1.027,0.021c0.29,0,0.703-0.021,1.031-0.021c0.889,0,1.208,0.294,1.323,0.399
				c0.156,0.147,0.356,0.462,0.356,0.832c0,0.993-0.741,1.694-1.75,1.694c-0.035,0-0.114,0-0.15-0.008
				c-0.036-0.007-0.085-0.014-0.085-0.063c0-0.055,0.049-0.077,0.2-0.077c0.396,0,0.953-0.441,0.953-1.154
				c0-0.231-0.023-0.701-0.42-1.05c-0.257-0.231-0.549-0.272-0.713-0.272c-0.106,0-0.211,0.006-0.276,0.027
				c-0.036,0.014-0.057,0.056-0.057,0.132v2.799c0,0.645,0,1.197,0.035,1.498c0.022,0.197,0.065,0.35,0.279,0.377
				c0.099,0.014,0.257,0.029,0.363,0.029c0.077,0,0.113,0.02,0.113,0.055c0,0.051-0.058,0.071-0.134,0.071
				c-0.47,0-0.918-0.02-1.104-0.02c-0.163,0-0.612,0.02-0.896,0.02c-0.093,0-0.141-0.02-0.141-0.071
				c0-0.034,0.028-0.055,0.113-0.055c0.106,0,0.191-0.014,0.257-0.029c0.142-0.027,0.175-0.181,0.205-0.385
				c0.036-0.293,0.036-0.845,0.036-1.49V42.484z"/>
			<path style="fill:#FFFFFF;" d="M75.534,43.099c0-1.197,0.804-2.742,2.939-2.742c1.771,0,2.873,1.014,2.873,2.617
				c0,1.603-1.138,2.869-2.945,2.869C76.36,45.843,75.534,44.338,75.534,43.099z M80.35,43.232c0-1.568-0.918-2.54-2.085-2.54
				c-0.818,0-1.75,0.447-1.75,2.189c0,1.457,0.817,2.612,2.184,2.612C79.198,45.493,80.35,45.254,80.35,43.232z"/>
			<path style="fill:#FFFFFF;" d="M82.871,42.484c0-1.063,0-1.26-0.014-1.483c-0.016-0.239-0.074-0.35-0.308-0.4
				c-0.055-0.014-0.175-0.021-0.276-0.021c-0.079,0-0.121-0.014-0.121-0.062c0-0.049,0.049-0.063,0.156-0.063
				c0.377,0,0.826,0.021,0.974,0.021c0.242,0,0.784-0.021,1.003-0.021c0.449,0,0.927,0.041,1.309,0.302
				c0.2,0.131,0.484,0.489,0.484,0.957c0,0.517-0.219,0.994-0.94,1.568c0.633,0.782,1.126,1.406,1.544,1.84
				c0.399,0.406,0.691,0.454,0.798,0.475c0.079,0.014,0.142,0.021,0.2,0.021c0.055,0,0.085,0.02,0.085,0.055
				c0,0.057-0.049,0.071-0.137,0.071h-0.675c-0.399,0-0.575-0.035-0.76-0.132c-0.306-0.161-0.576-0.49-0.975-1.029
				c-0.285-0.385-0.611-0.861-0.703-0.965c-0.036-0.043-0.079-0.049-0.128-0.049l-0.62-0.014c-0.036,0-0.055,0.014-0.055,0.054
				v0.099c0,0.651,0,1.203,0.033,1.496c0.022,0.204,0.065,0.358,0.279,0.385c0.106,0.014,0.262,0.029,0.349,0.029
				c0.055,0,0.085,0.02,0.085,0.055c0,0.051-0.049,0.071-0.144,0.071c-0.411,0-0.938-0.02-1.045-0.02
				c-0.134,0-0.583,0.02-0.867,0.02c-0.093,0-0.142-0.02-0.142-0.071c0-0.034,0.03-0.055,0.115-0.055
				c0.106,0,0.189-0.014,0.254-0.029c0.142-0.027,0.178-0.181,0.207-0.385c0.036-0.293,0.036-0.845,0.036-1.49V42.484z
				 M83.71,43.037c0,0.075,0.014,0.104,0.063,0.126c0.15,0.048,0.363,0.069,0.539,0.069c0.286,0,0.377-0.028,0.505-0.12
				c0.213-0.154,0.421-0.475,0.421-1.048c0-0.993-0.669-1.28-1.088-1.28c-0.178,0-0.306,0.008-0.378,0.027
				c-0.049,0.014-0.063,0.043-0.063,0.098V43.037z"/>
			<path style="fill:#FFFFFF;" d="M88.275,42.484c0-1.063,0-1.26-0.014-1.483c-0.014-0.239-0.071-0.35-0.306-0.4
				c-0.058-0.014-0.178-0.021-0.276-0.021c-0.079,0-0.121-0.014-0.121-0.062c0-0.049,0.049-0.063,0.156-0.063
				c0.191,0,0.396,0.007,0.574,0.007c0.186,0.007,0.349,0.014,0.448,0.014c0.229,0,1.645,0,1.78-0.007
				c0.134-0.014,0.249-0.028,0.306-0.043c0.036-0.006,0.077-0.027,0.112-0.027s0.043,0.027,0.043,0.063
				c0,0.048-0.035,0.133-0.057,0.454c-0.008,0.07-0.022,0.378-0.036,0.462c-0.006,0.036-0.02,0.077-0.071,0.077
				c-0.049,0-0.064-0.035-0.064-0.098c0-0.049-0.005-0.167-0.043-0.252c-0.049-0.125-0.12-0.21-0.475-0.251
				c-0.123-0.014-0.867-0.028-1.012-0.028c-0.035,0-0.049,0.021-0.049,0.069v1.77c0,0.049,0.008,0.077,0.049,0.077
				c0.158,0,0.976,0,1.14-0.013c0.169-0.015,0.276-0.035,0.339-0.106c0.051-0.056,0.079-0.091,0.115-0.091
				c0.03,0,0.051,0.014,0.051,0.056c0,0.042-0.037,0.153-0.059,0.51c-0.014,0.141-0.027,0.42-0.027,0.47
				c0,0.055,0,0.132-0.063,0.132c-0.049,0-0.065-0.027-0.065-0.063c-0.006-0.069-0.006-0.16-0.028-0.252
				c-0.035-0.139-0.134-0.245-0.399-0.273c-0.136-0.014-0.839-0.02-1.009-0.02c-0.036,0-0.044,0.028-0.044,0.071v0.551
				c0,0.239-0.008,0.882,0,1.085c0.014,0.482,0.128,0.587,0.855,0.587c0.184,0,0.482,0,0.668-0.084
				c0.185-0.084,0.27-0.231,0.32-0.519c0.014-0.077,0.028-0.104,0.079-0.104c0.058,0,0.058,0.056,0.058,0.125
				c0,0.162-0.058,0.638-0.095,0.777c-0.049,0.182-0.112,0.182-0.384,0.182c-0.533,0-0.924-0.013-1.23-0.021
				c-0.306-0.014-0.528-0.02-0.741-0.02c-0.077,0-0.235,0.006-0.405,0.006c-0.164,0.008-0.35,0.014-0.492,0.014
				c-0.09,0-0.14-0.02-0.14-0.071c0-0.034,0.027-0.055,0.112-0.055c0.106,0,0.191-0.014,0.257-0.029
				c0.142-0.027,0.175-0.181,0.205-0.385c0.036-0.293,0.036-0.845,0.036-1.49V42.484z"/>
			<path style="fill:#FFFFFF;" d="M95.24,40.483c0.02-0.119,0.063-0.182,0.121-0.182c0.057,0,0.099,0.034,0.191,0.217l1.941,3.946
				l1.935-3.995c0.049-0.112,0.093-0.168,0.158-0.168c0.063,0,0.106,0.069,0.128,0.217l0.646,4.324
				c0.065,0.44,0.136,0.643,0.348,0.706c0.207,0.065,0.349,0.071,0.442,0.071c0.063,0,0.112,0.008,0.112,0.048
				c0,0.058-0.085,0.077-0.184,0.077c-0.178,0-1.159-0.02-1.443-0.043c-0.164-0.014-0.207-0.035-0.207-0.075
				c0-0.036,0.03-0.058,0.079-0.079c0.043-0.013,0.065-0.103,0.036-0.3l-0.427-3.078h-0.027l-1.552,3.176
				c-0.164,0.328-0.197,0.393-0.263,0.393s-0.136-0.141-0.248-0.351c-0.17-0.321-0.733-1.391-0.82-1.587
				c-0.064-0.148-0.49-1.03-0.739-1.554H95.44l-0.371,2.785c-0.014,0.125-0.022,0.216-0.022,0.328c0,0.134,0.093,0.196,0.213,0.224
				c0.128,0.029,0.229,0.036,0.3,0.036c0.058,0,0.107,0.014,0.107,0.048c0,0.064-0.063,0.077-0.172,0.077
				c-0.299,0-0.618-0.02-0.747-0.02c-0.134,0-0.476,0.02-0.705,0.02c-0.071,0-0.127-0.014-0.127-0.077
				c0-0.034,0.042-0.048,0.112-0.048c0.058,0,0.107,0,0.213-0.021c0.2-0.043,0.257-0.316,0.292-0.553L95.24,40.483z"/>
			<path style="fill:#FFFFFF;" d="M102.786,43.918c-0.038,0-0.052,0.014-0.065,0.057l-0.383,1.001
				c-0.074,0.173-0.107,0.343-0.107,0.426c0,0.126,0.063,0.217,0.285,0.217h0.104c0.087,0,0.109,0.014,0.109,0.055
				c0,0.057-0.043,0.071-0.122,0.071c-0.225,0-0.533-0.02-0.752-0.02c-0.079,0-0.47,0.02-0.839,0.02
				c-0.093,0-0.137-0.014-0.137-0.071c0-0.041,0.03-0.055,0.085-0.055c0.065,0,0.164-0.007,0.221-0.014
				c0.328-0.042,0.463-0.28,0.605-0.629l1.785-4.395c0.087-0.203,0.128-0.279,0.201-0.279c0.064,0,0.107,0.063,0.176,0.225
				c0.172,0.384,1.309,3.238,1.764,4.302c0.272,0.629,0.478,0.728,0.627,0.762c0.107,0.022,0.213,0.029,0.299,0.029
				c0.057,0,0.093,0.008,0.093,0.055c0,0.057-0.065,0.071-0.327,0.071c-0.257,0-0.775,0-1.343-0.014
				c-0.128-0.006-0.216-0.006-0.216-0.057c0-0.041,0.028-0.055,0.101-0.062c0.049-0.014,0.099-0.077,0.063-0.161l-0.569-1.484
				c-0.014-0.035-0.037-0.049-0.071-0.049H102.786z M104.237,43.569c0.036,0,0.041-0.022,0.036-0.043l-0.64-1.729
				c-0.008-0.027-0.016-0.062-0.037-0.062c-0.022,0-0.036,0.036-0.043,0.062l-0.654,1.721c-0.008,0.028,0,0.05,0.03,0.05H104.237z"
				/>
			<path style="fill:#FFFFFF;" d="M107.914,44.793c0.014,0.546,0.106,0.728,0.249,0.775c0.12,0.044,0.254,0.051,0.369,0.051
				c0.079,0,0.12,0.014,0.12,0.055c0,0.057-0.063,0.071-0.163,0.071c-0.463,0-0.747-0.02-0.881-0.02c-0.065,0-0.399,0.02-0.768,0.02
				c-0.093,0-0.156-0.006-0.156-0.071c0-0.041,0.042-0.055,0.112-0.055c0.093,0,0.222-0.007,0.321-0.036
				c0.185-0.055,0.215-0.259,0.221-0.868l0.065-4.141c0-0.14,0.02-0.239,0.09-0.239c0.077,0,0.144,0.091,0.265,0.217
				c0.084,0.091,1.165,1.231,2.203,2.247c0.484,0.475,1.445,1.482,1.566,1.596h0.036l-0.073-3.143
				c-0.006-0.426-0.069-0.559-0.242-0.629c-0.106-0.043-0.276-0.043-0.377-0.043c-0.085,0-0.115-0.02-0.115-0.062
				c0-0.056,0.081-0.063,0.188-0.063c0.369,0,0.711,0.021,0.859,0.021c0.079,0,0.349-0.021,0.697-0.021
				c0.093,0,0.164,0.007,0.164,0.063c0,0.042-0.042,0.062-0.128,0.062c-0.071,0-0.128,0-0.213,0.021
				c-0.197,0.056-0.257,0.204-0.265,0.595l-0.077,4.416c0,0.153-0.03,0.217-0.091,0.217c-0.079,0-0.166-0.077-0.242-0.156
				c-0.449-0.419-1.359-1.335-2.098-2.056c-0.778-0.756-1.565-1.631-1.694-1.764h-0.022L107.914,44.793z"/>
			<path style="fill:#FFFFFF;" d="M114.571,43.918c-0.036,0-0.049,0.014-0.064,0.057l-0.383,1.001
				c-0.073,0.173-0.106,0.343-0.106,0.426c0,0.126,0.063,0.217,0.282,0.217h0.109c0.085,0,0.107,0.014,0.107,0.055
				c0,0.057-0.043,0.071-0.121,0.071c-0.229,0-0.535-0.02-0.754-0.02c-0.079,0-0.47,0.02-0.842,0.02
				c-0.09,0-0.134-0.014-0.134-0.071c0-0.041,0.03-0.055,0.084-0.055c0.065,0,0.164-0.007,0.222-0.014
				c0.327-0.042,0.462-0.28,0.604-0.629l1.786-4.395c0.084-0.203,0.128-0.279,0.199-0.279c0.063,0,0.107,0.063,0.178,0.225
				c0.172,0.384,1.309,3.238,1.764,4.302c0.27,0.629,0.478,0.728,0.628,0.762c0.106,0.022,0.213,0.029,0.298,0.029
				c0.058,0,0.093,0.008,0.093,0.055c0,0.057-0.065,0.071-0.33,0.071c-0.254,0-0.774,0-1.343-0.014
				c-0.126-0.006-0.213-0.006-0.213-0.057c0-0.041,0.027-0.055,0.1-0.062c0.048-0.014,0.099-0.077,0.063-0.161l-0.568-1.484
				c-0.016-0.035-0.036-0.049-0.071-0.049H114.571z M116.023,43.569c0.035,0,0.041-0.022,0.035-0.043l-0.64-1.729
				c-0.006-0.027-0.014-0.062-0.036-0.062c-0.021,0-0.036,0.036-0.041,0.062l-0.656,1.721c-0.008,0.028,0,0.05,0.028,0.05H116.023z"
				/>
			<path style="fill:#FFFFFF;" d="M123.621,45.276c0,0.188-0.01,0.202-0.093,0.251c-0.462,0.237-1.159,0.315-1.716,0.315
				c-1.744,0-3.286-0.812-3.286-2.744c0-1.119,0.591-1.903,1.239-2.288c0.683-0.405,1.317-0.454,1.915-0.454
				c0.489,0,1.114,0.084,1.258,0.112c0.15,0.027,0.399,0.071,0.561,0.077c0.085,0.007,0.099,0.035,0.099,0.084
				c0,0.077-0.049,0.273-0.049,1.147c0,0.112-0.02,0.148-0.077,0.148c-0.049,0-0.065-0.036-0.071-0.092
				c-0.024-0.162-0.057-0.385-0.243-0.581c-0.213-0.223-0.782-0.545-1.585-0.545c-0.391,0-0.911,0.028-1.408,0.434
				c-0.399,0.329-0.654,0.854-0.654,1.715c0,1.505,0.974,2.63,2.475,2.63c0.185,0,0.434,0,0.605-0.076
				c0.106-0.05,0.134-0.141,0.134-0.26v-0.657c0-0.349,0-0.615-0.005-0.825c-0.008-0.239-0.069-0.351-0.308-0.4
				c-0.055-0.013-0.175-0.02-0.276-0.02c-0.063,0-0.106-0.014-0.106-0.057c0-0.055,0.049-0.069,0.15-0.069
				c0.371,0,0.818,0.021,1.031,0.021c0.222,0,0.598-0.021,0.834-0.021c0.093,0,0.142,0.014,0.142,0.069
				c0,0.043-0.043,0.057-0.093,0.057c-0.058,0-0.107,0.007-0.192,0.02c-0.193,0.035-0.264,0.154-0.27,0.4
				c-0.006,0.21-0.006,0.488-0.006,0.839V45.276z"/>
			<path style="fill:#FFFFFF;" d="M125.64,42.484c0-1.063,0-1.26-0.014-1.483c-0.014-0.239-0.069-0.35-0.306-0.4
				c-0.057-0.014-0.178-0.021-0.276-0.021c-0.079,0-0.12-0.014-0.12-0.062c0-0.049,0.049-0.063,0.156-0.063
				c0.191,0,0.397,0.007,0.575,0.007c0.188,0.007,0.349,0.014,0.448,0.014c0.229,0,1.643,0,1.78-0.007
				c0.136-0.014,0.248-0.028,0.306-0.043c0.035-0.006,0.079-0.027,0.112-0.027c0.037,0,0.043,0.027,0.043,0.063
				c0,0.048-0.037,0.133-0.055,0.454c-0.008,0.07-0.021,0.378-0.037,0.462c-0.006,0.036-0.022,0.077-0.071,0.077
				c-0.049,0-0.063-0.035-0.063-0.098c0-0.049-0.008-0.167-0.043-0.252c-0.049-0.125-0.118-0.21-0.478-0.251
				c-0.118-0.014-0.867-0.028-1.009-0.028c-0.033,0-0.049,0.021-0.049,0.069v1.77c0,0.049,0.008,0.077,0.049,0.077
				c0.156,0,0.975,0,1.139-0.013c0.17-0.015,0.276-0.035,0.342-0.106c0.049-0.056,0.077-0.091,0.112-0.091
				c0.03,0,0.049,0.014,0.049,0.056c0,0.042-0.036,0.153-0.055,0.51c-0.014,0.141-0.03,0.42-0.03,0.47c0,0.055,0,0.132-0.065,0.132
				c-0.049,0-0.062-0.027-0.062-0.063c-0.008-0.069-0.008-0.16-0.03-0.252c-0.033-0.139-0.134-0.245-0.399-0.273
				c-0.134-0.014-0.839-0.02-1.011-0.02c-0.034,0-0.042,0.028-0.042,0.071v0.551c0,0.239-0.006,0.882,0,1.085
				c0.016,0.482,0.128,0.587,0.853,0.587c0.188,0,0.484,0,0.671-0.084c0.184-0.084,0.269-0.231,0.318-0.519
				c0.016-0.077,0.027-0.104,0.079-0.104c0.055,0,0.055,0.056,0.055,0.125c0,0.162-0.055,0.638-0.093,0.777
				c-0.047,0.182-0.114,0.182-0.383,0.182c-0.533,0-0.926-0.013-1.23-0.021c-0.304-0.014-0.525-0.02-0.738-0.02
				c-0.079,0-0.237,0.006-0.409,0.006c-0.163,0.008-0.346,0.014-0.49,0.014c-0.091,0-0.141-0.02-0.141-0.071
				c0-0.034,0.028-0.055,0.112-0.055c0.109,0,0.192-0.014,0.257-0.029c0.143-0.027,0.178-0.181,0.206-0.385
				c0.036-0.293,0.036-0.845,0.036-1.49V42.484z"/>
			<path style="fill:#FFFFFF;" d="M130.434,40.483c0.022-0.119,0.065-0.182,0.123-0.182c0.057,0,0.097,0.034,0.189,0.217
				l1.944,3.946l1.935-3.995c0.049-0.112,0.093-0.168,0.156-0.168c0.065,0,0.106,0.069,0.126,0.217l0.648,4.324
				c0.065,0.44,0.138,0.643,0.349,0.706c0.206,0.065,0.35,0.071,0.443,0.071c0.063,0,0.112,0.008,0.112,0.048
				c0,0.058-0.087,0.077-0.184,0.077c-0.179,0-1.161-0.02-1.445-0.043c-0.162-0.014-0.205-0.035-0.205-0.075
				c0-0.036,0.027-0.058,0.077-0.079c0.043-0.013,0.065-0.103,0.036-0.3l-0.427-3.078h-0.026l-1.552,3.176
				c-0.166,0.328-0.201,0.393-0.265,0.393c-0.063,0-0.134-0.141-0.248-0.351c-0.17-0.321-0.733-1.391-0.818-1.587
				c-0.065-0.148-0.491-1.03-0.738-1.554h-0.032l-0.367,2.785c-0.016,0.125-0.022,0.216-0.022,0.328
				c0,0.134,0.093,0.196,0.213,0.224c0.126,0.029,0.227,0.036,0.299,0.036c0.057,0,0.109,0.014,0.109,0.048
				c0,0.064-0.068,0.077-0.172,0.077c-0.298,0-0.617-0.02-0.746-0.02c-0.137,0-0.476,0.02-0.706,0.02
				c-0.071,0-0.128-0.014-0.128-0.077c0-0.034,0.044-0.048,0.113-0.048c0.057,0,0.106,0,0.215-0.021
				c0.2-0.043,0.257-0.316,0.29-0.553L130.434,40.483z"/>
			<path style="fill:#FFFFFF;" d="M137.627,42.484c0-1.063,0-1.26-0.016-1.483c-0.012-0.239-0.069-0.35-0.305-0.4
				c-0.057-0.014-0.179-0.021-0.278-0.021c-0.077,0-0.122-0.014-0.122-0.062c0-0.049,0.051-0.063,0.158-0.063
				c0.191,0,0.399,0.007,0.577,0.007c0.184,0.007,0.347,0.014,0.448,0.014c0.227,0,1.641,0,1.78-0.007
				c0.134-0.014,0.247-0.028,0.306-0.043c0.033-0.006,0.077-0.027,0.112-0.027c0.033,0,0.043,0.027,0.043,0.063
				c0,0.048-0.036,0.133-0.059,0.454c-0.006,0.07-0.02,0.378-0.033,0.462c-0.008,0.036-0.022,0.077-0.071,0.077
				c-0.051,0-0.065-0.035-0.065-0.098c0-0.049-0.008-0.167-0.041-0.252c-0.049-0.125-0.122-0.21-0.478-0.251
				c-0.123-0.014-0.867-0.028-1.009-0.028c-0.037,0-0.049,0.021-0.049,0.069v1.77c0,0.049,0.006,0.077,0.049,0.077
				c0.156,0,0.975,0,1.138-0.013c0.172-0.015,0.276-0.035,0.341-0.106c0.049-0.056,0.079-0.091,0.115-0.091
				c0.028,0,0.049,0.014,0.049,0.056c0,0.042-0.033,0.153-0.057,0.51c-0.014,0.141-0.028,0.42-0.028,0.47
				c0,0.055,0,0.132-0.065,0.132c-0.049,0-0.064-0.027-0.064-0.063c-0.008-0.069-0.008-0.16-0.027-0.252
				c-0.037-0.139-0.138-0.245-0.399-0.273c-0.134-0.014-0.839-0.02-1.009-0.02c-0.037,0-0.043,0.028-0.043,0.071v0.551
				c0,0.239-0.006,0.882,0,1.085c0.012,0.482,0.128,0.587,0.853,0.587c0.184,0,0.484,0,0.668-0.084
				c0.185-0.084,0.27-0.231,0.322-0.519c0.011-0.077,0.027-0.104,0.077-0.104c0.058,0,0.058,0.056,0.058,0.125
				c0,0.162-0.058,0.638-0.091,0.777c-0.052,0.182-0.115,0.182-0.385,0.182c-0.533,0-0.924-0.013-1.232-0.021
				c-0.306-0.014-0.526-0.02-0.74-0.02c-0.077,0-0.233,0.006-0.403,0.006c-0.164,0.008-0.349,0.014-0.491,0.014
				c-0.093,0-0.142-0.02-0.142-0.071c0-0.034,0.03-0.055,0.112-0.055c0.106,0,0.194-0.014,0.257-0.029
				c0.142-0.027,0.178-0.181,0.207-0.385c0.036-0.293,0.036-0.845,0.036-1.49V42.484z"/>
			<path style="fill:#FFFFFF;" d="M142.555,44.793c0.016,0.546,0.107,0.728,0.249,0.775c0.12,0.044,0.257,0.051,0.369,0.051
				c0.079,0,0.122,0.014,0.122,0.055c0,0.057-0.065,0.071-0.166,0.071c-0.463,0-0.747-0.02-0.881-0.02
				c-0.061,0-0.399,0.02-0.766,0.02c-0.094,0-0.158-0.006-0.158-0.071c0-0.041,0.042-0.055,0.115-0.055
				c0.091,0,0.219-0.007,0.32-0.036c0.184-0.055,0.213-0.259,0.219-0.868l0.065-4.141c0-0.14,0.021-0.239,0.093-0.239
				c0.077,0,0.142,0.091,0.263,0.217c0.085,0.091,1.165,1.231,2.206,2.247c0.482,0.475,1.444,1.482,1.562,1.596h0.037l-0.071-3.143
				c-0.008-0.426-0.073-0.559-0.242-0.629c-0.107-0.043-0.276-0.043-0.378-0.043c-0.085,0-0.112-0.02-0.112-0.062
				c0-0.056,0.079-0.063,0.185-0.063c0.368,0,0.713,0.021,0.861,0.021c0.079,0,0.347-0.021,0.695-0.021
				c0.093,0,0.164,0.007,0.164,0.063c0,0.042-0.042,0.062-0.128,0.062c-0.069,0-0.128,0-0.211,0.021
				c-0.202,0.056-0.257,0.204-0.265,0.595l-0.077,4.416c0,0.153-0.03,0.217-0.093,0.217c-0.079,0-0.164-0.077-0.243-0.156
				c-0.448-0.419-1.359-1.335-2.097-2.056c-0.776-0.756-1.565-1.631-1.693-1.764h-0.024L142.555,44.793z"/>
			<path style="fill:#FFFFFF;" d="M149.876,40.847l-1.06,0.027c-0.412,0.014-0.583,0.049-0.691,0.204
				c-0.071,0.105-0.105,0.188-0.12,0.245c-0.014,0.055-0.036,0.085-0.077,0.085c-0.049,0-0.065-0.036-0.065-0.113
				c0-0.112,0.134-0.749,0.15-0.805c0.022-0.09,0.042-0.132,0.085-0.132c0.057,0,0.128,0.069,0.306,0.084
				c0.205,0.021,0.476,0.035,0.712,0.035h2.816c0.227,0,0.385-0.021,0.491-0.035c0.107-0.021,0.163-0.034,0.192-0.034
				c0.047,0,0.057,0.043,0.057,0.146c0,0.147-0.022,0.63-0.022,0.811c-0.008,0.071-0.021,0.113-0.065,0.113
				c-0.055,0-0.071-0.036-0.077-0.14l-0.008-0.077c-0.014-0.182-0.206-0.377-0.839-0.391l-0.897-0.021v2.868
				c0,0.645,0,1.197,0.036,1.498c0.02,0.197,0.065,0.35,0.276,0.377c0.101,0.014,0.257,0.029,0.364,0.029
				c0.077,0,0.114,0.02,0.114,0.055c0,0.051-0.055,0.071-0.136,0.071c-0.47,0-0.918-0.02-1.113-0.02c-0.166,0-0.617,0.02-0.899,0.02
				c-0.093,0-0.143-0.02-0.143-0.071c0-0.034,0.028-0.055,0.113-0.055c0.109,0,0.193-0.014,0.257-0.029
				c0.142-0.027,0.185-0.181,0.205-0.385c0.037-0.293,0.037-0.845,0.037-1.49V40.847z"/>
			<path style="fill:#FFFFFF;" d="M45.795,50.834c0-1.064,0-1.261-0.016-1.484c-0.014-0.237-0.071-0.349-0.306-0.398
				c-0.057-0.015-0.178-0.021-0.276-0.021c-0.079,0-0.122-0.014-0.122-0.063c0-0.049,0.049-0.062,0.156-0.062
				c0.377,0,0.826,0.02,1.041,0.02c0.168,0,0.618-0.02,0.875-0.02c0.105,0,0.156,0.014,0.156,0.062c0,0.049-0.044,0.063-0.115,0.063
				c-0.077,0-0.121,0.006-0.206,0.021c-0.193,0.035-0.248,0.154-0.262,0.398c-0.016,0.223-0.016,0.42-0.016,1.484v0.98
				c0,1.014,0.205,1.442,0.554,1.721c0.322,0.257,0.648,0.287,0.891,0.287c0.312,0,0.697-0.098,0.98-0.378
				c0.39-0.385,0.415-1.014,0.415-1.735v-0.874c0-1.064,0-1.261-0.016-1.484c-0.014-0.237-0.071-0.349-0.306-0.398
				c-0.058-0.015-0.178-0.021-0.255-0.021c-0.079,0-0.12-0.014-0.12-0.063c0-0.049,0.049-0.062,0.148-0.062
				c0.363,0,0.811,0.02,0.82,0.02c0.085,0,0.531-0.02,0.81-0.02c0.1,0,0.15,0.014,0.15,0.062c0,0.049-0.043,0.063-0.128,0.063
				c-0.079,0-0.122,0.006-0.207,0.021c-0.191,0.035-0.248,0.154-0.262,0.398c-0.014,0.223-0.014,0.42-0.014,1.484v0.749
				c0,0.775-0.079,1.603-0.675,2.106c-0.505,0.426-1.019,0.504-1.481,0.504c-0.377,0-1.058-0.022-1.58-0.484
				c-0.361-0.321-0.63-0.839-0.63-1.853V50.834z"/>
			<path style="fill:#FFFFFF;" d="M52.594,53.143c0.014,0.545,0.106,0.728,0.248,0.776c0.121,0.043,0.257,0.048,0.369,0.048
				c0.079,0,0.123,0.015,0.123,0.058c0,0.055-0.065,0.069-0.166,0.069c-0.462,0-0.747-0.021-0.88-0.021
				c-0.065,0-0.4,0.021-0.769,0.021c-0.093,0-0.158-0.007-0.158-0.069c0-0.042,0.043-0.058,0.115-0.058
				c0.093,0,0.221-0.005,0.32-0.034c0.186-0.056,0.213-0.259,0.221-0.867l0.064-4.145c0-0.138,0.021-0.237,0.093-0.237
				c0.079,0,0.142,0.091,0.264,0.217c0.085,0.092,1.165,1.233,2.204,2.247c0.484,0.477,1.443,1.484,1.564,1.595h0.037l-0.071-3.141
				c-0.008-0.428-0.073-0.561-0.243-0.63c-0.106-0.043-0.276-0.043-0.377-0.043c-0.084,0-0.112-0.021-0.112-0.063
				c0-0.056,0.078-0.062,0.184-0.062c0.369,0,0.711,0.02,0.861,0.02c0.079,0,0.349-0.02,0.696-0.02c0.093,0,0.164,0.006,0.164,0.062
				c0,0.043-0.043,0.063-0.128,0.063c-0.071,0-0.126,0-0.213,0.021c-0.199,0.055-0.257,0.202-0.262,0.595l-0.079,4.416
				c0,0.153-0.028,0.217-0.093,0.217c-0.077,0-0.162-0.079-0.242-0.154c-0.447-0.42-1.357-1.338-2.098-2.058
				c-0.774-0.756-1.565-1.631-1.692-1.764h-0.021L52.594,53.143z"/>
			<path style="fill:#FFFFFF;" d="M58.966,50.834c0-1.064,0-1.261-0.014-1.484c-0.014-0.237-0.085-0.356-0.243-0.39
				c-0.077-0.023-0.17-0.029-0.257-0.029c-0.069,0-0.112-0.014-0.112-0.069c0-0.043,0.057-0.056,0.172-0.056
				c0.27,0,0.718,0.02,0.924,0.02c0.178,0,0.598-0.02,0.867-0.02c0.095,0,0.15,0.014,0.15,0.056c0,0.055-0.042,0.069-0.115,0.069
				c-0.069,0-0.128,0.006-0.213,0.021c-0.191,0.035-0.249,0.154-0.263,0.398c-0.016,0.223-0.016,0.42-0.016,1.484v1.231
				c0,0.678,0,1.233,0.03,1.533c0.022,0.188,0.071,0.314,0.286,0.343c0.099,0.013,0.255,0.027,0.361,0.027
				c0.079,0,0.115,0.021,0.115,0.058c0,0.049-0.057,0.069-0.134,0.069c-0.47,0-0.918-0.021-1.112-0.021
				c-0.162,0-0.61,0.021-0.894,0.021c-0.093,0-0.144-0.021-0.144-0.069c0-0.036,0.03-0.058,0.115-0.058
				c0.106,0,0.193-0.014,0.257-0.027c0.142-0.03,0.183-0.149,0.205-0.35c0.036-0.293,0.036-0.848,0.036-1.526V50.834z"/>
			<path style="fill:#FFFFFF;" d="M61.563,49.49c-0.164-0.384-0.285-0.462-0.542-0.531c-0.106-0.029-0.221-0.029-0.276-0.029
				c-0.065,0-0.087-0.021-0.087-0.063c0-0.056,0.079-0.062,0.185-0.062c0.377,0,0.782,0.02,1.031,0.02
				c0.178,0,0.521-0.02,0.877-0.02c0.085,0,0.162,0.014,0.162,0.062c0,0.049-0.041,0.063-0.106,0.063
				c-0.112,0-0.221,0.006-0.276,0.05c-0.049,0.035-0.073,0.083-0.073,0.147c0,0.09,0.065,0.287,0.166,0.538l1.222,3.176h0.028
				c0.308-0.769,1.232-3.021,1.402-3.485c0.036-0.09,0.065-0.195,0.065-0.258c0-0.056-0.03-0.112-0.093-0.132
				c-0.087-0.03-0.193-0.036-0.284-0.036c-0.063,0-0.121-0.008-0.121-0.055c0-0.056,0.064-0.07,0.197-0.07
				c0.358,0,0.656,0.02,0.749,0.02c0.12,0,0.454-0.02,0.668-0.02c0.093,0,0.15,0.014,0.15,0.062c0,0.049-0.043,0.063-0.115,0.063
				c-0.071,0-0.219,0-0.347,0.085c-0.093,0.062-0.2,0.182-0.391,0.629c-0.279,0.659-0.47,1.035-0.853,1.896
				c-0.456,1.022-0.792,1.785-0.948,2.134c-0.186,0.406-0.227,0.519-0.326,0.519c-0.093,0-0.137-0.099-0.27-0.428L61.563,49.49z"/>
			<path style="fill:#FFFFFF;" d="M67.402,50.834c0-1.064,0-1.261-0.014-1.484c-0.014-0.237-0.071-0.349-0.306-0.398
				c-0.058-0.015-0.178-0.021-0.276-0.021c-0.079,0-0.121-0.014-0.121-0.063c0-0.049,0.049-0.062,0.156-0.062
				c0.191,0,0.399,0.006,0.574,0.006c0.188,0.008,0.349,0.014,0.448,0.014c0.229,0,1.644,0,1.78-0.006
				c0.134-0.014,0.249-0.029,0.306-0.043c0.036-0.007,0.079-0.027,0.115-0.027c0.033,0,0.041,0.027,0.041,0.062
				c0,0.05-0.035,0.133-0.057,0.456c-0.006,0.069-0.02,0.377-0.036,0.463c-0.008,0.034-0.021,0.074-0.069,0.074
				c-0.051,0-0.065-0.034-0.065-0.097c0-0.049-0.008-0.168-0.041-0.251c-0.052-0.126-0.122-0.211-0.478-0.251
				c-0.121-0.014-0.869-0.029-1.012-0.029c-0.035,0-0.049,0.022-0.049,0.069v1.771c0,0.049,0.008,0.077,0.049,0.077
				c0.158,0,0.976,0,1.14-0.013c0.169-0.014,0.276-0.035,0.341-0.105c0.049-0.055,0.077-0.092,0.115-0.092
				c0.028,0,0.048,0.014,0.048,0.056c0,0.042-0.034,0.153-0.055,0.511c-0.014,0.141-0.03,0.42-0.03,0.469
				c0,0.055,0,0.132-0.063,0.132c-0.049,0-0.065-0.027-0.065-0.062c-0.006-0.071-0.006-0.162-0.028-0.253
				c-0.035-0.14-0.136-0.245-0.396-0.272c-0.137-0.014-0.839-0.022-1.013-0.022c-0.033,0-0.042,0.029-0.042,0.069v0.554
				c0,0.239-0.005,0.882,0,1.085c0.014,0.484,0.128,0.587,0.854,0.587c0.185,0,0.484,0,0.671-0.083
				c0.182-0.085,0.268-0.231,0.317-0.518c0.016-0.077,0.03-0.106,0.079-0.106c0.058,0,0.058,0.057,0.058,0.128
				c0,0.16-0.058,0.635-0.093,0.776c-0.051,0.182-0.114,0.182-0.385,0.182c-0.533,0-0.924-0.014-1.23-0.021
				c-0.306-0.014-0.526-0.021-0.741-0.021c-0.077,0-0.233,0.007-0.405,0.007c-0.164,0.007-0.348,0.014-0.492,0.014
				c-0.09,0-0.14-0.021-0.14-0.069c0-0.036,0.027-0.058,0.112-0.058c0.106,0,0.194-0.014,0.257-0.027
				c0.142-0.03,0.178-0.182,0.205-0.386c0.036-0.294,0.036-0.846,0.036-1.49V50.834z"/>
			<path style="fill:#FFFFFF;" d="M71.934,50.834c0-1.064,0-1.261-0.014-1.484c-0.016-0.237-0.073-0.349-0.306-0.398
				c-0.058-0.015-0.178-0.021-0.276-0.021c-0.079,0-0.122-0.014-0.122-0.063c0-0.049,0.049-0.062,0.156-0.062
				c0.378,0,0.826,0.02,0.974,0.02c0.243,0,0.784-0.02,1.005-0.02c0.448,0,0.924,0.041,1.309,0.301
				c0.197,0.132,0.484,0.489,0.484,0.958c0,0.519-0.221,0.993-0.94,1.567c0.632,0.785,1.124,1.407,1.545,1.841
				c0.396,0.406,0.689,0.455,0.795,0.476c0.079,0.014,0.143,0.02,0.2,0.02c0.057,0,0.085,0.021,0.085,0.058
				c0,0.055-0.049,0.069-0.137,0.069h-0.675c-0.396,0-0.574-0.035-0.76-0.132c-0.306-0.163-0.574-0.491-0.974-1.03
				c-0.286-0.384-0.612-0.861-0.705-0.965c-0.036-0.042-0.079-0.049-0.128-0.049l-0.62-0.014c-0.033,0-0.055,0.014-0.055,0.055
				v0.099c0,0.651,0,1.203,0.036,1.497c0.02,0.204,0.065,0.356,0.276,0.386c0.106,0.013,0.264,0.027,0.349,0.027
				c0.057,0,0.085,0.021,0.085,0.058c0,0.049-0.049,0.069-0.142,0.069c-0.413,0-0.938-0.021-1.047-0.021
				c-0.134,0-0.583,0.021-0.867,0.021c-0.093,0-0.142-0.021-0.142-0.069c0-0.036,0.03-0.058,0.115-0.058
				c0.106,0,0.191-0.014,0.257-0.027c0.14-0.03,0.175-0.182,0.205-0.386c0.036-0.294,0.036-0.846,0.036-1.49V50.834z M72.773,51.387
				c0,0.077,0.014,0.104,0.063,0.125c0.15,0.05,0.364,0.071,0.542,0.071c0.284,0,0.377-0.028,0.505-0.118
				c0.213-0.155,0.421-0.476,0.421-1.05c0-0.993-0.671-1.282-1.09-1.282c-0.178,0-0.305,0.007-0.377,0.029
				c-0.049,0.014-0.063,0.043-0.063,0.098V51.387z"/>
			<path style="fill:#FFFFFF;" d="M76.841,54.009c-0.112-0.047-0.134-0.083-0.134-0.237c0-0.384,0.028-0.804,0.036-0.915
				c0.008-0.106,0.03-0.183,0.085-0.183c0.065,0,0.073,0.064,0.073,0.119c0,0.091,0.027,0.237,0.063,0.357
				c0.156,0.517,0.576,0.707,1.017,0.707c0.64,0,0.954-0.428,0.954-0.798c0-0.343-0.106-0.671-0.699-1.12l-0.326-0.252
				c-0.782-0.601-1.053-1.091-1.053-1.657c0-0.77,0.655-1.325,1.643-1.325c0.462,0,0.763,0.071,0.946,0.12
				c0.064,0.014,0.099,0.036,0.099,0.085c0,0.09-0.027,0.294-0.027,0.839c0,0.153-0.022,0.211-0.079,0.211
				c-0.047,0-0.069-0.043-0.069-0.127c0-0.064-0.037-0.281-0.185-0.463c-0.109-0.133-0.314-0.343-0.776-0.343
				c-0.526,0-0.848,0.301-0.848,0.721c0,0.323,0.164,0.567,0.757,1.008l0.197,0.147c0.855,0.65,1.167,1.119,1.167,1.783
				c0,0.407-0.156,0.889-0.668,1.219c-0.358,0.223-0.757,0.287-1.132,0.287C77.47,54.193,77.15,54.143,76.841,54.009z"/>
			<path style="fill:#FFFFFF;" d="M81.409,50.834c0-1.064,0-1.261-0.014-1.484c-0.014-0.237-0.087-0.356-0.242-0.39
				c-0.079-0.023-0.172-0.029-0.257-0.029c-0.071,0-0.114-0.014-0.114-0.069c0-0.043,0.057-0.056,0.172-0.056
				c0.268,0,0.717,0.02,0.924,0.02c0.178,0,0.598-0.02,0.867-0.02c0.093,0,0.15,0.014,0.15,0.056c0,0.055-0.042,0.069-0.113,0.069
				c-0.073,0-0.128,0.006-0.215,0.021c-0.191,0.035-0.247,0.154-0.263,0.398c-0.014,0.223-0.014,0.42-0.014,1.484v1.231
				c0,0.678,0,1.233,0.03,1.533c0.02,0.188,0.069,0.314,0.283,0.343c0.1,0.013,0.257,0.027,0.363,0.027
				c0.079,0,0.112,0.021,0.112,0.058c0,0.049-0.055,0.069-0.134,0.069c-0.469,0-0.918-0.021-1.108-0.021
				c-0.166,0-0.614,0.021-0.898,0.021c-0.093,0-0.141-0.021-0.141-0.069c0-0.036,0.028-0.058,0.113-0.058
				c0.106,0,0.191-0.014,0.257-0.027c0.14-0.03,0.183-0.149,0.205-0.35c0.036-0.293,0.036-0.848,0.036-1.526V50.834z"/>
			<path style="fill:#FFFFFF;" d="M85.607,49.197l-1.06,0.027c-0.412,0.014-0.584,0.049-0.689,0.203
				c-0.073,0.106-0.107,0.189-0.121,0.245c-0.016,0.058-0.037,0.084-0.079,0.084c-0.049,0-0.065-0.035-0.065-0.112
				c0-0.112,0.137-0.749,0.15-0.805c0.022-0.09,0.042-0.134,0.085-0.134c0.057,0,0.128,0.071,0.306,0.085
				c0.205,0.021,0.475,0.035,0.711,0.035h2.818c0.227,0,0.383-0.02,0.49-0.035c0.106-0.021,0.164-0.034,0.191-0.034
				c0.049,0,0.057,0.042,0.057,0.146c0,0.148-0.021,0.631-0.021,0.813c-0.006,0.069-0.022,0.112-0.063,0.112
				c-0.058,0-0.071-0.036-0.077-0.139l-0.008-0.077c-0.014-0.182-0.207-0.379-0.839-0.392l-0.897-0.021v2.868
				c0,0.644,0,1.196,0.036,1.498c0.022,0.197,0.063,0.349,0.279,0.378c0.099,0.013,0.254,0.027,0.361,0.027
				c0.079,0,0.114,0.021,0.114,0.058c0,0.049-0.057,0.069-0.136,0.069c-0.47,0-0.918-0.021-1.118-0.021
				c-0.162,0-0.61,0.021-0.894,0.021c-0.093,0-0.143-0.021-0.143-0.069c0-0.036,0.028-0.058,0.113-0.058
				c0.106,0,0.191-0.014,0.257-0.027c0.144-0.03,0.185-0.182,0.205-0.386c0.037-0.294,0.037-0.846,0.037-1.49V49.197z"/>
			<path style="fill:#FFFFFF;" d="M90.578,52.281c0-0.378-0.071-0.531-0.164-0.734c-0.049-0.112-1.003-1.652-1.252-2.015
				c-0.178-0.26-0.355-0.434-0.491-0.512c-0.091-0.048-0.211-0.09-0.299-0.09c-0.057,0-0.106-0.014-0.106-0.063
				c0-0.043,0.049-0.062,0.136-0.062c0.128,0,0.66,0.02,0.897,0.02c0.148,0,0.441-0.02,0.76-0.02c0.071,0,0.106,0.02,0.106,0.062
				c0,0.043-0.049,0.049-0.158,0.077c-0.061,0.015-0.099,0.071-0.099,0.126c0,0.057,0.038,0.14,0.085,0.238
				c0.101,0.209,1.096,1.897,1.211,2.091c0.071-0.167,0.968-1.707,1.066-1.925c0.071-0.153,0.099-0.271,0.099-0.362
				c0-0.071-0.028-0.147-0.148-0.176c-0.063-0.014-0.128-0.027-0.128-0.069c0-0.049,0.036-0.062,0.12-0.062
				c0.237,0,0.464,0.02,0.67,0.02c0.156,0,0.626-0.02,0.76-0.02c0.079,0,0.128,0.014,0.128,0.056c0,0.049-0.055,0.069-0.134,0.069
				c-0.071,0-0.207,0.029-0.314,0.085c-0.15,0.069-0.227,0.153-0.384,0.341c-0.235,0.281-1.23,1.925-1.359,2.226
				c-0.106,0.251-0.106,0.468-0.106,0.699v0.576c0,0.112,0,0.404,0.022,0.698c0.014,0.204,0.077,0.356,0.29,0.386
				c0.099,0.013,0.257,0.027,0.356,0.027c0.079,0,0.115,0.021,0.115,0.058c0,0.049-0.058,0.069-0.15,0.069
				c-0.448,0-0.896-0.021-1.088-0.021c-0.178,0-0.626,0.021-0.889,0.021c-0.1,0-0.156-0.014-0.156-0.069
				c0-0.036,0.033-0.058,0.112-0.058c0.101,0,0.186-0.014,0.251-0.027c0.14-0.03,0.206-0.182,0.219-0.386
				c0.022-0.294,0.022-0.586,0.022-0.698V52.281z"/>
		</g>
	</g>
</g>
<g id="SMU" style="display:none;">
	<g id="SMU_Logo_2_" style="display:inline;">
		<g>
			<g>
				<path style="fill:#1C296A;" d="M46.039,33.151c-0.428-0.205-0.46-0.321-0.46-1.114c0-1.467,0.121-2.64,0.153-3.11
					c0.031-0.324,0.093-0.469,0.247-0.469c0.185,0,0.213,0.09,0.213,0.326c0,0.261,0,0.673,0.095,1.082
					c0.463,2.171,2.494,2.995,4.56,2.995c2.954,0,4.401-2.026,4.401-3.904c0-2.024-0.892-3.198-3.541-5.279l-1.388-1.086
					c-3.264-2.55-4-4.369-4-6.362c0-3.14,2.462-5.28,6.375-5.28c1.2,0,2.093,0.116,2.863,0.291c0.584,0.119,0.833,0.148,1.08,0.148
					c0.245,0,0.306,0.058,0.306,0.203c0,0.149-0.125,1.117-0.125,3.112c0,0.469-0.062,0.674-0.213,0.674
					c-0.185,0-0.215-0.147-0.248-0.381c-0.03-0.351-0.4-1.468-0.4-1.468s-1.015-1.553-3.851-1.553c-2.123,0-3.785,1.26-3.785,3.402
					c0,1.672,0.861,2.67,3.756,4.925l0.861,0.651c3.637,2.725,4.499,4.544,4.499,6.89c0,1.203-0.494,3.432-2.62,4.869
					c-1.323,0.879-2.986,1.232-4.647,1.232C48.717,33.943,47.303,33.738,46.039,33.151z"/>
				<path style="fill:#1C296A;" d="M86.525,30.062c0.123,1.056,0.338,2.699,1.661,3.109c0.896,0.266,1.694,0.266,2.004,0.266
					c0.154,0,0.243,0.028,0.243,0.144c0,0.18-0.276,0.267-0.646,0.267c-0.676,0-4.005-0.087-5.144-0.179
					c-0.706-0.055-0.859-0.142-0.859-0.292c0-0.116,0.061-0.178,0.215-0.205c0.158-0.029,0.184-0.527,0.122-1.056l-1.481-15.134
					h-0.089l-7.545,15.25c-0.648,1.295-0.74,1.556-1.019,1.556c-0.213,0-0.369-0.293-0.954-1.35c-0.798-1.436-3.447-6.513-3.6-6.801
					c-0.278-0.529-3.73-7.57-4.068-8.362h-0.124l-1.23,13.61c-0.03,0.467-0.03,0.999-0.03,1.497c0,0.441,0.337,0.817,0.801,0.908
					c0.522,0.117,0.984,0.148,1.167,0.148c0.125,0,0.249,0.057,0.249,0.144c0,0.207-0.188,0.267-0.558,0.267
					c-1.139,0-2.617-0.087-2.865-0.087c-0.275,0-1.754,0.087-2.583,0.087c-0.308,0-0.527-0.06-0.527-0.267
					c0-0.087,0.158-0.144,0.312-0.144c0.245,0,0.46,0,0.92-0.089c1.019-0.177,1.112-1.319,1.234-2.435l2.218-19.125
					c0.062-0.322,0.152-0.527,0.338-0.527c0.185,0,0.31,0.116,0.464,0.439l9.421,18.45l9.054-18.421
					c0.122-0.264,0.247-0.469,0.464-0.469c0.216,0,0.308,0.232,0.369,0.791L86.525,30.062z"/>
				<path style="fill:#1C296A;" d="M91.995,19.865c0-4.577,0-5.399-0.063-6.337c-0.061-0.997-0.306-1.465-1.321-1.67
					c-0.249-0.061-0.772-0.088-1.049-0.088c-0.126,0-0.248-0.057-0.248-0.178c0-0.175,0.156-0.232,0.494-0.232
					c1.386,0,3.266,0.088,3.542,0.088c0.276,0,2.123-0.088,3.049-0.088c0.338,0,0.492,0.058,0.492,0.232
					c0,0.122-0.122,0.178-0.245,0.178c-0.217,0-0.403,0.027-0.772,0.088c-0.829,0.117-1.076,0.645-1.138,1.67
					c-0.061,0.938-0.061,1.761-0.061,6.337v4.105c0,4.225,0.985,6.043,2.308,7.246c1.511,1.348,2.897,1.614,4.651,1.614
					c1.88,0,3.729-0.851,4.834-2.113c1.418-1.672,1.787-4.167,1.787-7.185v-3.667c0-4.577,0-5.399-0.062-6.337
					c-0.063-0.997-0.308-1.465-1.325-1.67c-0.245-0.061-0.769-0.088-1.045-0.088c-0.125,0-0.247-0.057-0.247-0.178
					c0-0.175,0.154-0.232,0.492-0.232c1.388,0,3.078,0.088,3.264,0.088c0.216,0,1.667-0.088,2.587-0.088
					c0.338,0,0.494,0.058,0.494,0.232c0,0.122-0.124,0.178-0.245,0.178c-0.217,0-0.401,0-0.772,0.088
					c-0.831,0.145-1.076,0.645-1.139,1.67c-0.059,0.938-0.059,1.761-0.059,6.337v3.138c0,3.169-0.373,6.688-2.834,8.771
					c-2.219,1.877-4.528,2.169-6.349,2.169c-1.044,0-4.155-0.116-6.34-2.083c-1.511-1.375-2.68-3.428-2.68-7.711V19.865z"/>
			</g>
			<g>
				<polygon style="fill:#1C296A;" points="28.904,33.871 22.739,28.232 22.739,28.225 22.735,28.227 22.733,28.225 22.733,28.232 
					16.564,33.871 22.729,31.881 22.741,31.881 				"/>
				<g>
					<polygon style="fill:#1C296A;" points="22.739,28.217 24.771,22.638 29.305,22.091 					"/>
					<polygon style="fill:#1C296A;" points="33.893,23.912 29.307,22.091 29.177,14.59 					"/>
					<polygon style="fill:#1C296A;" points="30.299,11.214 34.882,11.21 29.181,14.596 					"/>
				</g>
				<polygon style="fill:#9F7E45;" points="22.733,28.217 20.702,22.638 16.165,22.091 				"/>
				<polygon style="fill:#9F7E45;" points="11.576,23.912 16.165,22.091 16.293,14.59 				"/>
				<polygon style="fill:#9F7E45;" points="15.17,11.214 10.591,11.21 16.293,14.596 				"/>
				<path style="fill:#9F7E45;" d="M38.445,0c-4.09,3.851-6.898,2.16-8.343,1.849c-0.76-0.305-1.714-0.488-2.749-0.488
					c-2.498,0-4.524,1.065-4.524,2.376c0,0.475,0.268,0.916,0.725,1.284c0.468-0.434,1.192-0.784,2.056-0.987l0,0
					c0.883-0.153,2.375-0.271,4.155,0.178c0.158,0.045,0.33,0.095,0.513,0.139l0,0c0.215,0.068,0.407,0.112,0.575,0.144
					c0.077,0.017,0.14,0.033,0.221,0.045c4.629,1.025,7.407-1.296,7.407-1.296L38.445,0z"/>
				<path style="fill:#1C296A;" d="M22.325,40.459c0,0-2.577-0.008-3.841-0.624c-2.287-1.102-2.724-4.494-3.011-7.294
					c-0.032-0.308-2.161-0.979-3.173-1.907c-1.647-1.506-1.395-6.203-1.395-6.503c0-0.304-2.666-1.612-2.666-4.519
					c0-1.228,0.023-8.102,0.023-8.102c-1.738-2.154-2.844-2.184-4.23-1.75c-1.722,0.551-2.218,1.824-4.013,2.079
					C0.02,12.234,0,32.721,0,32.721c0,6.312,1.159,10.673,7.626,15.525c5.997,4.497,10.642,4.386,14.692,11.754
					C22.388,60.116,22.344,40.459,22.325,40.459z"/>
			</g>
		</g>
		<g>
			<path style="fill:#1C296A;" d="M45.707,45.661c-0.114-0.049-0.136-0.085-0.136-0.239c0-0.385,0.027-0.805,0.036-0.916
				c0.008-0.106,0.03-0.181,0.087-0.181c0.063,0,0.071,0.061,0.071,0.117c0,0.091,0.03,0.238,0.063,0.358
				c0.156,0.518,0.576,0.707,1.017,0.707c0.64,0,0.954-0.428,0.954-0.799c0-0.343-0.107-0.671-0.697-1.119l-0.328-0.251
				c-0.781-0.602-1.052-1.092-1.052-1.659c0-0.77,0.655-1.322,1.643-1.322c0.462,0,0.762,0.069,0.946,0.119
				c0.065,0.014,0.101,0.034,0.101,0.085c0,0.09-0.028,0.293-0.028,0.839c0,0.154-0.021,0.21-0.08,0.21
				c-0.048,0-0.069-0.044-0.069-0.128c0-0.062-0.038-0.28-0.186-0.462c-0.106-0.133-0.314-0.343-0.775-0.343
				c-0.526,0-0.848,0.302-0.848,0.722c0,0.322,0.166,0.566,0.757,1.007l0.197,0.147c0.855,0.651,1.167,1.12,1.167,1.785
				c0,0.406-0.156,0.889-0.67,1.217c-0.355,0.223-0.752,0.288-1.129,0.288C46.334,45.843,46.013,45.794,45.707,45.661z"/>
			<path style="fill:#1C296A;" d="M50.275,42.484c0-1.063,0-1.26-0.014-1.483c-0.016-0.239-0.087-0.358-0.243-0.393
				c-0.079-0.021-0.172-0.028-0.257-0.028c-0.071,0-0.115-0.014-0.115-0.071c0-0.041,0.058-0.055,0.172-0.055
				c0.268,0,0.716,0.021,0.924,0.021c0.178,0,0.598-0.021,0.869-0.021c0.091,0,0.148,0.014,0.148,0.055
				c0,0.057-0.041,0.071-0.112,0.071c-0.071,0-0.128,0.007-0.213,0.021c-0.193,0.036-0.248,0.156-0.264,0.4
				c-0.014,0.223-0.014,0.419-0.014,1.483v1.231c0,0.68,0,1.233,0.03,1.533c0.021,0.188,0.069,0.315,0.284,0.343
				c0.099,0.014,0.255,0.029,0.362,0.029c0.079,0,0.115,0.02,0.115,0.055c0,0.051-0.058,0.071-0.137,0.071
				c-0.468,0-0.918-0.02-1.11-0.02c-0.164,0-0.612,0.02-0.895,0.02c-0.093,0-0.142-0.02-0.142-0.071
				c0-0.034,0.028-0.055,0.112-0.055c0.107,0,0.192-0.014,0.257-0.029c0.143-0.027,0.186-0.146,0.206-0.351
				c0.037-0.292,0.037-0.845,0.037-1.524V42.484z"/>
			<path style="fill:#1C296A;" d="M53.922,44.793c0.016,0.546,0.107,0.728,0.251,0.775c0.12,0.044,0.254,0.051,0.367,0.051
				c0.081,0,0.122,0.014,0.122,0.055c0,0.057-0.063,0.071-0.163,0.071c-0.463,0-0.747-0.02-0.883-0.02
				c-0.063,0-0.396,0.02-0.766,0.02c-0.095,0-0.158-0.006-0.158-0.071c0-0.041,0.043-0.055,0.112-0.055
				c0.095,0,0.221-0.007,0.322-0.036c0.185-0.055,0.213-0.259,0.221-0.868l0.063-4.141c0-0.14,0.022-0.239,0.091-0.239
				c0.079,0,0.144,0.091,0.264,0.217c0.085,0.091,1.167,1.231,2.206,2.247c0.484,0.475,1.444,1.482,1.564,1.596h0.036l-0.071-3.143
				c-0.008-0.426-0.071-0.559-0.241-0.629c-0.109-0.043-0.276-0.043-0.377-0.043c-0.087,0-0.115-0.02-0.115-0.062
				c0-0.056,0.079-0.063,0.185-0.063c0.37,0,0.711,0.021,0.861,0.021c0.077,0,0.348-0.021,0.697-0.021
				c0.093,0,0.164,0.007,0.164,0.063c0,0.042-0.044,0.062-0.131,0.062c-0.069,0-0.126,0-0.213,0.021
				c-0.197,0.056-0.254,0.204-0.263,0.595l-0.079,4.416c0,0.153-0.027,0.217-0.09,0.217c-0.077,0-0.164-0.077-0.243-0.156
				c-0.447-0.419-1.359-1.335-2.097-2.056c-0.776-0.756-1.566-1.631-1.694-1.764h-0.02L53.922,44.793z"/>
			<path style="fill:#1C296A;" d="M64.581,45.276c0,0.188-0.008,0.202-0.095,0.251c-0.463,0.237-1.158,0.315-1.712,0.315
				c-1.742,0-3.286-0.812-3.286-2.744c0-1.119,0.591-1.903,1.237-2.288c0.683-0.405,1.317-0.454,1.913-0.454
				c0.492,0,1.118,0.084,1.26,0.112c0.15,0.027,0.399,0.071,0.561,0.077c0.087,0.007,0.101,0.035,0.101,0.084
				c0,0.077-0.049,0.273-0.049,1.147c0,0.112-0.024,0.148-0.079,0.148c-0.049,0-0.065-0.036-0.071-0.092
				c-0.021-0.162-0.055-0.385-0.241-0.581c-0.215-0.223-0.784-0.545-1.586-0.545c-0.393,0-0.912,0.028-1.41,0.434
				c-0.399,0.329-0.655,0.854-0.655,1.715c0,1.505,0.975,2.63,2.476,2.63c0.186,0,0.434,0,0.605-0.076
				c0.106-0.05,0.136-0.141,0.136-0.26v-0.657c0-0.349,0-0.615-0.008-0.825c-0.008-0.239-0.071-0.351-0.305-0.4
				c-0.059-0.013-0.179-0.02-0.278-0.02c-0.065,0-0.107-0.014-0.107-0.057c0-0.055,0.049-0.069,0.148-0.069
				c0.371,0,0.82,0.021,1.033,0.021c0.219,0,0.598-0.021,0.832-0.021c0.093,0,0.144,0.014,0.144,0.069
				c0,0.043-0.044,0.057-0.093,0.057c-0.057,0-0.109,0.007-0.193,0.02c-0.192,0.035-0.263,0.154-0.271,0.4
				c-0.005,0.21-0.005,0.488-0.005,0.839V45.276z"/>
			<path style="fill:#1C296A;" d="M66.885,43.918c-0.036,0-0.049,0.014-0.063,0.057l-0.385,1.001
				c-0.071,0.173-0.107,0.343-0.107,0.426c0,0.126,0.063,0.217,0.285,0.217h0.106c0.085,0,0.106,0.014,0.106,0.055
				c0,0.057-0.041,0.071-0.122,0.071c-0.227,0-0.531-0.02-0.752-0.02c-0.079,0-0.469,0.02-0.839,0.02
				c-0.093,0-0.137-0.014-0.137-0.071c0-0.041,0.03-0.055,0.087-0.055c0.063,0,0.163-0.007,0.219-0.014
				c0.328-0.042,0.463-0.28,0.605-0.629l1.785-4.395c0.087-0.203,0.128-0.279,0.2-0.279c0.065,0,0.106,0.063,0.179,0.225
				c0.17,0.384,1.308,3.238,1.764,4.302c0.27,0.629,0.476,0.728,0.626,0.762c0.107,0.022,0.213,0.029,0.299,0.029
				c0.057,0,0.093,0.008,0.093,0.055c0,0.057-0.063,0.071-0.327,0.071c-0.257,0-0.775,0-1.343-0.014
				c-0.128-0.006-0.216-0.006-0.216-0.057c0-0.041,0.03-0.055,0.101-0.062c0.049-0.014,0.099-0.077,0.063-0.161l-0.569-1.484
				c-0.014-0.035-0.036-0.049-0.071-0.049H66.885z M68.336,43.569c0.033,0,0.041-0.022,0.033-0.043l-0.638-1.729
				c-0.008-0.027-0.014-0.062-0.037-0.062c-0.022,0-0.036,0.036-0.042,0.062L67,43.519c-0.008,0.028,0,0.05,0.027,0.05H68.336z"/>
			<path style="fill:#1C296A;" d="M71.614,42.484c0-1.063,0-1.26-0.014-1.483c-0.014-0.239-0.071-0.35-0.306-0.4
				c-0.058-0.014-0.178-0.021-0.276-0.021c-0.079,0-0.121-0.014-0.121-0.062c0-0.049,0.047-0.063,0.154-0.063
				c0.377,0,0.826,0.021,1.027,0.021c0.29,0,0.703-0.021,1.031-0.021c0.889,0,1.208,0.294,1.323,0.399
				c0.156,0.147,0.356,0.462,0.356,0.832c0,0.993-0.741,1.694-1.75,1.694c-0.035,0-0.114,0-0.15-0.008
				c-0.036-0.007-0.085-0.014-0.085-0.063c0-0.055,0.049-0.077,0.2-0.077c0.396,0,0.953-0.441,0.953-1.154
				c0-0.231-0.023-0.701-0.42-1.05c-0.257-0.231-0.549-0.272-0.713-0.272c-0.106,0-0.211,0.006-0.276,0.027
				c-0.036,0.014-0.057,0.056-0.057,0.132v2.799c0,0.645,0,1.197,0.035,1.498c0.022,0.197,0.065,0.35,0.279,0.377
				c0.099,0.014,0.257,0.029,0.363,0.029c0.077,0,0.113,0.02,0.113,0.055c0,0.051-0.058,0.071-0.134,0.071
				c-0.47,0-0.918-0.02-1.104-0.02c-0.163,0-0.612,0.02-0.896,0.02c-0.093,0-0.141-0.02-0.141-0.071
				c0-0.034,0.028-0.055,0.113-0.055c0.106,0,0.191-0.014,0.257-0.029c0.142-0.027,0.175-0.181,0.205-0.385
				c0.036-0.293,0.036-0.845,0.036-1.49V42.484z"/>
			<path style="fill:#1C296A;" d="M75.534,43.099c0-1.197,0.804-2.742,2.939-2.742c1.771,0,2.873,1.014,2.873,2.617
				c0,1.603-1.138,2.869-2.945,2.869C76.36,45.843,75.534,44.338,75.534,43.099z M80.35,43.232c0-1.568-0.918-2.54-2.085-2.54
				c-0.818,0-1.75,0.447-1.75,2.189c0,1.457,0.817,2.612,2.184,2.612C79.198,45.493,80.35,45.254,80.35,43.232z"/>
			<path style="fill:#1C296A;" d="M82.871,42.484c0-1.063,0-1.26-0.014-1.483c-0.016-0.239-0.074-0.35-0.308-0.4
				c-0.055-0.014-0.175-0.021-0.276-0.021c-0.079,0-0.121-0.014-0.121-0.062c0-0.049,0.049-0.063,0.156-0.063
				c0.377,0,0.826,0.021,0.974,0.021c0.242,0,0.784-0.021,1.003-0.021c0.449,0,0.927,0.041,1.309,0.302
				c0.2,0.131,0.484,0.489,0.484,0.957c0,0.517-0.219,0.994-0.94,1.568c0.633,0.782,1.126,1.406,1.544,1.84
				c0.399,0.406,0.691,0.454,0.798,0.475c0.079,0.014,0.142,0.021,0.2,0.021c0.055,0,0.085,0.02,0.085,0.055
				c0,0.057-0.049,0.071-0.137,0.071h-0.675c-0.399,0-0.575-0.035-0.76-0.132c-0.306-0.161-0.576-0.49-0.975-1.029
				c-0.285-0.385-0.611-0.861-0.703-0.965c-0.036-0.043-0.079-0.049-0.128-0.049l-0.62-0.014c-0.036,0-0.055,0.014-0.055,0.054
				v0.099c0,0.651,0,1.203,0.033,1.496c0.022,0.204,0.065,0.358,0.279,0.385c0.106,0.014,0.262,0.029,0.349,0.029
				c0.055,0,0.085,0.02,0.085,0.055c0,0.051-0.049,0.071-0.144,0.071c-0.411,0-0.938-0.02-1.045-0.02
				c-0.134,0-0.583,0.02-0.867,0.02c-0.093,0-0.142-0.02-0.142-0.071c0-0.034,0.03-0.055,0.115-0.055
				c0.106,0,0.189-0.014,0.254-0.029c0.142-0.027,0.178-0.181,0.207-0.385c0.036-0.293,0.036-0.845,0.036-1.49V42.484z
				 M83.71,43.037c0,0.075,0.014,0.104,0.063,0.126c0.15,0.048,0.363,0.069,0.539,0.069c0.286,0,0.377-0.028,0.505-0.12
				c0.213-0.154,0.421-0.475,0.421-1.048c0-0.993-0.669-1.28-1.088-1.28c-0.178,0-0.306,0.008-0.378,0.027
				c-0.049,0.014-0.063,0.043-0.063,0.098V43.037z"/>
			<path style="fill:#1C296A;" d="M88.275,42.484c0-1.063,0-1.26-0.014-1.483c-0.014-0.239-0.071-0.35-0.306-0.4
				c-0.058-0.014-0.178-0.021-0.276-0.021c-0.079,0-0.121-0.014-0.121-0.062c0-0.049,0.049-0.063,0.156-0.063
				c0.191,0,0.396,0.007,0.574,0.007c0.186,0.007,0.349,0.014,0.448,0.014c0.229,0,1.645,0,1.78-0.007
				c0.134-0.014,0.249-0.028,0.306-0.043c0.036-0.006,0.077-0.027,0.112-0.027s0.043,0.027,0.043,0.063
				c0,0.048-0.035,0.133-0.057,0.454c-0.008,0.07-0.022,0.378-0.036,0.462c-0.006,0.036-0.02,0.077-0.071,0.077
				c-0.049,0-0.064-0.035-0.064-0.098c0-0.049-0.005-0.167-0.043-0.252c-0.049-0.125-0.12-0.21-0.475-0.251
				c-0.123-0.014-0.867-0.028-1.012-0.028c-0.035,0-0.049,0.021-0.049,0.069v1.77c0,0.049,0.008,0.077,0.049,0.077
				c0.158,0,0.976,0,1.14-0.013c0.169-0.015,0.276-0.035,0.339-0.106c0.051-0.056,0.079-0.091,0.115-0.091
				c0.03,0,0.051,0.014,0.051,0.056c0,0.042-0.037,0.153-0.059,0.51c-0.014,0.141-0.027,0.42-0.027,0.47
				c0,0.055,0,0.132-0.063,0.132c-0.049,0-0.065-0.027-0.065-0.063c-0.006-0.069-0.006-0.16-0.028-0.252
				c-0.035-0.139-0.134-0.245-0.399-0.273c-0.136-0.014-0.839-0.02-1.009-0.02c-0.036,0-0.044,0.028-0.044,0.071v0.551
				c0,0.239-0.008,0.882,0,1.085c0.014,0.482,0.128,0.587,0.855,0.587c0.184,0,0.482,0,0.668-0.084
				c0.185-0.084,0.27-0.231,0.32-0.519c0.014-0.077,0.028-0.104,0.079-0.104c0.058,0,0.058,0.056,0.058,0.125
				c0,0.162-0.058,0.638-0.095,0.777c-0.049,0.182-0.112,0.182-0.384,0.182c-0.533,0-0.924-0.013-1.23-0.021
				c-0.306-0.014-0.528-0.02-0.741-0.02c-0.077,0-0.235,0.006-0.405,0.006c-0.164,0.008-0.35,0.014-0.492,0.014
				c-0.09,0-0.14-0.02-0.14-0.071c0-0.034,0.027-0.055,0.112-0.055c0.106,0,0.191-0.014,0.257-0.029
				c0.142-0.027,0.175-0.181,0.205-0.385c0.036-0.293,0.036-0.845,0.036-1.49V42.484z"/>
			<path style="fill:#1C296A;" d="M95.24,40.483c0.02-0.119,0.063-0.182,0.121-0.182c0.057,0,0.099,0.034,0.191,0.217l1.941,3.946
				l1.935-3.995c0.049-0.112,0.093-0.168,0.158-0.168c0.063,0,0.106,0.069,0.128,0.217l0.646,4.324
				c0.065,0.44,0.136,0.643,0.348,0.706c0.207,0.065,0.349,0.071,0.442,0.071c0.063,0,0.112,0.008,0.112,0.048
				c0,0.058-0.085,0.077-0.184,0.077c-0.178,0-1.159-0.02-1.443-0.043c-0.164-0.014-0.207-0.035-0.207-0.075
				c0-0.036,0.03-0.058,0.079-0.079c0.043-0.013,0.065-0.103,0.036-0.3l-0.427-3.078h-0.027l-1.552,3.176
				c-0.164,0.328-0.197,0.393-0.263,0.393s-0.136-0.141-0.248-0.351c-0.17-0.321-0.733-1.391-0.82-1.587
				c-0.064-0.148-0.49-1.03-0.739-1.554H95.44l-0.371,2.785c-0.014,0.125-0.022,0.216-0.022,0.328c0,0.134,0.093,0.196,0.213,0.224
				c0.128,0.029,0.229,0.036,0.3,0.036c0.058,0,0.107,0.014,0.107,0.048c0,0.064-0.063,0.077-0.172,0.077
				c-0.299,0-0.618-0.02-0.747-0.02c-0.134,0-0.476,0.02-0.705,0.02c-0.071,0-0.127-0.014-0.127-0.077
				c0-0.034,0.042-0.048,0.112-0.048c0.058,0,0.107,0,0.213-0.021c0.2-0.043,0.257-0.316,0.292-0.553L95.24,40.483z"/>
			<path style="fill:#1C296A;" d="M102.786,43.918c-0.038,0-0.052,0.014-0.065,0.057l-0.383,1.001
				c-0.074,0.173-0.107,0.343-0.107,0.426c0,0.126,0.063,0.217,0.285,0.217h0.104c0.087,0,0.109,0.014,0.109,0.055
				c0,0.057-0.043,0.071-0.122,0.071c-0.225,0-0.533-0.02-0.752-0.02c-0.079,0-0.47,0.02-0.839,0.02
				c-0.093,0-0.137-0.014-0.137-0.071c0-0.041,0.03-0.055,0.085-0.055c0.065,0,0.164-0.007,0.221-0.014
				c0.328-0.042,0.463-0.28,0.605-0.629l1.785-4.395c0.087-0.203,0.128-0.279,0.201-0.279c0.064,0,0.107,0.063,0.176,0.225
				c0.172,0.384,1.309,3.238,1.764,4.302c0.272,0.629,0.478,0.728,0.627,0.762c0.107,0.022,0.213,0.029,0.299,0.029
				c0.057,0,0.093,0.008,0.093,0.055c0,0.057-0.065,0.071-0.327,0.071c-0.257,0-0.775,0-1.343-0.014
				c-0.128-0.006-0.216-0.006-0.216-0.057c0-0.041,0.028-0.055,0.101-0.062c0.049-0.014,0.099-0.077,0.063-0.161l-0.569-1.484
				c-0.014-0.035-0.037-0.049-0.071-0.049H102.786z M104.237,43.569c0.036,0,0.041-0.022,0.036-0.043l-0.64-1.729
				c-0.008-0.027-0.016-0.062-0.037-0.062c-0.022,0-0.036,0.036-0.043,0.062l-0.654,1.721c-0.008,0.028,0,0.05,0.03,0.05H104.237z"
				/>
			<path style="fill:#1C296A;" d="M107.914,44.793c0.014,0.546,0.106,0.728,0.249,0.775c0.12,0.044,0.254,0.051,0.369,0.051
				c0.079,0,0.12,0.014,0.12,0.055c0,0.057-0.063,0.071-0.163,0.071c-0.463,0-0.747-0.02-0.881-0.02c-0.065,0-0.399,0.02-0.768,0.02
				c-0.093,0-0.156-0.006-0.156-0.071c0-0.041,0.042-0.055,0.112-0.055c0.093,0,0.222-0.007,0.321-0.036
				c0.185-0.055,0.215-0.259,0.221-0.868l0.065-4.141c0-0.14,0.02-0.239,0.09-0.239c0.077,0,0.144,0.091,0.265,0.217
				c0.084,0.091,1.165,1.231,2.203,2.247c0.484,0.475,1.445,1.482,1.566,1.596h0.036l-0.073-3.143
				c-0.006-0.426-0.069-0.559-0.242-0.629c-0.106-0.043-0.276-0.043-0.377-0.043c-0.085,0-0.115-0.02-0.115-0.062
				c0-0.056,0.081-0.063,0.188-0.063c0.369,0,0.711,0.021,0.859,0.021c0.079,0,0.349-0.021,0.697-0.021
				c0.093,0,0.164,0.007,0.164,0.063c0,0.042-0.042,0.062-0.128,0.062c-0.071,0-0.128,0-0.213,0.021
				c-0.197,0.056-0.257,0.204-0.265,0.595l-0.077,4.416c0,0.153-0.03,0.217-0.091,0.217c-0.079,0-0.166-0.077-0.242-0.156
				c-0.449-0.419-1.359-1.335-2.098-2.056c-0.778-0.756-1.565-1.631-1.694-1.764h-0.022L107.914,44.793z"/>
			<path style="fill:#1C296A;" d="M114.571,43.918c-0.036,0-0.049,0.014-0.064,0.057l-0.383,1.001
				c-0.073,0.173-0.106,0.343-0.106,0.426c0,0.126,0.063,0.217,0.282,0.217h0.109c0.085,0,0.107,0.014,0.107,0.055
				c0,0.057-0.043,0.071-0.121,0.071c-0.229,0-0.535-0.02-0.754-0.02c-0.079,0-0.47,0.02-0.842,0.02
				c-0.09,0-0.134-0.014-0.134-0.071c0-0.041,0.03-0.055,0.084-0.055c0.065,0,0.164-0.007,0.222-0.014
				c0.327-0.042,0.462-0.28,0.604-0.629l1.786-4.395c0.084-0.203,0.128-0.279,0.199-0.279c0.063,0,0.107,0.063,0.178,0.225
				c0.172,0.384,1.309,3.238,1.764,4.302c0.27,0.629,0.478,0.728,0.628,0.762c0.106,0.022,0.213,0.029,0.298,0.029
				c0.058,0,0.093,0.008,0.093,0.055c0,0.057-0.065,0.071-0.33,0.071c-0.254,0-0.774,0-1.343-0.014
				c-0.126-0.006-0.213-0.006-0.213-0.057c0-0.041,0.027-0.055,0.1-0.062c0.048-0.014,0.099-0.077,0.063-0.161l-0.568-1.484
				c-0.016-0.035-0.036-0.049-0.071-0.049H114.571z M116.023,43.569c0.035,0,0.041-0.022,0.035-0.043l-0.64-1.729
				c-0.006-0.027-0.014-0.062-0.036-0.062c-0.021,0-0.036,0.036-0.041,0.062l-0.656,1.721c-0.008,0.028,0,0.05,0.028,0.05H116.023z"
				/>
			<path style="fill:#1C296A;" d="M123.621,45.276c0,0.188-0.01,0.202-0.093,0.251c-0.462,0.237-1.159,0.315-1.716,0.315
				c-1.744,0-3.286-0.812-3.286-2.744c0-1.119,0.591-1.903,1.239-2.288c0.683-0.405,1.317-0.454,1.915-0.454
				c0.489,0,1.114,0.084,1.258,0.112c0.15,0.027,0.399,0.071,0.561,0.077c0.085,0.007,0.099,0.035,0.099,0.084
				c0,0.077-0.049,0.273-0.049,1.147c0,0.112-0.02,0.148-0.077,0.148c-0.049,0-0.065-0.036-0.071-0.092
				c-0.024-0.162-0.057-0.385-0.243-0.581c-0.213-0.223-0.782-0.545-1.585-0.545c-0.391,0-0.911,0.028-1.408,0.434
				c-0.399,0.329-0.654,0.854-0.654,1.715c0,1.505,0.974,2.63,2.475,2.63c0.185,0,0.434,0,0.605-0.076
				c0.106-0.05,0.134-0.141,0.134-0.26v-0.657c0-0.349,0-0.615-0.005-0.825c-0.008-0.239-0.069-0.351-0.308-0.4
				c-0.055-0.013-0.175-0.02-0.276-0.02c-0.063,0-0.106-0.014-0.106-0.057c0-0.055,0.049-0.069,0.15-0.069
				c0.371,0,0.818,0.021,1.031,0.021c0.222,0,0.598-0.021,0.834-0.021c0.093,0,0.142,0.014,0.142,0.069
				c0,0.043-0.043,0.057-0.093,0.057c-0.058,0-0.107,0.007-0.192,0.02c-0.193,0.035-0.264,0.154-0.27,0.4
				c-0.006,0.21-0.006,0.488-0.006,0.839V45.276z"/>
			<path style="fill:#1C296A;" d="M125.64,42.484c0-1.063,0-1.26-0.014-1.483c-0.014-0.239-0.069-0.35-0.306-0.4
				c-0.057-0.014-0.178-0.021-0.276-0.021c-0.079,0-0.12-0.014-0.12-0.062c0-0.049,0.049-0.063,0.156-0.063
				c0.191,0,0.397,0.007,0.575,0.007c0.188,0.007,0.349,0.014,0.448,0.014c0.229,0,1.643,0,1.78-0.007
				c0.136-0.014,0.248-0.028,0.306-0.043c0.035-0.006,0.079-0.027,0.112-0.027c0.037,0,0.043,0.027,0.043,0.063
				c0,0.048-0.037,0.133-0.055,0.454c-0.008,0.07-0.021,0.378-0.037,0.462c-0.006,0.036-0.022,0.077-0.071,0.077
				c-0.049,0-0.063-0.035-0.063-0.098c0-0.049-0.008-0.167-0.043-0.252c-0.049-0.125-0.118-0.21-0.478-0.251
				c-0.118-0.014-0.867-0.028-1.009-0.028c-0.033,0-0.049,0.021-0.049,0.069v1.77c0,0.049,0.008,0.077,0.049,0.077
				c0.156,0,0.975,0,1.139-0.013c0.17-0.015,0.276-0.035,0.342-0.106c0.049-0.056,0.077-0.091,0.112-0.091
				c0.03,0,0.049,0.014,0.049,0.056c0,0.042-0.036,0.153-0.055,0.51c-0.014,0.141-0.03,0.42-0.03,0.47c0,0.055,0,0.132-0.065,0.132
				c-0.049,0-0.062-0.027-0.062-0.063c-0.008-0.069-0.008-0.16-0.03-0.252c-0.033-0.139-0.134-0.245-0.399-0.273
				c-0.134-0.014-0.839-0.02-1.011-0.02c-0.034,0-0.042,0.028-0.042,0.071v0.551c0,0.239-0.006,0.882,0,1.085
				c0.016,0.482,0.128,0.587,0.853,0.587c0.188,0,0.484,0,0.671-0.084c0.184-0.084,0.269-0.231,0.318-0.519
				c0.016-0.077,0.027-0.104,0.079-0.104c0.055,0,0.055,0.056,0.055,0.125c0,0.162-0.055,0.638-0.093,0.777
				c-0.047,0.182-0.114,0.182-0.383,0.182c-0.533,0-0.926-0.013-1.23-0.021c-0.304-0.014-0.525-0.02-0.738-0.02
				c-0.079,0-0.237,0.006-0.409,0.006c-0.163,0.008-0.346,0.014-0.49,0.014c-0.091,0-0.141-0.02-0.141-0.071
				c0-0.034,0.028-0.055,0.112-0.055c0.109,0,0.192-0.014,0.257-0.029c0.143-0.027,0.178-0.181,0.206-0.385
				c0.036-0.293,0.036-0.845,0.036-1.49V42.484z"/>
			<path style="fill:#1C296A;" d="M130.434,40.483c0.022-0.119,0.065-0.182,0.123-0.182c0.057,0,0.097,0.034,0.189,0.217
				l1.944,3.946l1.935-3.995c0.049-0.112,0.093-0.168,0.156-0.168c0.065,0,0.106,0.069,0.126,0.217l0.648,4.324
				c0.065,0.44,0.138,0.643,0.349,0.706c0.206,0.065,0.35,0.071,0.443,0.071c0.063,0,0.112,0.008,0.112,0.048
				c0,0.058-0.087,0.077-0.184,0.077c-0.179,0-1.161-0.02-1.445-0.043c-0.162-0.014-0.205-0.035-0.205-0.075
				c0-0.036,0.027-0.058,0.077-0.079c0.043-0.013,0.065-0.103,0.036-0.3l-0.427-3.078h-0.026l-1.552,3.176
				c-0.166,0.328-0.201,0.393-0.265,0.393c-0.063,0-0.134-0.141-0.248-0.351c-0.17-0.321-0.733-1.391-0.818-1.587
				c-0.065-0.148-0.491-1.03-0.738-1.554h-0.032l-0.367,2.785c-0.016,0.125-0.022,0.216-0.022,0.328
				c0,0.134,0.093,0.196,0.213,0.224c0.126,0.029,0.227,0.036,0.299,0.036c0.057,0,0.109,0.014,0.109,0.048
				c0,0.064-0.068,0.077-0.172,0.077c-0.298,0-0.617-0.02-0.746-0.02c-0.137,0-0.476,0.02-0.706,0.02
				c-0.071,0-0.128-0.014-0.128-0.077c0-0.034,0.044-0.048,0.113-0.048c0.057,0,0.106,0,0.215-0.021
				c0.2-0.043,0.257-0.316,0.29-0.553L130.434,40.483z"/>
			<path style="fill:#1C296A;" d="M137.627,42.484c0-1.063,0-1.26-0.016-1.483c-0.012-0.239-0.069-0.35-0.305-0.4
				c-0.057-0.014-0.179-0.021-0.278-0.021c-0.077,0-0.122-0.014-0.122-0.062c0-0.049,0.051-0.063,0.158-0.063
				c0.191,0,0.399,0.007,0.577,0.007c0.184,0.007,0.347,0.014,0.448,0.014c0.227,0,1.641,0,1.78-0.007
				c0.134-0.014,0.247-0.028,0.306-0.043c0.033-0.006,0.077-0.027,0.112-0.027c0.033,0,0.043,0.027,0.043,0.063
				c0,0.048-0.036,0.133-0.059,0.454c-0.006,0.07-0.02,0.378-0.033,0.462c-0.008,0.036-0.022,0.077-0.071,0.077
				c-0.051,0-0.065-0.035-0.065-0.098c0-0.049-0.008-0.167-0.041-0.252c-0.049-0.125-0.122-0.21-0.478-0.251
				c-0.123-0.014-0.867-0.028-1.009-0.028c-0.037,0-0.049,0.021-0.049,0.069v1.77c0,0.049,0.006,0.077,0.049,0.077
				c0.156,0,0.975,0,1.138-0.013c0.172-0.015,0.276-0.035,0.341-0.106c0.049-0.056,0.079-0.091,0.115-0.091
				c0.028,0,0.049,0.014,0.049,0.056c0,0.042-0.033,0.153-0.057,0.51c-0.014,0.141-0.028,0.42-0.028,0.47
				c0,0.055,0,0.132-0.065,0.132c-0.049,0-0.064-0.027-0.064-0.063c-0.008-0.069-0.008-0.16-0.027-0.252
				c-0.037-0.139-0.138-0.245-0.399-0.273c-0.134-0.014-0.839-0.02-1.009-0.02c-0.037,0-0.043,0.028-0.043,0.071v0.551
				c0,0.239-0.006,0.882,0,1.085c0.012,0.482,0.128,0.587,0.853,0.587c0.184,0,0.484,0,0.668-0.084
				c0.185-0.084,0.27-0.231,0.322-0.519c0.011-0.077,0.027-0.104,0.077-0.104c0.058,0,0.058,0.056,0.058,0.125
				c0,0.162-0.058,0.638-0.091,0.777c-0.052,0.182-0.115,0.182-0.385,0.182c-0.533,0-0.924-0.013-1.232-0.021
				c-0.306-0.014-0.526-0.02-0.74-0.02c-0.077,0-0.233,0.006-0.403,0.006c-0.164,0.008-0.349,0.014-0.491,0.014
				c-0.093,0-0.142-0.02-0.142-0.071c0-0.034,0.03-0.055,0.112-0.055c0.106,0,0.194-0.014,0.257-0.029
				c0.142-0.027,0.178-0.181,0.207-0.385c0.036-0.293,0.036-0.845,0.036-1.49V42.484z"/>
			<path style="fill:#1C296A;" d="M142.555,44.793c0.016,0.546,0.107,0.728,0.249,0.775c0.12,0.044,0.257,0.051,0.369,0.051
				c0.079,0,0.122,0.014,0.122,0.055c0,0.057-0.065,0.071-0.166,0.071c-0.463,0-0.747-0.02-0.881-0.02
				c-0.061,0-0.399,0.02-0.766,0.02c-0.094,0-0.158-0.006-0.158-0.071c0-0.041,0.042-0.055,0.115-0.055
				c0.091,0,0.219-0.007,0.32-0.036c0.184-0.055,0.213-0.259,0.219-0.868l0.065-4.141c0-0.14,0.021-0.239,0.093-0.239
				c0.077,0,0.142,0.091,0.263,0.217c0.085,0.091,1.165,1.231,2.206,2.247c0.482,0.475,1.444,1.482,1.562,1.596h0.037l-0.071-3.143
				c-0.008-0.426-0.073-0.559-0.242-0.629c-0.107-0.043-0.276-0.043-0.378-0.043c-0.085,0-0.112-0.02-0.112-0.062
				c0-0.056,0.079-0.063,0.185-0.063c0.368,0,0.713,0.021,0.861,0.021c0.079,0,0.347-0.021,0.695-0.021
				c0.093,0,0.164,0.007,0.164,0.063c0,0.042-0.042,0.062-0.128,0.062c-0.069,0-0.128,0-0.211,0.021
				c-0.202,0.056-0.257,0.204-0.265,0.595l-0.077,4.416c0,0.153-0.03,0.217-0.093,0.217c-0.079,0-0.164-0.077-0.243-0.156
				c-0.448-0.419-1.359-1.335-2.097-2.056c-0.776-0.756-1.565-1.631-1.693-1.764h-0.024L142.555,44.793z"/>
			<path style="fill:#1C296A;" d="M149.876,40.847l-1.06,0.027c-0.412,0.014-0.583,0.049-0.691,0.204
				c-0.071,0.105-0.105,0.188-0.12,0.245c-0.014,0.055-0.036,0.085-0.077,0.085c-0.049,0-0.065-0.036-0.065-0.113
				c0-0.112,0.134-0.749,0.15-0.805c0.022-0.09,0.042-0.132,0.085-0.132c0.057,0,0.128,0.069,0.306,0.084
				c0.205,0.021,0.476,0.035,0.712,0.035h2.816c0.227,0,0.385-0.021,0.491-0.035c0.107-0.021,0.163-0.034,0.192-0.034
				c0.047,0,0.057,0.043,0.057,0.146c0,0.147-0.022,0.63-0.022,0.811c-0.008,0.071-0.021,0.113-0.065,0.113
				c-0.055,0-0.071-0.036-0.077-0.14l-0.008-0.077c-0.014-0.182-0.206-0.377-0.839-0.391l-0.897-0.021v2.868
				c0,0.645,0,1.197,0.036,1.498c0.02,0.197,0.065,0.35,0.276,0.377c0.101,0.014,0.257,0.029,0.364,0.029
				c0.077,0,0.114,0.02,0.114,0.055c0,0.051-0.055,0.071-0.136,0.071c-0.47,0-0.918-0.02-1.113-0.02c-0.166,0-0.617,0.02-0.899,0.02
				c-0.093,0-0.143-0.02-0.143-0.071c0-0.034,0.028-0.055,0.113-0.055c0.109,0,0.193-0.014,0.257-0.029
				c0.142-0.027,0.185-0.181,0.205-0.385c0.037-0.293,0.037-0.845,0.037-1.49V40.847z"/>
			<path style="fill:#1C296A;" d="M45.795,50.834c0-1.064,0-1.261-0.016-1.484c-0.014-0.237-0.071-0.349-0.306-0.398
				c-0.057-0.015-0.178-0.021-0.276-0.021c-0.079,0-0.122-0.014-0.122-0.063c0-0.049,0.049-0.062,0.156-0.062
				c0.377,0,0.826,0.02,1.041,0.02c0.168,0,0.618-0.02,0.875-0.02c0.105,0,0.156,0.014,0.156,0.062c0,0.049-0.044,0.063-0.115,0.063
				c-0.077,0-0.121,0.006-0.206,0.021c-0.193,0.035-0.248,0.154-0.262,0.398c-0.016,0.223-0.016,0.42-0.016,1.484v0.98
				c0,1.014,0.205,1.442,0.554,1.721c0.322,0.257,0.648,0.287,0.891,0.287c0.312,0,0.697-0.098,0.98-0.378
				c0.39-0.385,0.415-1.014,0.415-1.735v-0.874c0-1.064,0-1.261-0.016-1.484c-0.014-0.237-0.071-0.349-0.306-0.398
				c-0.058-0.015-0.178-0.021-0.255-0.021c-0.079,0-0.12-0.014-0.12-0.063c0-0.049,0.049-0.062,0.148-0.062
				c0.363,0,0.811,0.02,0.82,0.02c0.085,0,0.531-0.02,0.81-0.02c0.1,0,0.15,0.014,0.15,0.062c0,0.049-0.043,0.063-0.128,0.063
				c-0.079,0-0.122,0.006-0.207,0.021c-0.191,0.035-0.248,0.154-0.262,0.398c-0.014,0.223-0.014,0.42-0.014,1.484v0.749
				c0,0.775-0.079,1.603-0.675,2.106c-0.505,0.426-1.019,0.504-1.481,0.504c-0.377,0-1.058-0.022-1.58-0.484
				c-0.361-0.321-0.63-0.839-0.63-1.853V50.834z"/>
			<path style="fill:#1C296A;" d="M52.594,53.143c0.014,0.545,0.106,0.728,0.248,0.776c0.121,0.043,0.257,0.048,0.369,0.048
				c0.079,0,0.123,0.015,0.123,0.058c0,0.055-0.065,0.069-0.166,0.069c-0.462,0-0.747-0.021-0.88-0.021
				c-0.065,0-0.4,0.021-0.769,0.021c-0.093,0-0.158-0.007-0.158-0.069c0-0.042,0.043-0.058,0.115-0.058
				c0.093,0,0.221-0.005,0.32-0.034c0.186-0.056,0.213-0.259,0.221-0.867l0.064-4.145c0-0.138,0.021-0.237,0.093-0.237
				c0.079,0,0.142,0.091,0.264,0.217c0.085,0.092,1.165,1.233,2.204,2.247c0.484,0.477,1.443,1.484,1.564,1.595h0.037l-0.071-3.141
				c-0.008-0.428-0.073-0.561-0.243-0.63c-0.106-0.043-0.276-0.043-0.377-0.043c-0.084,0-0.112-0.021-0.112-0.063
				c0-0.056,0.078-0.062,0.184-0.062c0.369,0,0.711,0.02,0.861,0.02c0.079,0,0.349-0.02,0.696-0.02c0.093,0,0.164,0.006,0.164,0.062
				c0,0.043-0.043,0.063-0.128,0.063c-0.071,0-0.126,0-0.213,0.021c-0.199,0.055-0.257,0.202-0.262,0.595l-0.079,4.416
				c0,0.153-0.028,0.217-0.093,0.217c-0.077,0-0.162-0.079-0.242-0.154c-0.447-0.42-1.357-1.338-2.098-2.058
				c-0.774-0.756-1.565-1.631-1.692-1.764h-0.021L52.594,53.143z"/>
			<path style="fill:#1C296A;" d="M58.966,50.834c0-1.064,0-1.261-0.014-1.484c-0.014-0.237-0.085-0.356-0.243-0.39
				c-0.077-0.023-0.17-0.029-0.257-0.029c-0.069,0-0.112-0.014-0.112-0.069c0-0.043,0.057-0.056,0.172-0.056
				c0.27,0,0.718,0.02,0.924,0.02c0.178,0,0.598-0.02,0.867-0.02c0.095,0,0.15,0.014,0.15,0.056c0,0.055-0.042,0.069-0.115,0.069
				c-0.069,0-0.128,0.006-0.213,0.021c-0.191,0.035-0.249,0.154-0.263,0.398c-0.016,0.223-0.016,0.42-0.016,1.484v1.231
				c0,0.678,0,1.233,0.03,1.533c0.022,0.188,0.071,0.314,0.286,0.343c0.099,0.013,0.255,0.027,0.361,0.027
				c0.079,0,0.115,0.021,0.115,0.058c0,0.049-0.057,0.069-0.134,0.069c-0.47,0-0.918-0.021-1.112-0.021
				c-0.162,0-0.61,0.021-0.894,0.021c-0.093,0-0.144-0.021-0.144-0.069c0-0.036,0.03-0.058,0.115-0.058
				c0.106,0,0.193-0.014,0.257-0.027c0.142-0.03,0.183-0.149,0.205-0.35c0.036-0.293,0.036-0.848,0.036-1.526V50.834z"/>
			<path style="fill:#1C296A;" d="M61.563,49.49c-0.164-0.384-0.285-0.462-0.542-0.531c-0.106-0.029-0.221-0.029-0.276-0.029
				c-0.065,0-0.087-0.021-0.087-0.063c0-0.056,0.079-0.062,0.185-0.062c0.377,0,0.782,0.02,1.031,0.02
				c0.178,0,0.521-0.02,0.877-0.02c0.085,0,0.162,0.014,0.162,0.062c0,0.049-0.041,0.063-0.106,0.063
				c-0.112,0-0.221,0.006-0.276,0.05c-0.049,0.035-0.073,0.083-0.073,0.147c0,0.09,0.065,0.287,0.166,0.538l1.222,3.176h0.028
				c0.308-0.769,1.232-3.021,1.402-3.485c0.036-0.09,0.065-0.195,0.065-0.258c0-0.056-0.03-0.112-0.093-0.132
				c-0.087-0.03-0.193-0.036-0.284-0.036c-0.063,0-0.121-0.008-0.121-0.055c0-0.056,0.064-0.07,0.197-0.07
				c0.358,0,0.656,0.02,0.749,0.02c0.12,0,0.454-0.02,0.668-0.02c0.093,0,0.15,0.014,0.15,0.062c0,0.049-0.043,0.063-0.115,0.063
				c-0.071,0-0.219,0-0.347,0.085c-0.093,0.062-0.2,0.182-0.391,0.629c-0.279,0.659-0.47,1.035-0.853,1.896
				c-0.456,1.022-0.792,1.785-0.948,2.134c-0.186,0.406-0.227,0.519-0.326,0.519c-0.093,0-0.137-0.099-0.27-0.428L61.563,49.49z"/>
			<path style="fill:#1C296A;" d="M67.402,50.834c0-1.064,0-1.261-0.014-1.484c-0.014-0.237-0.071-0.349-0.306-0.398
				c-0.058-0.015-0.178-0.021-0.276-0.021c-0.079,0-0.121-0.014-0.121-0.063c0-0.049,0.049-0.062,0.156-0.062
				c0.191,0,0.399,0.006,0.574,0.006c0.188,0.008,0.349,0.014,0.448,0.014c0.229,0,1.644,0,1.78-0.006
				c0.134-0.014,0.249-0.029,0.306-0.043c0.036-0.007,0.079-0.027,0.115-0.027c0.033,0,0.041,0.027,0.041,0.062
				c0,0.05-0.035,0.133-0.057,0.456c-0.006,0.069-0.02,0.377-0.036,0.463c-0.008,0.034-0.021,0.074-0.069,0.074
				c-0.051,0-0.065-0.034-0.065-0.097c0-0.049-0.008-0.168-0.041-0.251c-0.052-0.126-0.122-0.211-0.478-0.251
				c-0.121-0.014-0.869-0.029-1.012-0.029c-0.035,0-0.049,0.022-0.049,0.069v1.771c0,0.049,0.008,0.077,0.049,0.077
				c0.158,0,0.976,0,1.14-0.013c0.169-0.014,0.276-0.035,0.341-0.105c0.049-0.055,0.077-0.092,0.115-0.092
				c0.028,0,0.048,0.014,0.048,0.056c0,0.042-0.034,0.153-0.055,0.511c-0.014,0.141-0.03,0.42-0.03,0.469
				c0,0.055,0,0.132-0.063,0.132c-0.049,0-0.065-0.027-0.065-0.062c-0.006-0.071-0.006-0.162-0.028-0.253
				c-0.035-0.14-0.136-0.245-0.396-0.272c-0.137-0.014-0.839-0.022-1.013-0.022c-0.033,0-0.042,0.029-0.042,0.069v0.554
				c0,0.239-0.005,0.882,0,1.085c0.014,0.484,0.128,0.587,0.854,0.587c0.185,0,0.484,0,0.671-0.083
				c0.182-0.085,0.268-0.231,0.317-0.518c0.016-0.077,0.03-0.106,0.079-0.106c0.058,0,0.058,0.057,0.058,0.128
				c0,0.16-0.058,0.635-0.093,0.776c-0.051,0.182-0.114,0.182-0.385,0.182c-0.533,0-0.924-0.014-1.23-0.021
				c-0.306-0.014-0.526-0.021-0.741-0.021c-0.077,0-0.233,0.007-0.405,0.007c-0.164,0.007-0.348,0.014-0.492,0.014
				c-0.09,0-0.14-0.021-0.14-0.069c0-0.036,0.027-0.058,0.112-0.058c0.106,0,0.194-0.014,0.257-0.027
				c0.142-0.03,0.178-0.182,0.205-0.386c0.036-0.294,0.036-0.846,0.036-1.49V50.834z"/>
			<path style="fill:#1C296A;" d="M71.934,50.834c0-1.064,0-1.261-0.014-1.484c-0.016-0.237-0.073-0.349-0.306-0.398
				c-0.058-0.015-0.178-0.021-0.276-0.021c-0.079,0-0.122-0.014-0.122-0.063c0-0.049,0.049-0.062,0.156-0.062
				c0.378,0,0.826,0.02,0.974,0.02c0.243,0,0.784-0.02,1.005-0.02c0.448,0,0.924,0.041,1.309,0.301
				c0.197,0.132,0.484,0.489,0.484,0.958c0,0.519-0.221,0.993-0.94,1.567c0.632,0.785,1.124,1.407,1.545,1.841
				c0.396,0.406,0.689,0.455,0.795,0.476c0.079,0.014,0.143,0.02,0.2,0.02c0.057,0,0.085,0.021,0.085,0.058
				c0,0.055-0.049,0.069-0.137,0.069h-0.675c-0.396,0-0.574-0.035-0.76-0.132c-0.306-0.163-0.574-0.491-0.974-1.03
				c-0.286-0.384-0.612-0.861-0.705-0.965c-0.036-0.042-0.079-0.049-0.128-0.049l-0.62-0.014c-0.033,0-0.055,0.014-0.055,0.055
				v0.099c0,0.651,0,1.203,0.036,1.497c0.02,0.204,0.065,0.356,0.276,0.386c0.106,0.013,0.264,0.027,0.349,0.027
				c0.057,0,0.085,0.021,0.085,0.058c0,0.049-0.049,0.069-0.142,0.069c-0.413,0-0.938-0.021-1.047-0.021
				c-0.134,0-0.583,0.021-0.867,0.021c-0.093,0-0.142-0.021-0.142-0.069c0-0.036,0.03-0.058,0.115-0.058
				c0.106,0,0.191-0.014,0.257-0.027c0.14-0.03,0.175-0.182,0.205-0.386c0.036-0.294,0.036-0.846,0.036-1.49V50.834z M72.773,51.387
				c0,0.077,0.014,0.104,0.063,0.125c0.15,0.05,0.364,0.071,0.542,0.071c0.284,0,0.377-0.028,0.505-0.118
				c0.213-0.155,0.421-0.476,0.421-1.05c0-0.993-0.671-1.282-1.09-1.282c-0.178,0-0.305,0.007-0.377,0.029
				c-0.049,0.014-0.063,0.043-0.063,0.098V51.387z"/>
			<path style="fill:#1C296A;" d="M76.841,54.009c-0.112-0.047-0.134-0.083-0.134-0.237c0-0.384,0.028-0.804,0.036-0.915
				c0.008-0.106,0.03-0.183,0.085-0.183c0.065,0,0.073,0.064,0.073,0.119c0,0.091,0.027,0.237,0.063,0.357
				c0.156,0.517,0.576,0.707,1.017,0.707c0.64,0,0.954-0.428,0.954-0.798c0-0.343-0.106-0.671-0.699-1.12l-0.326-0.252
				c-0.782-0.601-1.053-1.091-1.053-1.657c0-0.77,0.655-1.325,1.643-1.325c0.462,0,0.763,0.071,0.946,0.12
				c0.064,0.014,0.099,0.036,0.099,0.085c0,0.09-0.027,0.294-0.027,0.839c0,0.153-0.022,0.211-0.079,0.211
				c-0.047,0-0.069-0.043-0.069-0.127c0-0.064-0.037-0.281-0.185-0.463c-0.109-0.133-0.314-0.343-0.776-0.343
				c-0.526,0-0.848,0.301-0.848,0.721c0,0.323,0.164,0.567,0.757,1.008l0.197,0.147c0.855,0.65,1.167,1.119,1.167,1.783
				c0,0.407-0.156,0.889-0.668,1.219c-0.358,0.223-0.757,0.287-1.132,0.287C77.47,54.193,77.15,54.143,76.841,54.009z"/>
			<path style="fill:#1C296A;" d="M81.409,50.834c0-1.064,0-1.261-0.014-1.484c-0.014-0.237-0.087-0.356-0.242-0.39
				c-0.079-0.023-0.172-0.029-0.257-0.029c-0.071,0-0.114-0.014-0.114-0.069c0-0.043,0.057-0.056,0.172-0.056
				c0.268,0,0.717,0.02,0.924,0.02c0.178,0,0.598-0.02,0.867-0.02c0.093,0,0.15,0.014,0.15,0.056c0,0.055-0.042,0.069-0.113,0.069
				c-0.073,0-0.128,0.006-0.215,0.021c-0.191,0.035-0.247,0.154-0.263,0.398c-0.014,0.223-0.014,0.42-0.014,1.484v1.231
				c0,0.678,0,1.233,0.03,1.533c0.02,0.188,0.069,0.314,0.283,0.343c0.1,0.013,0.257,0.027,0.363,0.027
				c0.079,0,0.112,0.021,0.112,0.058c0,0.049-0.055,0.069-0.134,0.069c-0.469,0-0.918-0.021-1.108-0.021
				c-0.166,0-0.614,0.021-0.898,0.021c-0.093,0-0.141-0.021-0.141-0.069c0-0.036,0.028-0.058,0.113-0.058
				c0.106,0,0.191-0.014,0.257-0.027c0.14-0.03,0.183-0.149,0.205-0.35c0.036-0.293,0.036-0.848,0.036-1.526V50.834z"/>
			<path style="fill:#1C296A;" d="M85.607,49.197l-1.06,0.027c-0.412,0.014-0.584,0.049-0.689,0.203
				c-0.073,0.106-0.107,0.189-0.121,0.245c-0.016,0.058-0.037,0.084-0.079,0.084c-0.049,0-0.065-0.035-0.065-0.112
				c0-0.112,0.137-0.749,0.15-0.805c0.022-0.09,0.042-0.134,0.085-0.134c0.057,0,0.128,0.071,0.306,0.085
				c0.205,0.021,0.475,0.035,0.711,0.035h2.818c0.227,0,0.383-0.02,0.49-0.035c0.106-0.021,0.164-0.034,0.191-0.034
				c0.049,0,0.057,0.042,0.057,0.146c0,0.148-0.021,0.631-0.021,0.813c-0.006,0.069-0.022,0.112-0.063,0.112
				c-0.058,0-0.071-0.036-0.077-0.139l-0.008-0.077c-0.014-0.182-0.207-0.379-0.839-0.392l-0.897-0.021v2.868
				c0,0.644,0,1.196,0.036,1.498c0.022,0.197,0.063,0.349,0.279,0.378c0.099,0.013,0.254,0.027,0.361,0.027
				c0.079,0,0.114,0.021,0.114,0.058c0,0.049-0.057,0.069-0.136,0.069c-0.47,0-0.918-0.021-1.118-0.021
				c-0.162,0-0.61,0.021-0.894,0.021c-0.093,0-0.143-0.021-0.143-0.069c0-0.036,0.028-0.058,0.113-0.058
				c0.106,0,0.191-0.014,0.257-0.027c0.144-0.03,0.185-0.182,0.205-0.386c0.037-0.294,0.037-0.846,0.037-1.49V49.197z"/>
			<path style="fill:#1C296A;" d="M90.578,52.281c0-0.378-0.071-0.531-0.164-0.734c-0.049-0.112-1.003-1.652-1.252-2.015
				c-0.178-0.26-0.355-0.434-0.491-0.512c-0.091-0.048-0.211-0.09-0.299-0.09c-0.057,0-0.106-0.014-0.106-0.063
				c0-0.043,0.049-0.062,0.136-0.062c0.128,0,0.66,0.02,0.897,0.02c0.148,0,0.441-0.02,0.76-0.02c0.071,0,0.106,0.02,0.106,0.062
				c0,0.043-0.049,0.049-0.158,0.077c-0.061,0.015-0.099,0.071-0.099,0.126c0,0.057,0.038,0.14,0.085,0.238
				c0.101,0.209,1.096,1.897,1.211,2.091c0.071-0.167,0.968-1.707,1.066-1.925c0.071-0.153,0.099-0.271,0.099-0.362
				c0-0.071-0.028-0.147-0.148-0.176c-0.063-0.014-0.128-0.027-0.128-0.069c0-0.049,0.036-0.062,0.12-0.062
				c0.237,0,0.464,0.02,0.67,0.02c0.156,0,0.626-0.02,0.76-0.02c0.079,0,0.128,0.014,0.128,0.056c0,0.049-0.055,0.069-0.134,0.069
				c-0.071,0-0.207,0.029-0.314,0.085c-0.15,0.069-0.227,0.153-0.384,0.341c-0.235,0.281-1.23,1.925-1.359,2.226
				c-0.106,0.251-0.106,0.468-0.106,0.699v0.576c0,0.112,0,0.404,0.022,0.698c0.014,0.204,0.077,0.356,0.29,0.386
				c0.099,0.013,0.257,0.027,0.356,0.027c0.079,0,0.115,0.021,0.115,0.058c0,0.049-0.058,0.069-0.15,0.069
				c-0.448,0-0.896-0.021-1.088-0.021c-0.178,0-0.626,0.021-0.889,0.021c-0.1,0-0.156-0.014-0.156-0.069
				c0-0.036,0.033-0.058,0.112-0.058c0.101,0,0.186-0.014,0.251-0.027c0.14-0.03,0.206-0.182,0.219-0.386
				c0.022-0.294,0.022-0.586,0.022-0.698V52.281z"/>
		</g>
	</g>
</g>
<g id="Schools" style="display:none;">
	<g id="LKCSB">
	</g>
	<g id="SOA">
	</g>
	<g id="SOE">
	</g>
	<g id="SOIS">
	</g>
	<g id="SOL">
	</g>
	<g id="SOSSC">
	</g>
</g>
<g id="Library" style="display:none;">
</g>
<g id="Labs" style="display:none;">
	<g id="iCity" style="display:inline;">
	</g>
	<g id="Pinnacle">
	</g>
	<g id="LiveLabs">
	</g>
	<g id="UNICEN">
	</g>
	<g id="DHL-SMU">
	</g>
</g>
<g id="Institutes" style="display:none;">
	<g id="AEI" style="display:inline;">
	</g>
	<g id="SKBI">
	</g>
	<g id="ITI">
	</g>
	<g id="ISE">
	</g>
	<g id="IIE">
	</g>
	<g id="ISL">
	</g>
	<g id="BFI">
	</g>
	<g id="BSI">
	</g>
</g>
<g id="Centres" style="display:none;">
	<g id="SMUTA">
	</g>
	<g id="SMC">
	</g>
	<g id="SIDRA" style="display:inline;">
	</g>
	<g id="RCE">
	</g>
	<g id="LARC">
	</g>
	<g id="LCSI">
	</g>
	<g id="CREA">
	</g>
	<g id="CME">
	</g>
	<g id="CCBCLA">
	</g>
	<g id="CAIDG">
	</g>
</g>
<g id="Admin_Offces" style="display:none;">
	<g id="UGAFA" style="display:inline;">
	</g>
	<g id="OSL">
	</g>
	<g id="SMU-X">
	</g>
	<g id="EXD">
	</g>
	<g id="SMUA">
	</g>
	<g id="ORTT">
	</g>
	<g id="REG">
	</g>
	<g id="OPGRP">
	</g>
	<g id="OPGPP">
	</g>
	<g id="OProv">
	</g>
	<g id="OPres">
	</g>
	<g id="OLGA">
	</g>
	<g id="INV">
	</g>
	<g id="IO">
	</g>
	<g id="IA">
	</g>
	<g id="IITS">
	</g>
	<g id="IRB">
	</g>
	<g id="HRFA">
	</g>
	<g id="FIN">
	</g>
	<g id="ODOS">
	</g>
	<g id="DKHMCC">
	</g>
	<g id="OCCM">
	</g>
	<g id="OCC">
	</g>
	<g id="OCIS">
	</g>
	<g id="OBI">
	</g>
	<g id="OBD">
	</g>
	<g id="AR">
	</g>
	<g id="ADV">
	</g>
</g>
<g id="Acad_Support" style="display:none;">
	<g id="WKWC" style="display:inline;">
	</g>
	<g id="Pro_Bono">
	</g>
	<g id="Student_Wellness">
	</g>
	<g id="CTE">
	</g>
	<g id="CSR">
	</g>
	<g id="CSD">
	</g>
	<g id="CMP">
	</g>
	<g id="CEC">
	</g>
</g>
<g id="Blue_Separator__x28_Excl_for_Schools_x29_" style="display:none;">
</g>
</svg>
